%TF.GenerationSoftware,KiCad,Pcbnew,5.99.0-unknown-fb4343bc8f~130~ubuntu20.04.1*%
%TF.CreationDate,2021-06-28T22:25:34+02:00*%
%TF.ProjectId,MS20-Plus-VCF-v2,4d533230-2d50-46c7-9573-2d5643462d76,rev?*%
%TF.SameCoordinates,Original*%
%TF.FileFunction,Soldermask,Bot*%
%TF.FilePolarity,Negative*%
%FSLAX46Y46*%
G04 Gerber Fmt 4.6, Leading zero omitted, Abs format (unit mm)*
G04 Created by KiCad (PCBNEW 5.99.0-unknown-fb4343bc8f~130~ubuntu20.04.1) date 2021-06-28 22:25:34*
%MOMM*%
%LPD*%
G01*
G04 APERTURE LIST*
G04 Aperture macros list*
%AMRoundRect*
0 Rectangle with rounded corners*
0 $1 Rounding radius*
0 $2 $3 $4 $5 $6 $7 $8 $9 X,Y pos of 4 corners*
0 Add a 4 corners polygon primitive as box body*
4,1,4,$2,$3,$4,$5,$6,$7,$8,$9,$2,$3,0*
0 Add four circle primitives for the rounded corners*
1,1,$1+$1,$2,$3*
1,1,$1+$1,$4,$5*
1,1,$1+$1,$6,$7*
1,1,$1+$1,$8,$9*
0 Add four rect primitives between the rounded corners*
20,1,$1+$1,$2,$3,$4,$5,0*
20,1,$1+$1,$4,$5,$6,$7,0*
20,1,$1+$1,$6,$7,$8,$9,0*
20,1,$1+$1,$8,$9,$2,$3,0*%
G04 Aperture macros list end*
%ADD10C,2.000000*%
%ADD11O,1.700000X1.700000*%
%ADD12R,1.700000X1.700000*%
%ADD13O,2.720000X3.240000*%
%ADD14R,1.800000X1.800000*%
%ADD15C,1.800000*%
%ADD16C,1.600000*%
%ADD17O,1.600000X1.600000*%
%ADD18R,1.930000X1.830000*%
%ADD19C,2.130000*%
%ADD20C,6.000000*%
%ADD21O,1.600000X2.000000*%
%ADD22R,1.600000X1.600000*%
%ADD23C,1.440000*%
%ADD24O,1.500000X1.050000*%
%ADD25R,1.500000X1.050000*%
%ADD26C,1.700000*%
%ADD27RoundRect,0.250000X0.600000X0.600000X-0.600000X0.600000X-0.600000X-0.600000X0.600000X-0.600000X0*%
G04 APERTURE END LIST*
D10*
X77500000Y-65725000D03*
X77500000Y-68225000D03*
X77500000Y-70725000D03*
X77500000Y-75725000D03*
X77500000Y-73225000D03*
X77500000Y-113200000D03*
X77500000Y-115700000D03*
X77500000Y-108200000D03*
X77500000Y-110700000D03*
X77500000Y-118200000D03*
D11*
X114750000Y-139230000D03*
X114750000Y-136690000D03*
X114750000Y-134150000D03*
X114750000Y-131610000D03*
X114750000Y-129070000D03*
X114750000Y-126530000D03*
X114750000Y-123990000D03*
D12*
X114750000Y-121450000D03*
D13*
X63000000Y-54875000D03*
X72600000Y-54875000D03*
D14*
X65300000Y-62375000D03*
D15*
X67800000Y-62375000D03*
X70300000Y-62375000D03*
D16*
X58950000Y-108610000D03*
D17*
X58950000Y-100990000D03*
D16*
X58950000Y-79610000D03*
D17*
X58950000Y-71990000D03*
D18*
X67900000Y-135880000D03*
D19*
X67900000Y-124480000D03*
X67900000Y-132780000D03*
D14*
X49000000Y-67660000D03*
D15*
X49000000Y-70200000D03*
D18*
X57500000Y-135860000D03*
D19*
X57500000Y-124460000D03*
X57500000Y-132760000D03*
D14*
X44500000Y-70210000D03*
D15*
X44500000Y-67670000D03*
D18*
X47100000Y-150480000D03*
D19*
X47100000Y-139080000D03*
X47100000Y-147380000D03*
D16*
X65700000Y-119510000D03*
D17*
X65700000Y-111890000D03*
D14*
X65550000Y-67225000D03*
D15*
X65550000Y-64685000D03*
D16*
X55500000Y-79610000D03*
D17*
X55500000Y-71990000D03*
D14*
X70050000Y-64675000D03*
D15*
X70050000Y-67215000D03*
D20*
X57350000Y-55200000D03*
D16*
X55500000Y-94360000D03*
D17*
X55500000Y-86740000D03*
D20*
X97350000Y-115950000D03*
D18*
X67900000Y-150480000D03*
D19*
X67900000Y-139080000D03*
X67900000Y-147380000D03*
D14*
X49000000Y-88790000D03*
D15*
X49000000Y-91330000D03*
D13*
X51500000Y-99500000D03*
X41900000Y-99500000D03*
D14*
X44200000Y-107000000D03*
D15*
X46700000Y-107000000D03*
X49200000Y-107000000D03*
D18*
X57500000Y-150480000D03*
D19*
X57500000Y-139080000D03*
X57500000Y-147380000D03*
D16*
X71760000Y-89900000D03*
D17*
X64140000Y-89900000D03*
D18*
X47100000Y-135880000D03*
D19*
X47100000Y-124480000D03*
X47100000Y-132780000D03*
D14*
X44500000Y-91340000D03*
D15*
X44500000Y-88800000D03*
D13*
X42100000Y-54825000D03*
X51700000Y-54825000D03*
D14*
X44400000Y-62325000D03*
D15*
X46900000Y-62325000D03*
X49400000Y-62325000D03*
D16*
X55500000Y-108610000D03*
D17*
X55500000Y-100990000D03*
D20*
X97350000Y-55150000D03*
D11*
X80300000Y-139230000D03*
X80300000Y-136690000D03*
X80300000Y-134150000D03*
X80300000Y-131610000D03*
X80300000Y-129070000D03*
X80300000Y-126530000D03*
X80300000Y-123990000D03*
D12*
X80300000Y-121450000D03*
D13*
X62900000Y-78400000D03*
X72500000Y-78400000D03*
D14*
X65200000Y-85900000D03*
D15*
X67700000Y-85900000D03*
X70200000Y-85900000D03*
D13*
X51500000Y-78400000D03*
X41900000Y-78400000D03*
D14*
X44200000Y-85900000D03*
D15*
X46700000Y-85900000D03*
X49200000Y-85900000D03*
D16*
X58950000Y-86740000D03*
D17*
X58950000Y-94360000D03*
D16*
X58950000Y-69510000D03*
D17*
X58950000Y-61890000D03*
D20*
X57350000Y-116000000D03*
D13*
X72400000Y-99500000D03*
X62800000Y-99500000D03*
D14*
X65100000Y-107000000D03*
D15*
X67600000Y-107000000D03*
X70100000Y-107000000D03*
D21*
X49150000Y-114450000D03*
X46650000Y-114450000D03*
X44150000Y-114450000D03*
D17*
X104700000Y-112700000D03*
D16*
X104700000Y-120320000D03*
X113100000Y-90950000D03*
D22*
X110600000Y-90950000D03*
D17*
X111670000Y-100650000D03*
D16*
X104050000Y-100650000D03*
X107100000Y-137200000D03*
X107100000Y-132200000D03*
D17*
X101160000Y-97200000D03*
D16*
X93540000Y-97200000D03*
D17*
X82840000Y-113500000D03*
D16*
X90460000Y-113500000D03*
D12*
X40250000Y-121500000D03*
D11*
X40250000Y-124040000D03*
X40250000Y-126580000D03*
X40250000Y-129120000D03*
X40250000Y-131660000D03*
X40250000Y-134200000D03*
X40250000Y-136740000D03*
X40250000Y-139280000D03*
D17*
X85250000Y-61880000D03*
D16*
X85250000Y-69500000D03*
D17*
X85200000Y-76840000D03*
D16*
X85200000Y-84460000D03*
D17*
X88370000Y-57850000D03*
D16*
X80750000Y-57850000D03*
D17*
X104080000Y-97150000D03*
D16*
X111700000Y-97150000D03*
D17*
X90510000Y-100650000D03*
D16*
X82890000Y-100650000D03*
D23*
X107980000Y-144050000D03*
X105440000Y-144050000D03*
X102900000Y-144050000D03*
D16*
X110682380Y-55400000D03*
D22*
X113182380Y-55400000D03*
D23*
X89720000Y-125700000D03*
X92260000Y-125700000D03*
X94800000Y-125700000D03*
D17*
X99450000Y-79320000D03*
D16*
X99450000Y-86940000D03*
D17*
X111670000Y-104150000D03*
D16*
X104050000Y-104150000D03*
D17*
X81050000Y-69510000D03*
D16*
X81050000Y-61890000D03*
X102100000Y-60390000D03*
X102100000Y-65390000D03*
D17*
X99450000Y-68130000D03*
D16*
X99450000Y-75750000D03*
D17*
X108150000Y-112690000D03*
D16*
X108150000Y-120310000D03*
X89700000Y-84540000D03*
X94700000Y-84540000D03*
D17*
X90660000Y-147650000D03*
D16*
X98280000Y-147650000D03*
D24*
X99377500Y-104630000D03*
X99377500Y-105900000D03*
D25*
X99377500Y-107170000D03*
D16*
X89850000Y-143350000D03*
X84850000Y-143350000D03*
D17*
X107680000Y-60800000D03*
D16*
X115300000Y-60800000D03*
X89700000Y-89340000D03*
X94700000Y-89340000D03*
D26*
X110612500Y-78180000D03*
X113152500Y-78180000D03*
X110612500Y-75640000D03*
X113152500Y-75640000D03*
X110612500Y-73100000D03*
X113152500Y-73100000D03*
X110612500Y-70560000D03*
X113152500Y-70560000D03*
X110612500Y-68020000D03*
D27*
X113152500Y-68020000D03*
D17*
X90570000Y-97200000D03*
D16*
X82950000Y-97200000D03*
X80450000Y-73190000D03*
X85450000Y-73190000D03*
D17*
X82890000Y-104100000D03*
D16*
X90510000Y-104100000D03*
D17*
X115320000Y-85390000D03*
D16*
X107700000Y-85390000D03*
D17*
X101160000Y-100650000D03*
D16*
X93540000Y-100650000D03*
D23*
X105980000Y-125700000D03*
X103440000Y-125700000D03*
X100900000Y-125700000D03*
D17*
X87515000Y-138750000D03*
X90055000Y-138750000D03*
X92595000Y-138750000D03*
X95135000Y-138750000D03*
X97675000Y-138750000D03*
X100215000Y-138750000D03*
X102755000Y-138750000D03*
X102755000Y-131130000D03*
X100215000Y-131130000D03*
X97675000Y-131130000D03*
X95135000Y-131130000D03*
X92595000Y-131130000D03*
X90055000Y-131130000D03*
D22*
X87515000Y-131130000D03*
D17*
X111670000Y-107750000D03*
D16*
X104050000Y-107750000D03*
D17*
X102850000Y-79330000D03*
D16*
X102850000Y-86950000D03*
X82200000Y-92494888D03*
D22*
X82200000Y-89994888D03*
D17*
X102800000Y-75750000D03*
D16*
X102800000Y-68130000D03*
X98065000Y-143355000D03*
X93065000Y-143355000D03*
D17*
X96240000Y-80505000D03*
X96240000Y-77965000D03*
X96240000Y-75425000D03*
X96240000Y-72885000D03*
X96240000Y-70345000D03*
X96240000Y-67805000D03*
X96240000Y-65265000D03*
X96240000Y-62725000D03*
X88620000Y-62725000D03*
X88620000Y-65265000D03*
X88620000Y-67805000D03*
X88620000Y-70345000D03*
X88620000Y-72885000D03*
X88620000Y-75425000D03*
X88620000Y-77965000D03*
D22*
X88620000Y-80505000D03*
D24*
X95380500Y-107170000D03*
X95380500Y-105900000D03*
D25*
X95380500Y-104630000D03*
D12*
X74700000Y-121500000D03*
D11*
X74700000Y-124040000D03*
X74700000Y-126580000D03*
X74700000Y-129120000D03*
X74700000Y-131660000D03*
X74700000Y-134200000D03*
X74700000Y-136740000D03*
X74700000Y-139280000D03*
D23*
X84020000Y-108700000D03*
X86560000Y-108700000D03*
X89100000Y-108700000D03*
M02*
