%TF.GenerationSoftware,KiCad,Pcbnew,5.99.0-unknown-fb4343bc8f~130~ubuntu20.04.1*%
%TF.CreationDate,2021-06-28T22:25:34+02:00*%
%TF.ProjectId,MS20-Plus-VCF-v2,4d533230-2d50-46c7-9573-2d5643462d76,rev?*%
%TF.SameCoordinates,Original*%
%TF.FileFunction,Legend,Top*%
%TF.FilePolarity,Positive*%
%FSLAX46Y46*%
G04 Gerber Fmt 4.6, Leading zero omitted, Abs format (unit mm)*
G04 Created by KiCad (PCBNEW 5.99.0-unknown-fb4343bc8f~130~ubuntu20.04.1) date 2021-06-28 22:25:34*
%MOMM*%
%LPD*%
G01*
G04 APERTURE LIST*
G04 Aperture macros list*
%AMRoundRect*
0 Rectangle with rounded corners*
0 $1 Rounding radius*
0 $2 $3 $4 $5 $6 $7 $8 $9 X,Y pos of 4 corners*
0 Add a 4 corners polygon primitive as box body*
4,1,4,$2,$3,$4,$5,$6,$7,$8,$9,$2,$3,0*
0 Add four circle primitives for the rounded corners*
1,1,$1+$1,$2,$3*
1,1,$1+$1,$4,$5*
1,1,$1+$1,$6,$7*
1,1,$1+$1,$8,$9*
0 Add four rect primitives between the rounded corners*
20,1,$1+$1,$2,$3,$4,$5,0*
20,1,$1+$1,$4,$5,$6,$7,0*
20,1,$1+$1,$6,$7,$8,$9,0*
20,1,$1+$1,$8,$9,$2,$3,0*%
G04 Aperture macros list end*
%ADD10C,0.150000*%
%ADD11C,0.120000*%
%ADD12C,2.000000*%
%ADD13O,1.700000X1.700000*%
%ADD14R,1.700000X1.700000*%
%ADD15O,2.720000X3.240000*%
%ADD16R,1.800000X1.800000*%
%ADD17C,1.800000*%
%ADD18C,1.600000*%
%ADD19O,1.600000X1.600000*%
%ADD20R,1.930000X1.830000*%
%ADD21C,2.130000*%
%ADD22C,6.000000*%
%ADD23O,1.600000X2.000000*%
%ADD24R,1.600000X1.600000*%
%ADD25C,1.440000*%
%ADD26O,1.500000X1.050000*%
%ADD27R,1.500000X1.050000*%
%ADD28C,1.700000*%
%ADD29RoundRect,0.250000X0.600000X0.600000X-0.600000X0.600000X-0.600000X-0.600000X0.600000X-0.600000X0*%
G04 APERTURE END LIST*
D10*
X113940476Y-118132380D02*
X113940476Y-118846666D01*
X113892857Y-118989523D01*
X113797619Y-119084761D01*
X113654761Y-119132380D01*
X113559523Y-119132380D01*
X114940476Y-119132380D02*
X114369047Y-119132380D01*
X114654761Y-119132380D02*
X114654761Y-118132380D01*
X114559523Y-118275238D01*
X114464285Y-118370476D01*
X114369047Y-118418095D01*
X115892857Y-119132380D02*
X115321428Y-119132380D01*
X115607142Y-119132380D02*
X115607142Y-118132380D01*
X115511904Y-118275238D01*
X115416666Y-118370476D01*
X115321428Y-118418095D01*
X62552380Y-60445238D02*
X62076190Y-60778571D01*
X62552380Y-61016666D02*
X61552380Y-61016666D01*
X61552380Y-60635714D01*
X61600000Y-60540476D01*
X61647619Y-60492857D01*
X61742857Y-60445238D01*
X61885714Y-60445238D01*
X61980952Y-60492857D01*
X62028571Y-60540476D01*
X62076190Y-60635714D01*
X62076190Y-61016666D01*
X61552380Y-60159523D02*
X62552380Y-59826190D01*
X61552380Y-59492857D01*
X61552380Y-59254761D02*
X61552380Y-58635714D01*
X61933333Y-58969047D01*
X61933333Y-58826190D01*
X61980952Y-58730952D01*
X62028571Y-58683333D01*
X62123809Y-58635714D01*
X62361904Y-58635714D01*
X62457142Y-58683333D01*
X62504761Y-58730952D01*
X62552380Y-58826190D01*
X62552380Y-59111904D01*
X62504761Y-59207142D01*
X62457142Y-59254761D01*
X61652380Y-107616666D02*
X61176190Y-107950000D01*
X61652380Y-108188095D02*
X60652380Y-108188095D01*
X60652380Y-107807142D01*
X60700000Y-107711904D01*
X60747619Y-107664285D01*
X60842857Y-107616666D01*
X60985714Y-107616666D01*
X61080952Y-107664285D01*
X61128571Y-107711904D01*
X61176190Y-107807142D01*
X61176190Y-108188095D01*
X61080952Y-107045238D02*
X61033333Y-107140476D01*
X60985714Y-107188095D01*
X60890476Y-107235714D01*
X60842857Y-107235714D01*
X60747619Y-107188095D01*
X60700000Y-107140476D01*
X60652380Y-107045238D01*
X60652380Y-106854761D01*
X60700000Y-106759523D01*
X60747619Y-106711904D01*
X60842857Y-106664285D01*
X60890476Y-106664285D01*
X60985714Y-106711904D01*
X61033333Y-106759523D01*
X61080952Y-106854761D01*
X61080952Y-107045238D01*
X61128571Y-107140476D01*
X61176190Y-107188095D01*
X61271428Y-107235714D01*
X61461904Y-107235714D01*
X61557142Y-107188095D01*
X61604761Y-107140476D01*
X61652380Y-107045238D01*
X61652380Y-106854761D01*
X61604761Y-106759523D01*
X61557142Y-106711904D01*
X61461904Y-106664285D01*
X61271428Y-106664285D01*
X61176190Y-106711904D01*
X61128571Y-106759523D01*
X61080952Y-106854761D01*
X61752380Y-74242857D02*
X61276190Y-74576190D01*
X61752380Y-74814285D02*
X60752380Y-74814285D01*
X60752380Y-74433333D01*
X60800000Y-74338095D01*
X60847619Y-74290476D01*
X60942857Y-74242857D01*
X61085714Y-74242857D01*
X61180952Y-74290476D01*
X61228571Y-74338095D01*
X61276190Y-74433333D01*
X61276190Y-74814285D01*
X60847619Y-73861904D02*
X60800000Y-73814285D01*
X60752380Y-73719047D01*
X60752380Y-73480952D01*
X60800000Y-73385714D01*
X60847619Y-73338095D01*
X60942857Y-73290476D01*
X61038095Y-73290476D01*
X61180952Y-73338095D01*
X61752380Y-73909523D01*
X61752380Y-73290476D01*
X61752380Y-72338095D02*
X61752380Y-72909523D01*
X61752380Y-72623809D02*
X60752380Y-72623809D01*
X60895238Y-72719047D01*
X60990476Y-72814285D01*
X61038095Y-72909523D01*
X71596666Y-134252380D02*
X71596666Y-134966666D01*
X71549047Y-135109523D01*
X71453809Y-135204761D01*
X71310952Y-135252380D01*
X71215714Y-135252380D01*
X71977619Y-134252380D02*
X72596666Y-134252380D01*
X72263333Y-134633333D01*
X72406190Y-134633333D01*
X72501428Y-134680952D01*
X72549047Y-134728571D01*
X72596666Y-134823809D01*
X72596666Y-135061904D01*
X72549047Y-135157142D01*
X72501428Y-135204761D01*
X72406190Y-135252380D01*
X72120476Y-135252380D01*
X72025238Y-135204761D01*
X71977619Y-135157142D01*
X52412380Y-69668095D02*
X51412380Y-69668095D01*
X51412380Y-69430000D01*
X51460000Y-69287142D01*
X51555238Y-69191904D01*
X51650476Y-69144285D01*
X51840952Y-69096666D01*
X51983809Y-69096666D01*
X52174285Y-69144285D01*
X52269523Y-69191904D01*
X52364761Y-69287142D01*
X52412380Y-69430000D01*
X52412380Y-69668095D01*
X51412380Y-68239523D02*
X51412380Y-68430000D01*
X51460000Y-68525238D01*
X51507619Y-68572857D01*
X51650476Y-68668095D01*
X51840952Y-68715714D01*
X52221904Y-68715714D01*
X52317142Y-68668095D01*
X52364761Y-68620476D01*
X52412380Y-68525238D01*
X52412380Y-68334761D01*
X52364761Y-68239523D01*
X52317142Y-68191904D01*
X52221904Y-68144285D01*
X51983809Y-68144285D01*
X51888571Y-68191904D01*
X51840952Y-68239523D01*
X51793333Y-68334761D01*
X51793333Y-68525238D01*
X51840952Y-68620476D01*
X51888571Y-68668095D01*
X51983809Y-68715714D01*
X61196666Y-134232380D02*
X61196666Y-134946666D01*
X61149047Y-135089523D01*
X61053809Y-135184761D01*
X60910952Y-135232380D01*
X60815714Y-135232380D01*
X62196666Y-135232380D02*
X61625238Y-135232380D01*
X61910952Y-135232380D02*
X61910952Y-134232380D01*
X61815714Y-134375238D01*
X61720476Y-134470476D01*
X61625238Y-134518095D01*
X41992380Y-69678095D02*
X40992380Y-69678095D01*
X40992380Y-69440000D01*
X41040000Y-69297142D01*
X41135238Y-69201904D01*
X41230476Y-69154285D01*
X41420952Y-69106666D01*
X41563809Y-69106666D01*
X41754285Y-69154285D01*
X41849523Y-69201904D01*
X41944761Y-69297142D01*
X41992380Y-69440000D01*
X41992380Y-69678095D01*
X40992380Y-68201904D02*
X40992380Y-68678095D01*
X41468571Y-68725714D01*
X41420952Y-68678095D01*
X41373333Y-68582857D01*
X41373333Y-68344761D01*
X41420952Y-68249523D01*
X41468571Y-68201904D01*
X41563809Y-68154285D01*
X41801904Y-68154285D01*
X41897142Y-68201904D01*
X41944761Y-68249523D01*
X41992380Y-68344761D01*
X41992380Y-68582857D01*
X41944761Y-68678095D01*
X41897142Y-68725714D01*
X50796666Y-148852380D02*
X50796666Y-149566666D01*
X50749047Y-149709523D01*
X50653809Y-149804761D01*
X50510952Y-149852380D01*
X50415714Y-149852380D01*
X51701428Y-148852380D02*
X51510952Y-148852380D01*
X51415714Y-148900000D01*
X51368095Y-148947619D01*
X51272857Y-149090476D01*
X51225238Y-149280952D01*
X51225238Y-149661904D01*
X51272857Y-149757142D01*
X51320476Y-149804761D01*
X51415714Y-149852380D01*
X51606190Y-149852380D01*
X51701428Y-149804761D01*
X51749047Y-149757142D01*
X51796666Y-149661904D01*
X51796666Y-149423809D01*
X51749047Y-149328571D01*
X51701428Y-149280952D01*
X51606190Y-149233333D01*
X51415714Y-149233333D01*
X51320476Y-149280952D01*
X51272857Y-149328571D01*
X51225238Y-149423809D01*
X63782380Y-115866666D02*
X63306190Y-116200000D01*
X63782380Y-116438095D02*
X62782380Y-116438095D01*
X62782380Y-116057142D01*
X62830000Y-115961904D01*
X62877619Y-115914285D01*
X62972857Y-115866666D01*
X63115714Y-115866666D01*
X63210952Y-115914285D01*
X63258571Y-115961904D01*
X63306190Y-116057142D01*
X63306190Y-116438095D01*
X63115714Y-115009523D02*
X63782380Y-115009523D01*
X62734761Y-115247619D02*
X63449047Y-115485714D01*
X63449047Y-114866666D01*
X63042380Y-66693095D02*
X62042380Y-66693095D01*
X62042380Y-66455000D01*
X62090000Y-66312142D01*
X62185238Y-66216904D01*
X62280476Y-66169285D01*
X62470952Y-66121666D01*
X62613809Y-66121666D01*
X62804285Y-66169285D01*
X62899523Y-66216904D01*
X62994761Y-66312142D01*
X63042380Y-66455000D01*
X63042380Y-66693095D01*
X63042380Y-65169285D02*
X63042380Y-65740714D01*
X63042380Y-65455000D02*
X62042380Y-65455000D01*
X62185238Y-65550238D01*
X62280476Y-65645476D01*
X62328095Y-65740714D01*
X53582380Y-76442857D02*
X53106190Y-76776190D01*
X53582380Y-77014285D02*
X52582380Y-77014285D01*
X52582380Y-76633333D01*
X52630000Y-76538095D01*
X52677619Y-76490476D01*
X52772857Y-76442857D01*
X52915714Y-76442857D01*
X53010952Y-76490476D01*
X53058571Y-76538095D01*
X53106190Y-76633333D01*
X53106190Y-77014285D01*
X53582380Y-75490476D02*
X53582380Y-76061904D01*
X53582380Y-75776190D02*
X52582380Y-75776190D01*
X52725238Y-75871428D01*
X52820476Y-75966666D01*
X52868095Y-76061904D01*
X52582380Y-74871428D02*
X52582380Y-74776190D01*
X52630000Y-74680952D01*
X52677619Y-74633333D01*
X52772857Y-74585714D01*
X52963333Y-74538095D01*
X53201428Y-74538095D01*
X53391904Y-74585714D01*
X53487142Y-74633333D01*
X53534761Y-74680952D01*
X53582380Y-74776190D01*
X53582380Y-74871428D01*
X53534761Y-74966666D01*
X53487142Y-75014285D01*
X53391904Y-75061904D01*
X53201428Y-75109523D01*
X52963333Y-75109523D01*
X52772857Y-75061904D01*
X52677619Y-75014285D01*
X52630000Y-74966666D01*
X52582380Y-74871428D01*
X73462380Y-66683095D02*
X72462380Y-66683095D01*
X72462380Y-66445000D01*
X72510000Y-66302142D01*
X72605238Y-66206904D01*
X72700476Y-66159285D01*
X72890952Y-66111666D01*
X73033809Y-66111666D01*
X73224285Y-66159285D01*
X73319523Y-66206904D01*
X73414761Y-66302142D01*
X73462380Y-66445000D01*
X73462380Y-66683095D01*
X72557619Y-65730714D02*
X72510000Y-65683095D01*
X72462380Y-65587857D01*
X72462380Y-65349761D01*
X72510000Y-65254523D01*
X72557619Y-65206904D01*
X72652857Y-65159285D01*
X72748095Y-65159285D01*
X72890952Y-65206904D01*
X73462380Y-65778333D01*
X73462380Y-65159285D01*
X53502380Y-93742857D02*
X53026190Y-94076190D01*
X53502380Y-94314285D02*
X52502380Y-94314285D01*
X52502380Y-93933333D01*
X52550000Y-93838095D01*
X52597619Y-93790476D01*
X52692857Y-93742857D01*
X52835714Y-93742857D01*
X52930952Y-93790476D01*
X52978571Y-93838095D01*
X53026190Y-93933333D01*
X53026190Y-94314285D01*
X52597619Y-93361904D02*
X52550000Y-93314285D01*
X52502380Y-93219047D01*
X52502380Y-92980952D01*
X52550000Y-92885714D01*
X52597619Y-92838095D01*
X52692857Y-92790476D01*
X52788095Y-92790476D01*
X52930952Y-92838095D01*
X53502380Y-93409523D01*
X53502380Y-92790476D01*
X52502380Y-92171428D02*
X52502380Y-92076190D01*
X52550000Y-91980952D01*
X52597619Y-91933333D01*
X52692857Y-91885714D01*
X52883333Y-91838095D01*
X53121428Y-91838095D01*
X53311904Y-91885714D01*
X53407142Y-91933333D01*
X53454761Y-91980952D01*
X53502380Y-92076190D01*
X53502380Y-92171428D01*
X53454761Y-92266666D01*
X53407142Y-92314285D01*
X53311904Y-92361904D01*
X53121428Y-92409523D01*
X52883333Y-92409523D01*
X52692857Y-92361904D01*
X52597619Y-92314285D01*
X52550000Y-92266666D01*
X52502380Y-92171428D01*
X71596666Y-148852380D02*
X71596666Y-149566666D01*
X71549047Y-149709523D01*
X71453809Y-149804761D01*
X71310952Y-149852380D01*
X71215714Y-149852380D01*
X72501428Y-149185714D02*
X72501428Y-149852380D01*
X72263333Y-148804761D02*
X72025238Y-149519047D01*
X72644285Y-149519047D01*
X52412380Y-90798095D02*
X51412380Y-90798095D01*
X51412380Y-90560000D01*
X51460000Y-90417142D01*
X51555238Y-90321904D01*
X51650476Y-90274285D01*
X51840952Y-90226666D01*
X51983809Y-90226666D01*
X52174285Y-90274285D01*
X52269523Y-90321904D01*
X52364761Y-90417142D01*
X52412380Y-90560000D01*
X52412380Y-90798095D01*
X51412380Y-89893333D02*
X51412380Y-89274285D01*
X51793333Y-89607619D01*
X51793333Y-89464761D01*
X51840952Y-89369523D01*
X51888571Y-89321904D01*
X51983809Y-89274285D01*
X52221904Y-89274285D01*
X52317142Y-89321904D01*
X52364761Y-89369523D01*
X52412380Y-89464761D01*
X52412380Y-89750476D01*
X52364761Y-89845714D01*
X52317142Y-89893333D01*
X40012380Y-100885238D02*
X39536190Y-101218571D01*
X40012380Y-101456666D02*
X39012380Y-101456666D01*
X39012380Y-101075714D01*
X39060000Y-100980476D01*
X39107619Y-100932857D01*
X39202857Y-100885238D01*
X39345714Y-100885238D01*
X39440952Y-100932857D01*
X39488571Y-100980476D01*
X39536190Y-101075714D01*
X39536190Y-101456666D01*
X39012380Y-100599523D02*
X40012380Y-100266190D01*
X39012380Y-99932857D01*
X39012380Y-99170952D02*
X39012380Y-99361428D01*
X39060000Y-99456666D01*
X39107619Y-99504285D01*
X39250476Y-99599523D01*
X39440952Y-99647142D01*
X39821904Y-99647142D01*
X39917142Y-99599523D01*
X39964761Y-99551904D01*
X40012380Y-99456666D01*
X40012380Y-99266190D01*
X39964761Y-99170952D01*
X39917142Y-99123333D01*
X39821904Y-99075714D01*
X39583809Y-99075714D01*
X39488571Y-99123333D01*
X39440952Y-99170952D01*
X39393333Y-99266190D01*
X39393333Y-99456666D01*
X39440952Y-99551904D01*
X39488571Y-99599523D01*
X39583809Y-99647142D01*
X61196666Y-148852380D02*
X61196666Y-149566666D01*
X61149047Y-149709523D01*
X61053809Y-149804761D01*
X60910952Y-149852380D01*
X60815714Y-149852380D01*
X61625238Y-148947619D02*
X61672857Y-148900000D01*
X61768095Y-148852380D01*
X62006190Y-148852380D01*
X62101428Y-148900000D01*
X62149047Y-148947619D01*
X62196666Y-149042857D01*
X62196666Y-149138095D01*
X62149047Y-149280952D01*
X61577619Y-149852380D01*
X62196666Y-149852380D01*
X67783333Y-92722380D02*
X67450000Y-92246190D01*
X67211904Y-92722380D02*
X67211904Y-91722380D01*
X67592857Y-91722380D01*
X67688095Y-91770000D01*
X67735714Y-91817619D01*
X67783333Y-91912857D01*
X67783333Y-92055714D01*
X67735714Y-92150952D01*
X67688095Y-92198571D01*
X67592857Y-92246190D01*
X67211904Y-92246190D01*
X68116666Y-91722380D02*
X68783333Y-91722380D01*
X68354761Y-92722380D01*
X50796666Y-134252380D02*
X50796666Y-134966666D01*
X50749047Y-135109523D01*
X50653809Y-135204761D01*
X50510952Y-135252380D01*
X50415714Y-135252380D01*
X51749047Y-134252380D02*
X51272857Y-134252380D01*
X51225238Y-134728571D01*
X51272857Y-134680952D01*
X51368095Y-134633333D01*
X51606190Y-134633333D01*
X51701428Y-134680952D01*
X51749047Y-134728571D01*
X51796666Y-134823809D01*
X51796666Y-135061904D01*
X51749047Y-135157142D01*
X51701428Y-135204761D01*
X51606190Y-135252380D01*
X51368095Y-135252380D01*
X51272857Y-135204761D01*
X51225238Y-135157142D01*
X41992380Y-90808095D02*
X40992380Y-90808095D01*
X40992380Y-90570000D01*
X41040000Y-90427142D01*
X41135238Y-90331904D01*
X41230476Y-90284285D01*
X41420952Y-90236666D01*
X41563809Y-90236666D01*
X41754285Y-90284285D01*
X41849523Y-90331904D01*
X41944761Y-90427142D01*
X41992380Y-90570000D01*
X41992380Y-90808095D01*
X41325714Y-89379523D02*
X41992380Y-89379523D01*
X40944761Y-89617619D02*
X41659047Y-89855714D01*
X41659047Y-89236666D01*
X40212380Y-56210238D02*
X39736190Y-56543571D01*
X40212380Y-56781666D02*
X39212380Y-56781666D01*
X39212380Y-56400714D01*
X39260000Y-56305476D01*
X39307619Y-56257857D01*
X39402857Y-56210238D01*
X39545714Y-56210238D01*
X39640952Y-56257857D01*
X39688571Y-56305476D01*
X39736190Y-56400714D01*
X39736190Y-56781666D01*
X39212380Y-55924523D02*
X40212380Y-55591190D01*
X39212380Y-55257857D01*
X39545714Y-54495952D02*
X40212380Y-54495952D01*
X39164761Y-54734047D02*
X39879047Y-54972142D01*
X39879047Y-54353095D01*
X53802380Y-107316666D02*
X53326190Y-107650000D01*
X53802380Y-107888095D02*
X52802380Y-107888095D01*
X52802380Y-107507142D01*
X52850000Y-107411904D01*
X52897619Y-107364285D01*
X52992857Y-107316666D01*
X53135714Y-107316666D01*
X53230952Y-107364285D01*
X53278571Y-107411904D01*
X53326190Y-107507142D01*
X53326190Y-107888095D01*
X53802380Y-106840476D02*
X53802380Y-106650000D01*
X53754761Y-106554761D01*
X53707142Y-106507142D01*
X53564285Y-106411904D01*
X53373809Y-106364285D01*
X52992857Y-106364285D01*
X52897619Y-106411904D01*
X52850000Y-106459523D01*
X52802380Y-106554761D01*
X52802380Y-106745238D01*
X52850000Y-106840476D01*
X52897619Y-106888095D01*
X52992857Y-106935714D01*
X53230952Y-106935714D01*
X53326190Y-106888095D01*
X53373809Y-106840476D01*
X53421428Y-106745238D01*
X53421428Y-106554761D01*
X53373809Y-106459523D01*
X53326190Y-106411904D01*
X53230952Y-106364285D01*
X79966666Y-118132380D02*
X79966666Y-118846666D01*
X79919047Y-118989523D01*
X79823809Y-119084761D01*
X79680952Y-119132380D01*
X79585714Y-119132380D01*
X80490476Y-119132380D02*
X80680952Y-119132380D01*
X80776190Y-119084761D01*
X80823809Y-119037142D01*
X80919047Y-118894285D01*
X80966666Y-118703809D01*
X80966666Y-118322857D01*
X80919047Y-118227619D01*
X80871428Y-118180000D01*
X80776190Y-118132380D01*
X80585714Y-118132380D01*
X80490476Y-118180000D01*
X80442857Y-118227619D01*
X80395238Y-118322857D01*
X80395238Y-118560952D01*
X80442857Y-118656190D01*
X80490476Y-118703809D01*
X80585714Y-118751428D01*
X80776190Y-118751428D01*
X80871428Y-118703809D01*
X80919047Y-118656190D01*
X80966666Y-118560952D01*
X62302380Y-84345238D02*
X61826190Y-84678571D01*
X62302380Y-84916666D02*
X61302380Y-84916666D01*
X61302380Y-84535714D01*
X61350000Y-84440476D01*
X61397619Y-84392857D01*
X61492857Y-84345238D01*
X61635714Y-84345238D01*
X61730952Y-84392857D01*
X61778571Y-84440476D01*
X61826190Y-84535714D01*
X61826190Y-84916666D01*
X61302380Y-84059523D02*
X62302380Y-83726190D01*
X61302380Y-83392857D01*
X62302380Y-82535714D02*
X62302380Y-83107142D01*
X62302380Y-82821428D02*
X61302380Y-82821428D01*
X61445238Y-82916666D01*
X61540476Y-83011904D01*
X61588095Y-83107142D01*
X40012380Y-79785238D02*
X39536190Y-80118571D01*
X40012380Y-80356666D02*
X39012380Y-80356666D01*
X39012380Y-79975714D01*
X39060000Y-79880476D01*
X39107619Y-79832857D01*
X39202857Y-79785238D01*
X39345714Y-79785238D01*
X39440952Y-79832857D01*
X39488571Y-79880476D01*
X39536190Y-79975714D01*
X39536190Y-80356666D01*
X39012380Y-79499523D02*
X40012380Y-79166190D01*
X39012380Y-78832857D01*
X39012380Y-78023333D02*
X39012380Y-78499523D01*
X39488571Y-78547142D01*
X39440952Y-78499523D01*
X39393333Y-78404285D01*
X39393333Y-78166190D01*
X39440952Y-78070952D01*
X39488571Y-78023333D01*
X39583809Y-77975714D01*
X39821904Y-77975714D01*
X39917142Y-78023333D01*
X39964761Y-78070952D01*
X40012380Y-78166190D01*
X40012380Y-78404285D01*
X39964761Y-78499523D01*
X39917142Y-78547142D01*
X61772380Y-91192857D02*
X61296190Y-91526190D01*
X61772380Y-91764285D02*
X60772380Y-91764285D01*
X60772380Y-91383333D01*
X60820000Y-91288095D01*
X60867619Y-91240476D01*
X60962857Y-91192857D01*
X61105714Y-91192857D01*
X61200952Y-91240476D01*
X61248571Y-91288095D01*
X61296190Y-91383333D01*
X61296190Y-91764285D01*
X61772380Y-90240476D02*
X61772380Y-90811904D01*
X61772380Y-90526190D02*
X60772380Y-90526190D01*
X60915238Y-90621428D01*
X61010476Y-90716666D01*
X61058095Y-90811904D01*
X60772380Y-89907142D02*
X60772380Y-89240476D01*
X61772380Y-89669047D01*
X57032380Y-66342857D02*
X56556190Y-66676190D01*
X57032380Y-66914285D02*
X56032380Y-66914285D01*
X56032380Y-66533333D01*
X56080000Y-66438095D01*
X56127619Y-66390476D01*
X56222857Y-66342857D01*
X56365714Y-66342857D01*
X56460952Y-66390476D01*
X56508571Y-66438095D01*
X56556190Y-66533333D01*
X56556190Y-66914285D01*
X57032380Y-65390476D02*
X57032380Y-65961904D01*
X57032380Y-65676190D02*
X56032380Y-65676190D01*
X56175238Y-65771428D01*
X56270476Y-65866666D01*
X56318095Y-65961904D01*
X56460952Y-64819047D02*
X56413333Y-64914285D01*
X56365714Y-64961904D01*
X56270476Y-65009523D01*
X56222857Y-65009523D01*
X56127619Y-64961904D01*
X56080000Y-64914285D01*
X56032380Y-64819047D01*
X56032380Y-64628571D01*
X56080000Y-64533333D01*
X56127619Y-64485714D01*
X56222857Y-64438095D01*
X56270476Y-64438095D01*
X56365714Y-64485714D01*
X56413333Y-64533333D01*
X56460952Y-64628571D01*
X56460952Y-64819047D01*
X56508571Y-64914285D01*
X56556190Y-64961904D01*
X56651428Y-65009523D01*
X56841904Y-65009523D01*
X56937142Y-64961904D01*
X56984761Y-64914285D01*
X57032380Y-64819047D01*
X57032380Y-64628571D01*
X56984761Y-64533333D01*
X56937142Y-64485714D01*
X56841904Y-64438095D01*
X56651428Y-64438095D01*
X56556190Y-64485714D01*
X56508571Y-64533333D01*
X56460952Y-64628571D01*
X62202380Y-105295238D02*
X61726190Y-105628571D01*
X62202380Y-105866666D02*
X61202380Y-105866666D01*
X61202380Y-105485714D01*
X61250000Y-105390476D01*
X61297619Y-105342857D01*
X61392857Y-105295238D01*
X61535714Y-105295238D01*
X61630952Y-105342857D01*
X61678571Y-105390476D01*
X61726190Y-105485714D01*
X61726190Y-105866666D01*
X61202380Y-105009523D02*
X62202380Y-104676190D01*
X61202380Y-104342857D01*
X61297619Y-104057142D02*
X61250000Y-104009523D01*
X61202380Y-103914285D01*
X61202380Y-103676190D01*
X61250000Y-103580952D01*
X61297619Y-103533333D01*
X61392857Y-103485714D01*
X61488095Y-103485714D01*
X61630952Y-103533333D01*
X62202380Y-104104761D01*
X62202380Y-103485714D01*
X43266666Y-111154761D02*
X43409523Y-111202380D01*
X43647619Y-111202380D01*
X43742857Y-111154761D01*
X43790476Y-111107142D01*
X43838095Y-111011904D01*
X43838095Y-110916666D01*
X43790476Y-110821428D01*
X43742857Y-110773809D01*
X43647619Y-110726190D01*
X43457142Y-110678571D01*
X43361904Y-110630952D01*
X43314285Y-110583333D01*
X43266666Y-110488095D01*
X43266666Y-110392857D01*
X43314285Y-110297619D01*
X43361904Y-110250000D01*
X43457142Y-110202380D01*
X43695238Y-110202380D01*
X43838095Y-110250000D01*
X44171428Y-110202380D02*
X44409523Y-111202380D01*
X44600000Y-110488095D01*
X44790476Y-111202380D01*
X45028571Y-110202380D01*
X45933333Y-111202380D02*
X45361904Y-111202380D01*
X45647619Y-111202380D02*
X45647619Y-110202380D01*
X45552380Y-110345238D01*
X45457142Y-110440476D01*
X45361904Y-110488095D01*
D11*
X114750000Y-120120000D02*
X116080000Y-120120000D01*
X116080000Y-122720000D02*
X116080000Y-140560000D01*
X113420000Y-122720000D02*
X116080000Y-122720000D01*
X113420000Y-122720000D02*
X113420000Y-140560000D01*
X116080000Y-120120000D02*
X116080000Y-121450000D01*
X113420000Y-140560000D02*
X116080000Y-140560000D01*
X62930000Y-52965000D02*
X62930000Y-49905000D01*
X62920000Y-61495000D02*
X62920000Y-56775000D01*
X72670000Y-61495000D02*
X72670000Y-56775000D01*
X64110000Y-61495000D02*
X62930000Y-61495000D01*
X72670000Y-61495000D02*
X71180000Y-61495000D01*
X69460000Y-61495000D02*
X68630000Y-61495000D01*
X72670000Y-52965000D02*
X72670000Y-49905000D01*
X67010000Y-61495000D02*
X66480000Y-61495000D01*
X72670000Y-49905000D02*
X62930000Y-49905000D01*
X60320000Y-108070000D02*
X60320000Y-101530000D01*
X57580000Y-101530000D02*
X57910000Y-101530000D01*
X57580000Y-108070000D02*
X57580000Y-101530000D01*
X57910000Y-108070000D02*
X57580000Y-108070000D01*
X59990000Y-108070000D02*
X60320000Y-108070000D01*
X60320000Y-101530000D02*
X59990000Y-101530000D01*
X60320000Y-72530000D02*
X59990000Y-72530000D01*
X57580000Y-72530000D02*
X57910000Y-72530000D01*
X57580000Y-79070000D02*
X57580000Y-72530000D01*
X60320000Y-79070000D02*
X60320000Y-72530000D01*
X59990000Y-79070000D02*
X60320000Y-79070000D01*
X57910000Y-79070000D02*
X57580000Y-79070000D01*
X72400000Y-133900000D02*
X72400000Y-123400000D01*
X63400000Y-133900000D02*
X63400000Y-123400000D01*
X63400000Y-133900000D02*
X67550000Y-133900000D01*
X68960000Y-136880000D02*
X68100000Y-136880000D01*
X68400000Y-123400000D02*
X72400000Y-123400000D01*
X68250000Y-133900000D02*
X72400000Y-133900000D01*
X63400000Y-123400000D02*
X67400000Y-123400000D01*
X68960000Y-136880000D02*
X68960000Y-136080000D01*
X69700000Y-129400000D02*
G75*
G03*
X69700000Y-129400000I-1800000J0D01*
G01*
X47920000Y-67370000D02*
X47764000Y-67370000D01*
X50236000Y-67370000D02*
X50080000Y-67370000D01*
X50078608Y-70602335D02*
G75*
G03*
X50235516Y-67370000I-1078608J1672335D01*
G01*
X47920163Y-69971130D02*
G75*
G02*
X47920000Y-67889039I1079837J1041130D01*
G01*
X50079837Y-69971130D02*
G75*
G03*
X50080000Y-67889039I-1079837J1041130D01*
G01*
X47921392Y-70602335D02*
G75*
G02*
X47764484Y-67370000I1078608J1672335D01*
G01*
X53000000Y-133880000D02*
X57150000Y-133880000D01*
X53000000Y-133880000D02*
X53000000Y-123380000D01*
X53000000Y-123380000D02*
X57000000Y-123380000D01*
X58560000Y-136860000D02*
X57700000Y-136860000D01*
X58000000Y-123380000D02*
X62000000Y-123380000D01*
X57850000Y-133880000D02*
X62000000Y-133880000D01*
X58560000Y-136860000D02*
X58560000Y-136060000D01*
X62000000Y-133880000D02*
X62000000Y-123380000D01*
X59300000Y-129380000D02*
G75*
G03*
X59300000Y-129380000I-1800000J0D01*
G01*
X45580000Y-70500000D02*
X45736000Y-70500000D01*
X43264000Y-70500000D02*
X43420000Y-70500000D01*
X43421392Y-67267665D02*
G75*
G03*
X43264484Y-70500000I1078608J-1672335D01*
G01*
X45578608Y-67267665D02*
G75*
G02*
X45735516Y-70500000I-1078608J-1672335D01*
G01*
X45579837Y-67898870D02*
G75*
G02*
X45580000Y-69980961I-1079837J-1041130D01*
G01*
X43420163Y-67898870D02*
G75*
G03*
X43420000Y-69980961I1079837J-1041130D01*
G01*
X47450000Y-148500000D02*
X51600000Y-148500000D01*
X51600000Y-148500000D02*
X51600000Y-138000000D01*
X42600000Y-138000000D02*
X46600000Y-138000000D01*
X48160000Y-151480000D02*
X47300000Y-151480000D01*
X47600000Y-138000000D02*
X51600000Y-138000000D01*
X42600000Y-148500000D02*
X42600000Y-138000000D01*
X48160000Y-151480000D02*
X48160000Y-150680000D01*
X42600000Y-148500000D02*
X46750000Y-148500000D01*
X48900000Y-144000000D02*
G75*
G03*
X48900000Y-144000000I-1800000J0D01*
G01*
X64330000Y-112430000D02*
X64660000Y-112430000D01*
X64660000Y-118970000D02*
X64330000Y-118970000D01*
X66740000Y-118970000D02*
X67070000Y-118970000D01*
X67070000Y-112430000D02*
X66740000Y-112430000D01*
X64330000Y-118970000D02*
X64330000Y-112430000D01*
X67070000Y-118970000D02*
X67070000Y-112430000D01*
X66630000Y-67515000D02*
X66786000Y-67515000D01*
X64314000Y-67515000D02*
X64470000Y-67515000D01*
X64471392Y-64282665D02*
G75*
G03*
X64314484Y-67515000I1078608J-1672335D01*
G01*
X66629837Y-64913870D02*
G75*
G02*
X66630000Y-66995961I-1079837J-1041130D01*
G01*
X64470163Y-64913870D02*
G75*
G03*
X64470000Y-66995961I1079837J-1041130D01*
G01*
X66628608Y-64282665D02*
G75*
G02*
X66785516Y-67515000I-1078608J-1672335D01*
G01*
X54460000Y-79070000D02*
X54130000Y-79070000D01*
X56870000Y-72530000D02*
X56540000Y-72530000D01*
X56870000Y-79070000D02*
X56870000Y-72530000D01*
X56540000Y-79070000D02*
X56870000Y-79070000D01*
X54130000Y-79070000D02*
X54130000Y-72530000D01*
X54130000Y-72530000D02*
X54460000Y-72530000D01*
X68970000Y-64385000D02*
X68814000Y-64385000D01*
X71286000Y-64385000D02*
X71130000Y-64385000D01*
X71129837Y-66986130D02*
G75*
G03*
X71130000Y-64904039I-1079837J1041130D01*
G01*
X68971392Y-67617335D02*
G75*
G02*
X68814484Y-64385000I1078608J1672335D01*
G01*
X68970163Y-66986130D02*
G75*
G02*
X68970000Y-64904039I1079837J1041130D01*
G01*
X71128608Y-67617335D02*
G75*
G03*
X71285516Y-64385000I-1078608J1672335D01*
G01*
X54130000Y-87280000D02*
X54460000Y-87280000D01*
X54130000Y-93820000D02*
X54130000Y-87280000D01*
X56540000Y-93820000D02*
X56870000Y-93820000D01*
X56870000Y-87280000D02*
X56540000Y-87280000D01*
X54460000Y-93820000D02*
X54130000Y-93820000D01*
X56870000Y-93820000D02*
X56870000Y-87280000D01*
X68960000Y-151480000D02*
X68100000Y-151480000D01*
X63400000Y-148500000D02*
X63400000Y-138000000D01*
X72400000Y-148500000D02*
X72400000Y-138000000D01*
X68250000Y-148500000D02*
X72400000Y-148500000D01*
X63400000Y-138000000D02*
X67400000Y-138000000D01*
X68960000Y-151480000D02*
X68960000Y-150680000D01*
X63400000Y-148500000D02*
X67550000Y-148500000D01*
X68400000Y-138000000D02*
X72400000Y-138000000D01*
X69700000Y-144000000D02*
G75*
G03*
X69700000Y-144000000I-1800000J0D01*
G01*
X47920000Y-88500000D02*
X47764000Y-88500000D01*
X50236000Y-88500000D02*
X50080000Y-88500000D01*
X47921392Y-91732335D02*
G75*
G02*
X47764484Y-88500000I1078608J1672335D01*
G01*
X50079837Y-91101130D02*
G75*
G03*
X50080000Y-89019039I-1079837J1041130D01*
G01*
X47920163Y-91101130D02*
G75*
G02*
X47920000Y-89019039I1079837J1041130D01*
G01*
X50078608Y-91732335D02*
G75*
G03*
X50235516Y-88500000I-1078608J1672335D01*
G01*
X43010000Y-106120000D02*
X41830000Y-106120000D01*
X51570000Y-97590000D02*
X51570000Y-94530000D01*
X41830000Y-97590000D02*
X41830000Y-94530000D01*
X41820000Y-106120000D02*
X41820000Y-101400000D01*
X51570000Y-106120000D02*
X51570000Y-101400000D01*
X51570000Y-106120000D02*
X50080000Y-106120000D01*
X51570000Y-94530000D02*
X41830000Y-94530000D01*
X45910000Y-106120000D02*
X45380000Y-106120000D01*
X48360000Y-106120000D02*
X47530000Y-106120000D01*
X53000000Y-148500000D02*
X53000000Y-138000000D01*
X62000000Y-148500000D02*
X62000000Y-138000000D01*
X53000000Y-138000000D02*
X57000000Y-138000000D01*
X58560000Y-151480000D02*
X58560000Y-150680000D01*
X57850000Y-148500000D02*
X62000000Y-148500000D01*
X53000000Y-148500000D02*
X57150000Y-148500000D01*
X58000000Y-138000000D02*
X62000000Y-138000000D01*
X58560000Y-151480000D02*
X57700000Y-151480000D01*
X59300000Y-144000000D02*
G75*
G03*
X59300000Y-144000000I-1800000J0D01*
G01*
X64680000Y-88530000D02*
X64680000Y-88860000D01*
X64680000Y-91270000D02*
X64680000Y-90940000D01*
X71220000Y-88860000D02*
X71220000Y-88530000D01*
X71220000Y-91270000D02*
X64680000Y-91270000D01*
X71220000Y-88530000D02*
X64680000Y-88530000D01*
X71220000Y-90940000D02*
X71220000Y-91270000D01*
X42600000Y-133900000D02*
X42600000Y-123400000D01*
X51600000Y-133900000D02*
X51600000Y-123400000D01*
X42600000Y-133900000D02*
X46750000Y-133900000D01*
X48160000Y-136880000D02*
X47300000Y-136880000D01*
X48160000Y-136880000D02*
X48160000Y-136080000D01*
X47600000Y-123400000D02*
X51600000Y-123400000D01*
X47450000Y-133900000D02*
X51600000Y-133900000D01*
X42600000Y-123400000D02*
X46600000Y-123400000D01*
X48900000Y-129400000D02*
G75*
G03*
X48900000Y-129400000I-1800000J0D01*
G01*
X45580000Y-91630000D02*
X45736000Y-91630000D01*
X43264000Y-91630000D02*
X43420000Y-91630000D01*
X45578608Y-88397665D02*
G75*
G02*
X45735516Y-91630000I-1078608J-1672335D01*
G01*
X43420163Y-89028870D02*
G75*
G03*
X43420000Y-91110961I1079837J-1041130D01*
G01*
X45579837Y-89028870D02*
G75*
G02*
X45580000Y-91110961I-1079837J-1041130D01*
G01*
X43421392Y-88397665D02*
G75*
G03*
X43264484Y-91630000I1078608J-1672335D01*
G01*
X51770000Y-61445000D02*
X51770000Y-56725000D01*
X51770000Y-52915000D02*
X51770000Y-49855000D01*
X51770000Y-61445000D02*
X50280000Y-61445000D01*
X51770000Y-49855000D02*
X42030000Y-49855000D01*
X43210000Y-61445000D02*
X42030000Y-61445000D01*
X42030000Y-52915000D02*
X42030000Y-49855000D01*
X42020000Y-61445000D02*
X42020000Y-56725000D01*
X48560000Y-61445000D02*
X47730000Y-61445000D01*
X46110000Y-61445000D02*
X45580000Y-61445000D01*
X54130000Y-101530000D02*
X54460000Y-101530000D01*
X54130000Y-108070000D02*
X54130000Y-101530000D01*
X54460000Y-108070000D02*
X54130000Y-108070000D01*
X56540000Y-108070000D02*
X56870000Y-108070000D01*
X56870000Y-108070000D02*
X56870000Y-101530000D01*
X56870000Y-101530000D02*
X56540000Y-101530000D01*
X80300000Y-120120000D02*
X81630000Y-120120000D01*
X81630000Y-122720000D02*
X81630000Y-140560000D01*
X78970000Y-122720000D02*
X81630000Y-122720000D01*
X78970000Y-140560000D02*
X81630000Y-140560000D01*
X81630000Y-120120000D02*
X81630000Y-121450000D01*
X78970000Y-122720000D02*
X78970000Y-140560000D01*
X72570000Y-85020000D02*
X72570000Y-80300000D01*
X72570000Y-85020000D02*
X71080000Y-85020000D01*
X62830000Y-76490000D02*
X62830000Y-73430000D01*
X62820000Y-85020000D02*
X62820000Y-80300000D01*
X72570000Y-76490000D02*
X72570000Y-73430000D01*
X72570000Y-73430000D02*
X62830000Y-73430000D01*
X64010000Y-85020000D02*
X62830000Y-85020000D01*
X66910000Y-85020000D02*
X66380000Y-85020000D01*
X69360000Y-85020000D02*
X68530000Y-85020000D01*
X51570000Y-76490000D02*
X51570000Y-73430000D01*
X51570000Y-85020000D02*
X50080000Y-85020000D01*
X51570000Y-73430000D02*
X41830000Y-73430000D01*
X43010000Y-85020000D02*
X41830000Y-85020000D01*
X41830000Y-76490000D02*
X41830000Y-73430000D01*
X51570000Y-85020000D02*
X51570000Y-80300000D01*
X45910000Y-85020000D02*
X45380000Y-85020000D01*
X48360000Y-85020000D02*
X47530000Y-85020000D01*
X41820000Y-85020000D02*
X41820000Y-80300000D01*
X60320000Y-87280000D02*
X60320000Y-93820000D01*
X57910000Y-87280000D02*
X57580000Y-87280000D01*
X57580000Y-87280000D02*
X57580000Y-93820000D01*
X59990000Y-87280000D02*
X60320000Y-87280000D01*
X60320000Y-93820000D02*
X59990000Y-93820000D01*
X57580000Y-93820000D02*
X57910000Y-93820000D01*
X59990000Y-68970000D02*
X60320000Y-68970000D01*
X57580000Y-68970000D02*
X57580000Y-62430000D01*
X57910000Y-68970000D02*
X57580000Y-68970000D01*
X60320000Y-62430000D02*
X59990000Y-62430000D01*
X57580000Y-62430000D02*
X57910000Y-62430000D01*
X60320000Y-68970000D02*
X60320000Y-62430000D01*
X69260000Y-106120000D02*
X68430000Y-106120000D01*
X72470000Y-94530000D02*
X62730000Y-94530000D01*
X62720000Y-106120000D02*
X62720000Y-101400000D01*
X63910000Y-106120000D02*
X62730000Y-106120000D01*
X72470000Y-106120000D02*
X72470000Y-101400000D01*
X72470000Y-97590000D02*
X72470000Y-94530000D01*
X72470000Y-106120000D02*
X70980000Y-106120000D01*
X66810000Y-106120000D02*
X66280000Y-106120000D01*
X62730000Y-97590000D02*
X62730000Y-94530000D01*
X50250000Y-116350000D02*
X42950000Y-116350000D01*
X42950000Y-116350000D02*
X42950000Y-112550000D01*
X42950000Y-112550000D02*
X50250000Y-112550000D01*
X50250000Y-112550000D02*
X50250000Y-116350000D01*
X50750000Y-117050000D02*
X42550000Y-117050000D01*
X42550000Y-117050000D02*
X42550000Y-111850000D01*
X42550000Y-111850000D02*
X50750000Y-111850000D01*
X50750000Y-111850000D02*
X50750000Y-117050000D01*
X48350000Y-114450000D02*
G75*
G03*
X48350000Y-114450000I-1700000J0D01*
G01*
%LPC*%
D12*
X77500000Y-65725000D03*
X77500000Y-68225000D03*
X77500000Y-70725000D03*
X77500000Y-75725000D03*
X77500000Y-73225000D03*
X77500000Y-113200000D03*
X77500000Y-115700000D03*
X77500000Y-108200000D03*
X77500000Y-110700000D03*
X77500000Y-118200000D03*
D13*
X114750000Y-139230000D03*
X114750000Y-136690000D03*
X114750000Y-134150000D03*
X114750000Y-131610000D03*
X114750000Y-129070000D03*
X114750000Y-126530000D03*
X114750000Y-123990000D03*
D14*
X114750000Y-121450000D03*
D15*
X63000000Y-54875000D03*
X72600000Y-54875000D03*
D16*
X65300000Y-62375000D03*
D17*
X67800000Y-62375000D03*
X70300000Y-62375000D03*
D18*
X58950000Y-108610000D03*
D19*
X58950000Y-100990000D03*
D18*
X58950000Y-79610000D03*
D19*
X58950000Y-71990000D03*
D20*
X67900000Y-135880000D03*
D21*
X67900000Y-124480000D03*
X67900000Y-132780000D03*
D16*
X49000000Y-67660000D03*
D17*
X49000000Y-70200000D03*
D20*
X57500000Y-135860000D03*
D21*
X57500000Y-124460000D03*
X57500000Y-132760000D03*
D16*
X44500000Y-70210000D03*
D17*
X44500000Y-67670000D03*
D20*
X47100000Y-150480000D03*
D21*
X47100000Y-139080000D03*
X47100000Y-147380000D03*
D18*
X65700000Y-119510000D03*
D19*
X65700000Y-111890000D03*
D16*
X65550000Y-67225000D03*
D17*
X65550000Y-64685000D03*
D18*
X55500000Y-79610000D03*
D19*
X55500000Y-71990000D03*
D16*
X70050000Y-64675000D03*
D17*
X70050000Y-67215000D03*
D22*
X57350000Y-55200000D03*
D18*
X55500000Y-94360000D03*
D19*
X55500000Y-86740000D03*
D22*
X97350000Y-115950000D03*
D20*
X67900000Y-150480000D03*
D21*
X67900000Y-139080000D03*
X67900000Y-147380000D03*
D16*
X49000000Y-88790000D03*
D17*
X49000000Y-91330000D03*
D15*
X51500000Y-99500000D03*
X41900000Y-99500000D03*
D16*
X44200000Y-107000000D03*
D17*
X46700000Y-107000000D03*
X49200000Y-107000000D03*
D20*
X57500000Y-150480000D03*
D21*
X57500000Y-139080000D03*
X57500000Y-147380000D03*
D18*
X71760000Y-89900000D03*
D19*
X64140000Y-89900000D03*
D20*
X47100000Y-135880000D03*
D21*
X47100000Y-124480000D03*
X47100000Y-132780000D03*
D16*
X44500000Y-91340000D03*
D17*
X44500000Y-88800000D03*
D15*
X42100000Y-54825000D03*
X51700000Y-54825000D03*
D16*
X44400000Y-62325000D03*
D17*
X46900000Y-62325000D03*
X49400000Y-62325000D03*
D18*
X55500000Y-108610000D03*
D19*
X55500000Y-100990000D03*
D22*
X97350000Y-55150000D03*
D13*
X80300000Y-139230000D03*
X80300000Y-136690000D03*
X80300000Y-134150000D03*
X80300000Y-131610000D03*
X80300000Y-129070000D03*
X80300000Y-126530000D03*
X80300000Y-123990000D03*
D14*
X80300000Y-121450000D03*
D15*
X62900000Y-78400000D03*
X72500000Y-78400000D03*
D16*
X65200000Y-85900000D03*
D17*
X67700000Y-85900000D03*
X70200000Y-85900000D03*
D15*
X51500000Y-78400000D03*
X41900000Y-78400000D03*
D16*
X44200000Y-85900000D03*
D17*
X46700000Y-85900000D03*
X49200000Y-85900000D03*
D18*
X58950000Y-86740000D03*
D19*
X58950000Y-94360000D03*
D18*
X58950000Y-69510000D03*
D19*
X58950000Y-61890000D03*
D22*
X57350000Y-116000000D03*
D15*
X72400000Y-99500000D03*
X62800000Y-99500000D03*
D16*
X65100000Y-107000000D03*
D17*
X67600000Y-107000000D03*
X70100000Y-107000000D03*
D23*
X49150000Y-114450000D03*
X46650000Y-114450000D03*
X44150000Y-114450000D03*
D19*
X104700000Y-112700000D03*
D18*
X104700000Y-120320000D03*
X113100000Y-90950000D03*
D24*
X110600000Y-90950000D03*
D19*
X111670000Y-100650000D03*
D18*
X104050000Y-100650000D03*
X107100000Y-137200000D03*
X107100000Y-132200000D03*
D19*
X101160000Y-97200000D03*
D18*
X93540000Y-97200000D03*
D19*
X82840000Y-113500000D03*
D18*
X90460000Y-113500000D03*
D14*
X40250000Y-121500000D03*
D13*
X40250000Y-124040000D03*
X40250000Y-126580000D03*
X40250000Y-129120000D03*
X40250000Y-131660000D03*
X40250000Y-134200000D03*
X40250000Y-136740000D03*
X40250000Y-139280000D03*
D19*
X85250000Y-61880000D03*
D18*
X85250000Y-69500000D03*
D19*
X85200000Y-76840000D03*
D18*
X85200000Y-84460000D03*
D19*
X88370000Y-57850000D03*
D18*
X80750000Y-57850000D03*
D19*
X104080000Y-97150000D03*
D18*
X111700000Y-97150000D03*
D19*
X90510000Y-100650000D03*
D18*
X82890000Y-100650000D03*
D25*
X107980000Y-144050000D03*
X105440000Y-144050000D03*
X102900000Y-144050000D03*
D18*
X110682380Y-55400000D03*
D24*
X113182380Y-55400000D03*
D25*
X89720000Y-125700000D03*
X92260000Y-125700000D03*
X94800000Y-125700000D03*
D19*
X99450000Y-79320000D03*
D18*
X99450000Y-86940000D03*
D19*
X111670000Y-104150000D03*
D18*
X104050000Y-104150000D03*
D19*
X81050000Y-69510000D03*
D18*
X81050000Y-61890000D03*
X102100000Y-60390000D03*
X102100000Y-65390000D03*
D19*
X99450000Y-68130000D03*
D18*
X99450000Y-75750000D03*
D19*
X108150000Y-112690000D03*
D18*
X108150000Y-120310000D03*
X89700000Y-84540000D03*
X94700000Y-84540000D03*
D19*
X90660000Y-147650000D03*
D18*
X98280000Y-147650000D03*
D26*
X99377500Y-104630000D03*
X99377500Y-105900000D03*
D27*
X99377500Y-107170000D03*
D18*
X89850000Y-143350000D03*
X84850000Y-143350000D03*
D19*
X107680000Y-60800000D03*
D18*
X115300000Y-60800000D03*
X89700000Y-89340000D03*
X94700000Y-89340000D03*
D28*
X110612500Y-78180000D03*
X113152500Y-78180000D03*
X110612500Y-75640000D03*
X113152500Y-75640000D03*
X110612500Y-73100000D03*
X113152500Y-73100000D03*
X110612500Y-70560000D03*
X113152500Y-70560000D03*
X110612500Y-68020000D03*
D29*
X113152500Y-68020000D03*
D19*
X90570000Y-97200000D03*
D18*
X82950000Y-97200000D03*
X80450000Y-73190000D03*
X85450000Y-73190000D03*
D19*
X82890000Y-104100000D03*
D18*
X90510000Y-104100000D03*
D19*
X115320000Y-85390000D03*
D18*
X107700000Y-85390000D03*
D19*
X101160000Y-100650000D03*
D18*
X93540000Y-100650000D03*
D25*
X105980000Y-125700000D03*
X103440000Y-125700000D03*
X100900000Y-125700000D03*
D19*
X87515000Y-138750000D03*
X90055000Y-138750000D03*
X92595000Y-138750000D03*
X95135000Y-138750000D03*
X97675000Y-138750000D03*
X100215000Y-138750000D03*
X102755000Y-138750000D03*
X102755000Y-131130000D03*
X100215000Y-131130000D03*
X97675000Y-131130000D03*
X95135000Y-131130000D03*
X92595000Y-131130000D03*
X90055000Y-131130000D03*
D24*
X87515000Y-131130000D03*
D19*
X111670000Y-107750000D03*
D18*
X104050000Y-107750000D03*
D19*
X102850000Y-79330000D03*
D18*
X102850000Y-86950000D03*
X82200000Y-92494888D03*
D24*
X82200000Y-89994888D03*
D19*
X102800000Y-75750000D03*
D18*
X102800000Y-68130000D03*
X98065000Y-143355000D03*
X93065000Y-143355000D03*
D19*
X96240000Y-80505000D03*
X96240000Y-77965000D03*
X96240000Y-75425000D03*
X96240000Y-72885000D03*
X96240000Y-70345000D03*
X96240000Y-67805000D03*
X96240000Y-65265000D03*
X96240000Y-62725000D03*
X88620000Y-62725000D03*
X88620000Y-65265000D03*
X88620000Y-67805000D03*
X88620000Y-70345000D03*
X88620000Y-72885000D03*
X88620000Y-75425000D03*
X88620000Y-77965000D03*
D24*
X88620000Y-80505000D03*
D26*
X95380500Y-107170000D03*
X95380500Y-105900000D03*
D27*
X95380500Y-104630000D03*
D14*
X74700000Y-121500000D03*
D13*
X74700000Y-124040000D03*
X74700000Y-126580000D03*
X74700000Y-129120000D03*
X74700000Y-131660000D03*
X74700000Y-134200000D03*
X74700000Y-136740000D03*
X74700000Y-139280000D03*
D25*
X84020000Y-108700000D03*
X86560000Y-108700000D03*
X89100000Y-108700000D03*
M02*
