%FSLAX45Y45*%
G04 Gerber Fmt 4.5, Leading zero omitted, Abs format (unit mm)*
G04 Created by KiCad (PCBNEW 5.99.0-unknown-fb4343bc8f~130~ubuntu20.04.1) date 2021-06-28 22:27:08*
%MOMM*%
%LPD*%
G01*
G04 APERTURE LIST*
%TA.AperFunction,Profile*%
%ADD10C,0.100000*%
%TD*%
%ADD11C,0.200000*%
%ADD12C,0.040000*%
%ADD13C,0.060000*%
%ADD14C,0.075000*%
%ADD15C,0.080000*%
%ADD16C,0.090000*%
%ADD17C,0.100000*%
%ADD18C,0.110000*%
%ADD19C,0.122000*%
%ADD20C,0.142000*%
%ADD21C,0.143000*%
%ADD22C,0.300000*%
G04 APERTURE END LIST*
D10*
X7850000Y-5185000D02*
X7850000Y-6322500D01*
X7650000Y-6322500D02*
X7650000Y-5190000D01*
X7850000Y-15185000D02*
X7850000Y-12070000D01*
X7650000Y-12070000D02*
X7650000Y-15190000D01*
X7650000Y-7822500D02*
X7650000Y-10570000D01*
X7850000Y-10570000D02*
X7850000Y-7822500D01*
X7850000Y-10570000D02*
G75*
G02*
X7650000Y-10570000I-100000J0D01*
G01*
X7650000Y-12070000D02*
G75*
G02*
X7850000Y-12070000I100000J0D01*
G01*
X7650000Y-7822500D02*
G75*
G02*
X7850000Y-7822500I100000J0D01*
G01*
X7850000Y-6322500D02*
G75*
G02*
X7650000Y-6322500I-100000J0D01*
G01*
X3850000Y-15190000D02*
X3850000Y-5190000D01*
X7650000Y-15190000D02*
X3850000Y-15190000D01*
X3850000Y-5190000D02*
X7650000Y-5190000D01*
X11650000Y-15185000D02*
X7850000Y-15185000D01*
X11650000Y-5185000D02*
X11650000Y-15185000D01*
X7850000Y-5185000D02*
X11650000Y-5185000D01*
D11*
D12*
X4274950Y-12120000D02*
X4314950Y-12160000D01*
X4314950Y-12120000D02*
X4274950Y-12160000D01*
X4783604Y-12938604D02*
X4823604Y-12978604D01*
X4823604Y-12938604D02*
X4783604Y-12978604D01*
X5050050Y-12090000D02*
X5090050Y-12130000D01*
X5090050Y-12090000D02*
X5050050Y-12130000D01*
X5055050Y-12370000D02*
X5095050Y-12410000D01*
X5095050Y-12370000D02*
X5055050Y-12410000D01*
X5060000Y-12505000D02*
X5100000Y-12545000D01*
X5100000Y-12505000D02*
X5060000Y-12545000D01*
X5238896Y-12313896D02*
X5278896Y-12353896D01*
X5278896Y-12313896D02*
X5238896Y-12353896D01*
X5259950Y-9005001D02*
X5299950Y-9045001D01*
X5299950Y-9005001D02*
X5259950Y-9045001D01*
X5354280Y-9061489D02*
X5394280Y-9101489D01*
X5394280Y-9061489D02*
X5354280Y-9101489D01*
X6845000Y-11305000D02*
X6885000Y-11345000D01*
X6885000Y-11305000D02*
X6845000Y-11345000D01*
X6940000Y-11215050D02*
X6980000Y-11255050D01*
X6980000Y-11215050D02*
X6940000Y-11255050D01*
X7200000Y-10690000D02*
X7240000Y-10730000D01*
X7240000Y-10690000D02*
X7200000Y-10730000D01*
X7425000Y-10740000D02*
X7465000Y-10780000D01*
X7465000Y-10740000D02*
X7425000Y-10780000D01*
X7539950Y-7390000D02*
X7579950Y-7430000D01*
X7579950Y-7390000D02*
X7539950Y-7430000D01*
X8170000Y-13025000D02*
X8210000Y-13065000D01*
X8210000Y-13025000D02*
X8170000Y-13065000D01*
X8175000Y-12510000D02*
X8215000Y-12550000D01*
X8215000Y-12510000D02*
X8175000Y-12550000D01*
X8175000Y-12765000D02*
X8215000Y-12805000D01*
X8215000Y-12765000D02*
X8175000Y-12805000D01*
X8485000Y-12890000D02*
X8525000Y-12930000D01*
X8525000Y-12890000D02*
X8485000Y-12930000D01*
X8490000Y-13020000D02*
X8530000Y-13060000D01*
X8530000Y-13020000D02*
X8490000Y-13060000D01*
X8495000Y-13270000D02*
X8535000Y-13310000D01*
X8535000Y-13270000D02*
X8495000Y-13310000D01*
X8495000Y-13380000D02*
X8535000Y-13420000D01*
X8535000Y-13380000D02*
X8495000Y-13420000D01*
X8720000Y-9075000D02*
X8760000Y-9115000D01*
X8760000Y-9075000D02*
X8720000Y-9115000D01*
X8755000Y-13255000D02*
X8795000Y-13295000D01*
X8795000Y-13255000D02*
X8755000Y-13295000D01*
X9020000Y-13255000D02*
X9060000Y-13295000D01*
X9060000Y-13255000D02*
X9020000Y-13295000D01*
X9380000Y-13230000D02*
X9420000Y-13270000D01*
X9420000Y-13230000D02*
X9380000Y-13270000D01*
X9385000Y-8230000D02*
X9425000Y-8270000D01*
X9425000Y-8230000D02*
X9385000Y-8270000D01*
X9645000Y-8315000D02*
X9685000Y-8355000D01*
X9685000Y-8315000D02*
X9645000Y-8355000D01*
X9844950Y-9430000D02*
X9884950Y-9470000D01*
X9884950Y-9430000D02*
X9844950Y-9470000D01*
X9900000Y-9095000D02*
X9940000Y-9135000D01*
X9940000Y-9095000D02*
X9900000Y-9135000D01*
X10400000Y-12885000D02*
X10440000Y-12925000D01*
X10440000Y-12885000D02*
X10400000Y-12925000D01*
D13*
X4005000Y-11900000D02*
G75*
G03*
X4005000Y-11900000I-30000J0D01*
G01*
X4020000Y-14475000D02*
G75*
G03*
X4020000Y-14475000I-30000J0D01*
G01*
X4065000Y-5930000D02*
G75*
G03*
X4065000Y-5930000I-30000J0D01*
G01*
X4090000Y-15015000D02*
G75*
G03*
X4090000Y-15015000I-30000J0D01*
G01*
X4170000Y-7325000D02*
G75*
G03*
X4170000Y-7325000I-30000J0D01*
G01*
X4255000Y-9595000D02*
G75*
G03*
X4255000Y-9595000I-30000J0D01*
G01*
X4270000Y-13225000D02*
G75*
G03*
X4270000Y-13225000I-30000J0D01*
G01*
X4280000Y-12730000D02*
G75*
G03*
X4280000Y-12730000I-30000J0D01*
G01*
X4345000Y-8235000D02*
G75*
G03*
X4345000Y-8235000I-30000J0D01*
G01*
X4390000Y-11055000D02*
G75*
G03*
X4390000Y-11055000I-30000J0D01*
G01*
X4475000Y-14105000D02*
G75*
G03*
X4475000Y-14105000I-30000J0D01*
G01*
X4545000Y-11675000D02*
G75*
G03*
X4545000Y-11675000I-30000J0D01*
G01*
X4575000Y-12650000D02*
G75*
G03*
X4575000Y-12650000I-30000J0D01*
G01*
X4605000Y-10400000D02*
G75*
G03*
X4605000Y-10400000I-30000J0D01*
G01*
X4710000Y-5725000D02*
G75*
G03*
X4710000Y-5725000I-30000J0D01*
G01*
X4790000Y-12030000D02*
G75*
G03*
X4790000Y-12030000I-30000J0D01*
G01*
X4880000Y-11120000D02*
G75*
G03*
X4880000Y-11120000I-30000J0D01*
G01*
X4930000Y-7510000D02*
G75*
G03*
X4930000Y-7510000I-30000J0D01*
G01*
X5045000Y-10470000D02*
G75*
G03*
X5045000Y-10470000I-30000J0D01*
G01*
X5060000Y-10885000D02*
G75*
G03*
X5060000Y-10885000I-30000J0D01*
G01*
X5065000Y-13235000D02*
G75*
G03*
X5065000Y-13235000I-30000J0D01*
G01*
X5070000Y-14465000D02*
G75*
G03*
X5070000Y-14465000I-30000J0D01*
G01*
X5130000Y-12900000D02*
G75*
G03*
X5130000Y-12900000I-30000J0D01*
G01*
X5205000Y-9605000D02*
G75*
G03*
X5205000Y-9605000I-30000J0D01*
G01*
X5210000Y-15000000D02*
G75*
G03*
X5210000Y-15000000I-30000J0D01*
G01*
X5245000Y-13785000D02*
G75*
G03*
X5245000Y-13785000I-30000J0D01*
G01*
X5290000Y-12675000D02*
G75*
G03*
X5290000Y-12675000I-30000J0D01*
G01*
X5335000Y-10220000D02*
G75*
G03*
X5335000Y-10220000I-30000J0D01*
G01*
X5345000Y-6700000D02*
G75*
G03*
X5345000Y-6700000I-30000J0D01*
G01*
X5560000Y-12980000D02*
G75*
G03*
X5560000Y-12980000I-30000J0D01*
G01*
X5570000Y-7555000D02*
G75*
G03*
X5570000Y-7555000I-30000J0D01*
G01*
X5790000Y-10540000D02*
G75*
G03*
X5790000Y-10540000I-30000J0D01*
G01*
X5870000Y-9030000D02*
G75*
G03*
X5870000Y-9030000I-30000J0D01*
G01*
X5875000Y-8370000D02*
G75*
G03*
X5875000Y-8370000I-30000J0D01*
G01*
X5895000Y-6540000D02*
G75*
G03*
X5895000Y-6540000I-30000J0D01*
G01*
X6105000Y-12505000D02*
G75*
G03*
X6105000Y-12505000I-30000J0D01*
G01*
X6105000Y-14455000D02*
G75*
G03*
X6105000Y-14455000I-30000J0D01*
G01*
X6130000Y-13270000D02*
G75*
G03*
X6130000Y-13270000I-30000J0D01*
G01*
X6220000Y-11120000D02*
G75*
G03*
X6220000Y-11120000I-30000J0D01*
G01*
X6250000Y-7145000D02*
G75*
G03*
X6250000Y-7145000I-30000J0D01*
G01*
X6280000Y-8170000D02*
G75*
G03*
X6280000Y-8170000I-30000J0D01*
G01*
X6285000Y-14985000D02*
G75*
G03*
X6285000Y-14985000I-30000J0D01*
G01*
X6290000Y-7485000D02*
G75*
G03*
X6290000Y-7485000I-30000J0D01*
G01*
X6305000Y-13750000D02*
G75*
G03*
X6305000Y-13750000I-30000J0D01*
G01*
X6480000Y-10255000D02*
G75*
G03*
X6480000Y-10255000I-30000J0D01*
G01*
X6790000Y-5695000D02*
G75*
G03*
X6790000Y-5695000I-30000J0D01*
G01*
X6820000Y-9025000D02*
G75*
G03*
X6820000Y-9025000I-30000J0D01*
G01*
X6900000Y-7455000D02*
G75*
G03*
X6900000Y-7455000I-30000J0D01*
G01*
X6925000Y-8105000D02*
G75*
G03*
X6925000Y-8105000I-30000J0D01*
G01*
X6940000Y-9680000D02*
G75*
G03*
X6940000Y-9680000I-30000J0D01*
G01*
X6985000Y-12050000D02*
G75*
G03*
X6985000Y-12050000I-30000J0D01*
G01*
X7050000Y-11650000D02*
G75*
G03*
X7050000Y-11650000I-30000J0D01*
G01*
X7110000Y-12560000D02*
G75*
G03*
X7110000Y-12560000I-30000J0D01*
G01*
X7140000Y-14480000D02*
G75*
G03*
X7140000Y-14480000I-30000J0D01*
G01*
X7155000Y-14045000D02*
G75*
G03*
X7155000Y-14045000I-30000J0D01*
G01*
X7305000Y-11145000D02*
G75*
G03*
X7305000Y-11145000I-30000J0D01*
G01*
X7375000Y-14985000D02*
G75*
G03*
X7375000Y-14985000I-30000J0D01*
G01*
X7500000Y-14530000D02*
G75*
G03*
X7500000Y-14530000I-30000J0D01*
G01*
X7505000Y-11515000D02*
G75*
G03*
X7505000Y-11515000I-30000J0D01*
G01*
X7510000Y-5860000D02*
G75*
G03*
X7510000Y-5860000I-30000J0D01*
G01*
X8060000Y-8720000D02*
G75*
G03*
X8060000Y-8720000I-30000J0D01*
G01*
X8125000Y-14935000D02*
G75*
G03*
X8125000Y-14935000I-30000J0D01*
G01*
X8135000Y-6410000D02*
G75*
G03*
X8135000Y-6410000I-30000J0D01*
G01*
X8135000Y-6725000D02*
G75*
G03*
X8135000Y-6725000I-30000J0D01*
G01*
X8145000Y-5515000D02*
G75*
G03*
X8145000Y-5515000I-30000J0D01*
G01*
X8145000Y-9890000D02*
G75*
G03*
X8145000Y-9890000I-30000J0D01*
G01*
X8150000Y-14265000D02*
G75*
G03*
X8150000Y-14265000I-30000J0D01*
G01*
X8165000Y-11880000D02*
G75*
G03*
X8165000Y-11880000I-30000J0D01*
G01*
X8170000Y-11665000D02*
G75*
G03*
X8170000Y-11665000I-30000J0D01*
G01*
X8175000Y-7520000D02*
G75*
G03*
X8175000Y-7520000I-30000J0D01*
G01*
X8175000Y-7895000D02*
G75*
G03*
X8175000Y-7895000I-30000J0D01*
G01*
X8175000Y-8295000D02*
G75*
G03*
X8175000Y-8295000I-30000J0D01*
G01*
X8290000Y-9470000D02*
G75*
G03*
X8290000Y-9470000I-30000J0D01*
G01*
X8480000Y-9880000D02*
G75*
G03*
X8480000Y-9880000I-30000J0D01*
G01*
X8480000Y-10240000D02*
G75*
G03*
X8480000Y-10240000I-30000J0D01*
G01*
X8505000Y-13840000D02*
G75*
G03*
X8505000Y-13840000I-30000J0D01*
G01*
X8525000Y-11080000D02*
G75*
G03*
X8525000Y-11080000I-30000J0D01*
G01*
X8530000Y-8670000D02*
G75*
G03*
X8530000Y-8670000I-30000J0D01*
G01*
X8540000Y-8220000D02*
G75*
G03*
X8540000Y-8220000I-30000J0D01*
G01*
X8545000Y-7895000D02*
G75*
G03*
X8545000Y-7895000I-30000J0D01*
G01*
X8550000Y-6725000D02*
G75*
G03*
X8550000Y-6725000I-30000J0D01*
G01*
X8555000Y-6405000D02*
G75*
G03*
X8555000Y-6405000I-30000J0D01*
G01*
X8575000Y-11590000D02*
G75*
G03*
X8575000Y-11590000I-30000J0D01*
G01*
X8575000Y-12040000D02*
G75*
G03*
X8575000Y-12040000I-30000J0D01*
G01*
X8575183Y-12295182D02*
G75*
G03*
X8575183Y-12295182I-30000J0D01*
G01*
X8675000Y-7490000D02*
G75*
G03*
X8675000Y-7490000I-30000J0D01*
G01*
X8680000Y-13510000D02*
G75*
G03*
X8680000Y-13510000I-30000J0D01*
G01*
X8775000Y-12610000D02*
G75*
G03*
X8775000Y-12610000I-30000J0D01*
G01*
X8835000Y-11100000D02*
G75*
G03*
X8835000Y-11100000I-30000J0D01*
G01*
X8880000Y-10620000D02*
G75*
G03*
X8880000Y-10620000I-30000J0D01*
G01*
X8915000Y-9915000D02*
G75*
G03*
X8915000Y-9915000I-30000J0D01*
G01*
X8925000Y-11565000D02*
G75*
G03*
X8925000Y-11565000I-30000J0D01*
G01*
X8935000Y-12235000D02*
G75*
G03*
X8935000Y-12235000I-30000J0D01*
G01*
X8965000Y-5495000D02*
G75*
G03*
X8965000Y-5495000I-30000J0D01*
G01*
X8970000Y-9425000D02*
G75*
G03*
X8970000Y-9425000I-30000J0D01*
G01*
X9120000Y-12725000D02*
G75*
G03*
X9120000Y-12725000I-30000J0D01*
G01*
X9125000Y-7785000D02*
G75*
G03*
X9125000Y-7785000I-30000J0D01*
G01*
X9135000Y-13510000D02*
G75*
G03*
X9135000Y-13510000I-30000J0D01*
G01*
X9150000Y-7315000D02*
G75*
G03*
X9150000Y-7315000I-30000J0D01*
G01*
X9190000Y-6055000D02*
G75*
G03*
X9190000Y-6055000I-30000J0D01*
G01*
X9220000Y-6945000D02*
G75*
G03*
X9220000Y-6945000I-30000J0D01*
G01*
X9235000Y-8690000D02*
G75*
G03*
X9235000Y-8690000I-30000J0D01*
G01*
X9250000Y-11805000D02*
G75*
G03*
X9250000Y-11805000I-30000J0D01*
G01*
X9345000Y-10845000D02*
G75*
G03*
X9345000Y-10845000I-30000J0D01*
G01*
X9415000Y-6605000D02*
G75*
G03*
X9415000Y-6605000I-30000J0D01*
G01*
X9500000Y-7915000D02*
G75*
G03*
X9500000Y-7915000I-30000J0D01*
G01*
X9505000Y-7410000D02*
G75*
G03*
X9505000Y-7410000I-30000J0D01*
G01*
X9560000Y-12210000D02*
G75*
G03*
X9560000Y-12210000I-30000J0D01*
G01*
X9570000Y-9210000D02*
G75*
G03*
X9570000Y-9210000I-30000J0D01*
G01*
X9625000Y-10200000D02*
G75*
G03*
X9625000Y-10200000I-30000J0D01*
G01*
X9640000Y-9770000D02*
G75*
G03*
X9640000Y-9770000I-30000J0D01*
G01*
X9800000Y-11030000D02*
G75*
G03*
X9800000Y-11030000I-30000J0D01*
G01*
X9870000Y-13600000D02*
G75*
G03*
X9870000Y-13600000I-30000J0D01*
G01*
X9945000Y-6260000D02*
G75*
G03*
X9945000Y-6260000I-30000J0D01*
G01*
X9965000Y-7195000D02*
G75*
G03*
X9965000Y-7195000I-30000J0D01*
G01*
X9975000Y-8225000D02*
G75*
G03*
X9975000Y-8225000I-30000J0D01*
G01*
X10115000Y-11215000D02*
G75*
G03*
X10115000Y-11215000I-30000J0D01*
G01*
X10270000Y-5375000D02*
G75*
G03*
X10270000Y-5375000I-30000J0D01*
G01*
X10320000Y-9300000D02*
G75*
G03*
X10320000Y-9300000I-30000J0D01*
G01*
X10385000Y-14895000D02*
G75*
G03*
X10385000Y-14895000I-30000J0D01*
G01*
X10425000Y-12330000D02*
G75*
G03*
X10425000Y-12330000I-30000J0D01*
G01*
X10550000Y-13055000D02*
G75*
G03*
X10550000Y-13055000I-30000J0D01*
G01*
X10570000Y-6930000D02*
G75*
G03*
X10570000Y-6930000I-30000J0D01*
G01*
X10570000Y-7655000D02*
G75*
G03*
X10570000Y-7655000I-30000J0D01*
G01*
X10590000Y-6360000D02*
G75*
G03*
X10590000Y-6360000I-30000J0D01*
G01*
X10595000Y-5810000D02*
G75*
G03*
X10595000Y-5810000I-30000J0D01*
G01*
X10595000Y-8855000D02*
G75*
G03*
X10595000Y-8855000I-30000J0D01*
G01*
X10600000Y-8290000D02*
G75*
G03*
X10600000Y-8290000I-30000J0D01*
G01*
X10635000Y-12765000D02*
G75*
G03*
X10635000Y-12765000I-30000J0D01*
G01*
X10680000Y-11620000D02*
G75*
G03*
X10680000Y-11620000I-30000J0D01*
G01*
X10775000Y-9290000D02*
G75*
G03*
X10775000Y-9290000I-30000J0D01*
G01*
X10800000Y-12380000D02*
G75*
G03*
X10800000Y-12380000I-30000J0D01*
G01*
X11215000Y-12770000D02*
G75*
G03*
X11215000Y-12770000I-30000J0D01*
G01*
X11220000Y-5970000D02*
G75*
G03*
X11220000Y-5970000I-30000J0D01*
G01*
X11230000Y-12425000D02*
G75*
G03*
X11230000Y-12425000I-30000J0D01*
G01*
X11235000Y-8620000D02*
G75*
G03*
X11235000Y-8620000I-30000J0D01*
G01*
X11365000Y-11685000D02*
G75*
G03*
X11365000Y-11685000I-30000J0D01*
G01*
X11385000Y-11115000D02*
G75*
G03*
X11385000Y-11115000I-30000J0D01*
G01*
X11460000Y-14950000D02*
G75*
G03*
X11460000Y-14950000I-30000J0D01*
G01*
X11470000Y-14345000D02*
G75*
G03*
X11470000Y-14345000I-30000J0D01*
G01*
D14*
X9538050Y-10425500D02*
X9538050Y-10500500D01*
X9500550Y-10463000D02*
X9575550Y-10463000D01*
X9538050Y-10552500D02*
X9538050Y-10627500D01*
X9500550Y-10590000D02*
X9575550Y-10590000D01*
X9538050Y-10679500D02*
X9538050Y-10754500D01*
X9500550Y-10717000D02*
X9575550Y-10717000D01*
X9937750Y-10425500D02*
X9937750Y-10500500D01*
X9900250Y-10463000D02*
X9975250Y-10463000D01*
X9937750Y-10552500D02*
X9937750Y-10627500D01*
X9900250Y-10590000D02*
X9975250Y-10590000D01*
X9937750Y-10679500D02*
X9937750Y-10754500D01*
X9900250Y-10717000D02*
X9975250Y-10717000D01*
D15*
X4443285Y-11473284D02*
X4443285Y-11416715D01*
X4386716Y-11416715D01*
X4386716Y-11473284D01*
X4443285Y-11473284D01*
X4693285Y-11473284D02*
X4693285Y-11416715D01*
X4636716Y-11416715D01*
X4636716Y-11473284D01*
X4693285Y-11473284D01*
X4943285Y-11473284D02*
X4943285Y-11416715D01*
X4886716Y-11416715D01*
X4886716Y-11473284D01*
X4943285Y-11473284D01*
X5578285Y-7227284D02*
X5578285Y-7170715D01*
X5521716Y-7170715D01*
X5521716Y-7227284D01*
X5578285Y-7227284D01*
X5578285Y-7989284D02*
X5578285Y-7932715D01*
X5521716Y-7932715D01*
X5521716Y-7989284D01*
X5578285Y-7989284D01*
X5578285Y-8702285D02*
X5578285Y-8645716D01*
X5521716Y-8645716D01*
X5521716Y-8702285D01*
X5578285Y-8702285D01*
X5578285Y-9464285D02*
X5578285Y-9407716D01*
X5521716Y-9407716D01*
X5521716Y-9464285D01*
X5578285Y-9464285D01*
X5578285Y-10127285D02*
X5578285Y-10070716D01*
X5521716Y-10070716D01*
X5521716Y-10127285D01*
X5578285Y-10127285D01*
X5578285Y-10889285D02*
X5578285Y-10832716D01*
X5521716Y-10832716D01*
X5521716Y-10889285D01*
X5578285Y-10889285D01*
X5923284Y-6217284D02*
X5923284Y-6160715D01*
X5866715Y-6160715D01*
X5866715Y-6217284D01*
X5923284Y-6217284D01*
X5923284Y-6979284D02*
X5923284Y-6922715D01*
X5866715Y-6922715D01*
X5866715Y-6979284D01*
X5923284Y-6979284D01*
X5923284Y-7227284D02*
X5923284Y-7170715D01*
X5866715Y-7170715D01*
X5866715Y-7227284D01*
X5923284Y-7227284D01*
X5923284Y-7989284D02*
X5923284Y-7932715D01*
X5866715Y-7932715D01*
X5866715Y-7989284D01*
X5923284Y-7989284D01*
X5923284Y-8702285D02*
X5923284Y-8645716D01*
X5866715Y-8645716D01*
X5866715Y-8702285D01*
X5923284Y-8702285D01*
X5923284Y-9464285D02*
X5923284Y-9407716D01*
X5866715Y-9407716D01*
X5866715Y-9464285D01*
X5923284Y-9464285D01*
X5923284Y-10127285D02*
X5923284Y-10070716D01*
X5866715Y-10070716D01*
X5866715Y-10127285D01*
X5923284Y-10127285D01*
X5923284Y-10889285D02*
X5923284Y-10832716D01*
X5866715Y-10832716D01*
X5866715Y-10889285D01*
X5923284Y-10889285D01*
X6442284Y-9018285D02*
X6442284Y-8961716D01*
X6385715Y-8961716D01*
X6385715Y-9018285D01*
X6442284Y-9018285D01*
X6598284Y-11217284D02*
X6598284Y-11160716D01*
X6541715Y-11160716D01*
X6541715Y-11217284D01*
X6598284Y-11217284D01*
X6598284Y-11979284D02*
X6598284Y-11922715D01*
X6541715Y-11922715D01*
X6541715Y-11979284D01*
X6598284Y-11979284D01*
X7204284Y-9018285D02*
X7204284Y-8961716D01*
X7147715Y-8961716D01*
X7147715Y-9018285D01*
X7204284Y-9018285D01*
X8073284Y-7347284D02*
X8073284Y-7290715D01*
X8016715Y-7290715D01*
X8016715Y-7347284D01*
X8073284Y-7347284D01*
X8103284Y-5813284D02*
X8103284Y-5756715D01*
X8046715Y-5756715D01*
X8046715Y-5813284D01*
X8103284Y-5813284D01*
X8133284Y-6217284D02*
X8133284Y-6160715D01*
X8076715Y-6160715D01*
X8076715Y-6217284D01*
X8133284Y-6217284D01*
X8133284Y-6979284D02*
X8133284Y-6922715D01*
X8076715Y-6922715D01*
X8076715Y-6979284D01*
X8133284Y-6979284D01*
X8248284Y-9027773D02*
X8248284Y-8971204D01*
X8191715Y-8971204D01*
X8191715Y-9027773D01*
X8248284Y-9027773D01*
X8248284Y-9277773D02*
X8248284Y-9221204D01*
X8191715Y-9221204D01*
X8191715Y-9277773D01*
X8248284Y-9277773D01*
X8312284Y-11378284D02*
X8312284Y-11321715D01*
X8255715Y-11321715D01*
X8255715Y-11378284D01*
X8312284Y-11378284D01*
X8317284Y-10093285D02*
X8317284Y-10036716D01*
X8260715Y-10036716D01*
X8260715Y-10093285D01*
X8317284Y-10093285D01*
X8317284Y-10438285D02*
X8317284Y-10381716D01*
X8260715Y-10381716D01*
X8260715Y-10438285D01*
X8317284Y-10438285D01*
X8323284Y-9748285D02*
X8323284Y-9691716D01*
X8266715Y-9691716D01*
X8266715Y-9748285D01*
X8323284Y-9748285D01*
X8430285Y-10898285D02*
X8430285Y-10841716D01*
X8373715Y-10841716D01*
X8373715Y-10898285D01*
X8430285Y-10898285D01*
X8513285Y-14363284D02*
X8513285Y-14306715D01*
X8456716Y-14306715D01*
X8456716Y-14363284D01*
X8513285Y-14363284D01*
X8548285Y-7712284D02*
X8548285Y-7655715D01*
X8491716Y-7655715D01*
X8491716Y-7712284D01*
X8548285Y-7712284D01*
X8548285Y-8474285D02*
X8548285Y-8417716D01*
X8491716Y-8417716D01*
X8491716Y-8474285D01*
X8548285Y-8474285D01*
X8553285Y-6216284D02*
X8553285Y-6159715D01*
X8496716Y-6159715D01*
X8496716Y-6216284D01*
X8553285Y-6216284D01*
X8553285Y-6978284D02*
X8553285Y-6921715D01*
X8496716Y-6921715D01*
X8496716Y-6978284D01*
X8553285Y-6978284D01*
X8573285Y-7347284D02*
X8573285Y-7290715D01*
X8516716Y-7290715D01*
X8516716Y-7347284D01*
X8573285Y-7347284D01*
X8684285Y-10898285D02*
X8684285Y-10841716D01*
X8627716Y-10841716D01*
X8627716Y-10898285D01*
X8684285Y-10898285D01*
X8779785Y-13141284D02*
X8779785Y-13084715D01*
X8723216Y-13084715D01*
X8723216Y-13141284D01*
X8779785Y-13141284D01*
X8779785Y-13903284D02*
X8779785Y-13846715D01*
X8723216Y-13846715D01*
X8723216Y-13903284D01*
X8779785Y-13903284D01*
X8865285Y-5813284D02*
X8865285Y-5756715D01*
X8808716Y-5756715D01*
X8808716Y-5813284D01*
X8865285Y-5813284D01*
X8890285Y-6300784D02*
X8890285Y-6244215D01*
X8833716Y-6244215D01*
X8833716Y-6300784D01*
X8890285Y-6300784D01*
X8890285Y-6554784D02*
X8890285Y-6498215D01*
X8833716Y-6498215D01*
X8833716Y-6554784D01*
X8890285Y-6554784D01*
X8890285Y-6808784D02*
X8890285Y-6752215D01*
X8833716Y-6752215D01*
X8833716Y-6808784D01*
X8890285Y-6808784D01*
X8890285Y-7062784D02*
X8890285Y-7006215D01*
X8833716Y-7006215D01*
X8833716Y-7062784D01*
X8890285Y-7062784D01*
X8890285Y-7316784D02*
X8890285Y-7260215D01*
X8833716Y-7260215D01*
X8833716Y-7316784D01*
X8890285Y-7316784D01*
X8890285Y-7570784D02*
X8890285Y-7514215D01*
X8833716Y-7514215D01*
X8833716Y-7570784D01*
X8890285Y-7570784D01*
X8890285Y-7824784D02*
X8890285Y-7768215D01*
X8833716Y-7768215D01*
X8833716Y-7824784D01*
X8890285Y-7824784D01*
X8890285Y-8078784D02*
X8890285Y-8022215D01*
X8833716Y-8022215D01*
X8833716Y-8078784D01*
X8890285Y-8078784D01*
X8938285Y-10898285D02*
X8938285Y-10841716D01*
X8881716Y-10841716D01*
X8881716Y-10898285D01*
X8938285Y-10898285D01*
X8998285Y-8482285D02*
X8998285Y-8425716D01*
X8941716Y-8425716D01*
X8941716Y-8482285D01*
X8998285Y-8482285D01*
X8998285Y-8962285D02*
X8998285Y-8905716D01*
X8941716Y-8905716D01*
X8941716Y-8962285D01*
X8998285Y-8962285D01*
X9000285Y-12598284D02*
X9000285Y-12541715D01*
X8943716Y-12541715D01*
X8943716Y-12598284D01*
X9000285Y-12598284D01*
X9013285Y-14363284D02*
X9013285Y-14306715D01*
X8956716Y-14306715D01*
X8956716Y-14363284D01*
X9013285Y-14363284D01*
X9033785Y-13141284D02*
X9033785Y-13084715D01*
X8977216Y-13084715D01*
X8977216Y-13141284D01*
X9033785Y-13141284D01*
X9033785Y-13903284D02*
X9033785Y-13846715D01*
X8977216Y-13846715D01*
X8977216Y-13903284D01*
X9033785Y-13903284D01*
X9074285Y-11378284D02*
X9074285Y-11321715D01*
X9017716Y-11321715D01*
X9017716Y-11378284D01*
X9074285Y-11378284D01*
X9079285Y-10093285D02*
X9079285Y-10036716D01*
X9022716Y-10036716D01*
X9022716Y-10093285D01*
X9079285Y-10093285D01*
X9079285Y-10438285D02*
X9079285Y-10381716D01*
X9022716Y-10381716D01*
X9022716Y-10438285D01*
X9079285Y-10438285D01*
X9085285Y-9748285D02*
X9085285Y-9691716D01*
X9028716Y-9691716D01*
X9028716Y-9748285D01*
X9085285Y-9748285D01*
X9094285Y-14793284D02*
X9094285Y-14736715D01*
X9037716Y-14736715D01*
X9037716Y-14793284D01*
X9094285Y-14793284D01*
X9254285Y-12598284D02*
X9254285Y-12541715D01*
X9197716Y-12541715D01*
X9197716Y-12598284D01*
X9254285Y-12598284D01*
X9287785Y-13141284D02*
X9287785Y-13084715D01*
X9231216Y-13084715D01*
X9231216Y-13141284D01*
X9287785Y-13141284D01*
X9287785Y-13903284D02*
X9287785Y-13846715D01*
X9231216Y-13846715D01*
X9231216Y-13903284D01*
X9287785Y-13903284D01*
X9334785Y-14363784D02*
X9334785Y-14307215D01*
X9278216Y-14307215D01*
X9278216Y-14363784D01*
X9334785Y-14363784D01*
X9382285Y-9748285D02*
X9382285Y-9691716D01*
X9325716Y-9691716D01*
X9325716Y-9748285D01*
X9382285Y-9748285D01*
X9382285Y-10093285D02*
X9382285Y-10036716D01*
X9325716Y-10036716D01*
X9325716Y-10093285D01*
X9382285Y-10093285D01*
X9498285Y-8482285D02*
X9498285Y-8425716D01*
X9441716Y-8425716D01*
X9441716Y-8482285D01*
X9498285Y-8482285D01*
X9498285Y-8962285D02*
X9498285Y-8905716D01*
X9441716Y-8905716D01*
X9441716Y-8962285D01*
X9498285Y-8962285D01*
X9508285Y-12598284D02*
X9508285Y-12541715D01*
X9451716Y-12541715D01*
X9451716Y-12598284D01*
X9508285Y-12598284D01*
X9541785Y-13141284D02*
X9541785Y-13084715D01*
X9485216Y-13084715D01*
X9485216Y-13141284D01*
X9541785Y-13141284D01*
X9541785Y-13903284D02*
X9541785Y-13846715D01*
X9485216Y-13846715D01*
X9485216Y-13903284D01*
X9541785Y-13903284D01*
X9652285Y-6300784D02*
X9652285Y-6244215D01*
X9595716Y-6244215D01*
X9595716Y-6300784D01*
X9652285Y-6300784D01*
X9652285Y-6554784D02*
X9652285Y-6498215D01*
X9595716Y-6498215D01*
X9595716Y-6554784D01*
X9652285Y-6554784D01*
X9652285Y-6808784D02*
X9652285Y-6752215D01*
X9595716Y-6752215D01*
X9595716Y-6808784D01*
X9652285Y-6808784D01*
X9652285Y-7062784D02*
X9652285Y-7006215D01*
X9595716Y-7006215D01*
X9595716Y-7062784D01*
X9652285Y-7062784D01*
X9652285Y-7316784D02*
X9652285Y-7260215D01*
X9595716Y-7260215D01*
X9595716Y-7316784D01*
X9652285Y-7316784D01*
X9652285Y-7570784D02*
X9652285Y-7514215D01*
X9595716Y-7514215D01*
X9595716Y-7570784D01*
X9652285Y-7570784D01*
X9652285Y-7824784D02*
X9652285Y-7768215D01*
X9595716Y-7768215D01*
X9595716Y-7824784D01*
X9652285Y-7824784D01*
X9652285Y-8078784D02*
X9652285Y-8022215D01*
X9595716Y-8022215D01*
X9595716Y-8078784D01*
X9652285Y-8078784D01*
X9795785Y-13141284D02*
X9795785Y-13084715D01*
X9739216Y-13084715D01*
X9739216Y-13141284D01*
X9795785Y-13141284D01*
X9795785Y-13903284D02*
X9795785Y-13846715D01*
X9739216Y-13846715D01*
X9739216Y-13903284D01*
X9795785Y-13903284D01*
X9834785Y-14363784D02*
X9834785Y-14307215D01*
X9778216Y-14307215D01*
X9778216Y-14363784D01*
X9834785Y-14363784D01*
X9856285Y-14793284D02*
X9856285Y-14736715D01*
X9799716Y-14736715D01*
X9799716Y-14793284D01*
X9856285Y-14793284D01*
X9973285Y-6841284D02*
X9973285Y-6784715D01*
X9916716Y-6784715D01*
X9916716Y-6841284D01*
X9973285Y-6841284D01*
X9973285Y-7603284D02*
X9973285Y-7546715D01*
X9916716Y-7546715D01*
X9916716Y-7603284D01*
X9973285Y-7603284D01*
X9973285Y-7960284D02*
X9973285Y-7903715D01*
X9916716Y-7903715D01*
X9916716Y-7960284D01*
X9973285Y-7960284D01*
X9973285Y-8722285D02*
X9973285Y-8665716D01*
X9916716Y-8665716D01*
X9916716Y-8722285D01*
X9973285Y-8722285D01*
X10049785Y-13141284D02*
X10049785Y-13084715D01*
X9993216Y-13084715D01*
X9993216Y-13141284D01*
X10049785Y-13141284D01*
X10049785Y-13903284D02*
X10049785Y-13846715D01*
X9993216Y-13846715D01*
X9993216Y-13903284D01*
X10049785Y-13903284D01*
X10118285Y-12598284D02*
X10118285Y-12541715D01*
X10061716Y-12541715D01*
X10061716Y-12598284D01*
X10118285Y-12598284D01*
X10144285Y-9748285D02*
X10144285Y-9691716D01*
X10087716Y-9691716D01*
X10087716Y-9748285D01*
X10144285Y-9748285D01*
X10144285Y-10093285D02*
X10144285Y-10036716D01*
X10087716Y-10036716D01*
X10087716Y-10093285D01*
X10144285Y-10093285D01*
X10238285Y-6067284D02*
X10238285Y-6010715D01*
X10181716Y-6010715D01*
X10181716Y-6067284D01*
X10238285Y-6067284D01*
X10238285Y-6567284D02*
X10238285Y-6510715D01*
X10181716Y-6510715D01*
X10181716Y-6567284D01*
X10238285Y-6567284D01*
X10303785Y-13141284D02*
X10303785Y-13084715D01*
X10247216Y-13084715D01*
X10247216Y-13141284D01*
X10303785Y-13141284D01*
X10303785Y-13903284D02*
X10303785Y-13846715D01*
X10247216Y-13846715D01*
X10247216Y-13903284D01*
X10303785Y-13903284D01*
X10308285Y-6841284D02*
X10308285Y-6784715D01*
X10251716Y-6784715D01*
X10251716Y-6841284D01*
X10308285Y-6841284D01*
X10308285Y-7603284D02*
X10308285Y-7546715D01*
X10251716Y-7546715D01*
X10251716Y-7603284D01*
X10308285Y-7603284D01*
X10313285Y-7961284D02*
X10313285Y-7904715D01*
X10256716Y-7904715D01*
X10256716Y-7961284D01*
X10313285Y-7961284D01*
X10313285Y-8723285D02*
X10313285Y-8666716D01*
X10256716Y-8666716D01*
X10256716Y-8723285D01*
X10313285Y-8723285D01*
X10318285Y-14433284D02*
X10318285Y-14376715D01*
X10261716Y-14376715D01*
X10261716Y-14433284D01*
X10318285Y-14433284D01*
X10372285Y-12598284D02*
X10372285Y-12541715D01*
X10315716Y-12541715D01*
X10315716Y-12598284D01*
X10372285Y-12598284D01*
X10433285Y-10093285D02*
X10433285Y-10036716D01*
X10376716Y-10036716D01*
X10376716Y-10093285D01*
X10433285Y-10093285D01*
X10433285Y-10443285D02*
X10433285Y-10386716D01*
X10376716Y-10386716D01*
X10376716Y-10443285D01*
X10433285Y-10443285D01*
X10433285Y-10803285D02*
X10433285Y-10746716D01*
X10376716Y-10746716D01*
X10376716Y-10803285D01*
X10433285Y-10803285D01*
X10436285Y-9743285D02*
X10436285Y-9686716D01*
X10379716Y-9686716D01*
X10379716Y-9743285D01*
X10436285Y-9743285D01*
X10498285Y-11298284D02*
X10498285Y-11241715D01*
X10441716Y-11241715D01*
X10441716Y-11298284D01*
X10498285Y-11298284D01*
X10498285Y-12060284D02*
X10498285Y-12003715D01*
X10441716Y-12003715D01*
X10441716Y-12060284D01*
X10498285Y-12060284D01*
X10572285Y-14433284D02*
X10572285Y-14376715D01*
X10515716Y-14376715D01*
X10515716Y-14433284D01*
X10572285Y-14433284D01*
X10626285Y-12598284D02*
X10626285Y-12541715D01*
X10569716Y-12541715D01*
X10569716Y-12598284D01*
X10626285Y-12598284D01*
X10738285Y-13248284D02*
X10738285Y-13191715D01*
X10681716Y-13191715D01*
X10681716Y-13248284D01*
X10738285Y-13248284D01*
X10738285Y-13748284D02*
X10738285Y-13691715D01*
X10681716Y-13691715D01*
X10681716Y-13748284D01*
X10738285Y-13748284D01*
X10796285Y-6108284D02*
X10796285Y-6051715D01*
X10739716Y-6051715D01*
X10739716Y-6108284D01*
X10796285Y-6108284D01*
X10798285Y-8567285D02*
X10798285Y-8510716D01*
X10741716Y-8510716D01*
X10741716Y-8567285D01*
X10798285Y-8567285D01*
X10826285Y-14433284D02*
X10826285Y-14376715D01*
X10769716Y-14376715D01*
X10769716Y-14433284D01*
X10826285Y-14433284D01*
X10843285Y-11297284D02*
X10843285Y-11240715D01*
X10786716Y-11240715D01*
X10786716Y-11297284D01*
X10843285Y-11297284D01*
X10843285Y-12059284D02*
X10843285Y-12002715D01*
X10786716Y-12002715D01*
X10786716Y-12059284D01*
X10843285Y-12059284D01*
X11088285Y-9123285D02*
X11088285Y-9066716D01*
X11031716Y-9066716D01*
X11031716Y-9123285D01*
X11088285Y-9123285D01*
X11096523Y-5568285D02*
X11096523Y-5511716D01*
X11039954Y-5511716D01*
X11039954Y-5568285D01*
X11096523Y-5568285D01*
X11195284Y-10093285D02*
X11195284Y-10036716D01*
X11138716Y-10036716D01*
X11138716Y-10093285D01*
X11195284Y-10093285D01*
X11195284Y-10443285D02*
X11195284Y-10386716D01*
X11138716Y-10386716D01*
X11138716Y-10443285D01*
X11195284Y-10443285D01*
X11195284Y-10803285D02*
X11195284Y-10746716D01*
X11138716Y-10746716D01*
X11138716Y-10803285D01*
X11195284Y-10803285D01*
X11198284Y-9743285D02*
X11198284Y-9686716D01*
X11141716Y-9686716D01*
X11141716Y-9743285D01*
X11198284Y-9743285D01*
X11338284Y-9123285D02*
X11338284Y-9066716D01*
X11281715Y-9066716D01*
X11281715Y-9123285D01*
X11338284Y-9123285D01*
X11346522Y-5568285D02*
X11346522Y-5511716D01*
X11289953Y-5511716D01*
X11289953Y-5568285D01*
X11346522Y-5568285D01*
X11558284Y-6108284D02*
X11558284Y-6051715D01*
X11501715Y-6051715D01*
X11501715Y-6108284D01*
X11558284Y-6108284D01*
X11560284Y-8567285D02*
X11560284Y-8510716D01*
X11503715Y-8510716D01*
X11503715Y-8567285D01*
X11560284Y-8567285D01*
D16*
X4450000Y-6812000D02*
X4495000Y-6767000D01*
X4450000Y-6722000D01*
X4405000Y-6767000D01*
X4450000Y-6812000D01*
X4450000Y-7066000D02*
X4495000Y-7021000D01*
X4450000Y-6976000D01*
X4405000Y-7021000D01*
X4450000Y-7066000D01*
X4450000Y-8925000D02*
X4495000Y-8880000D01*
X4450000Y-8835000D01*
X4405000Y-8880000D01*
X4450000Y-8925000D01*
X4450000Y-9179000D02*
X4495000Y-9134000D01*
X4450000Y-9089000D01*
X4405000Y-9134000D01*
X4450000Y-9179000D01*
X4900000Y-6811000D02*
X4945000Y-6766000D01*
X4900000Y-6721000D01*
X4855000Y-6766000D01*
X4900000Y-6811000D01*
X4900000Y-7065000D02*
X4945000Y-7020000D01*
X4900000Y-6975000D01*
X4855000Y-7020000D01*
X4900000Y-7065000D01*
X4900000Y-8924000D02*
X4945000Y-8879000D01*
X4900000Y-8834000D01*
X4855000Y-8879000D01*
X4900000Y-8924000D01*
X4900000Y-9178000D02*
X4945000Y-9133000D01*
X4900000Y-9088000D01*
X4855000Y-9133000D01*
X4900000Y-9178000D01*
X6555000Y-6513500D02*
X6600000Y-6468500D01*
X6555000Y-6423500D01*
X6510000Y-6468500D01*
X6555000Y-6513500D01*
X6555000Y-6767500D02*
X6600000Y-6722500D01*
X6555000Y-6677500D01*
X6510000Y-6722500D01*
X6555000Y-6767500D01*
X7005000Y-6512500D02*
X7050000Y-6467500D01*
X7005000Y-6422500D01*
X6960000Y-6467500D01*
X7005000Y-6512500D01*
X7005000Y-6766500D02*
X7050000Y-6721500D01*
X7005000Y-6676500D01*
X6960000Y-6721500D01*
X7005000Y-6766500D01*
D17*
X3975000Y-12100000D02*
X4075000Y-12200000D01*
X4075000Y-12100000D02*
X3975000Y-12200000D01*
X4075000Y-12150000D02*
G75*
G03*
X4075000Y-12150000I-50000J0D01*
G01*
X3975000Y-12354000D02*
X4075000Y-12454000D01*
X4075000Y-12354000D02*
X3975000Y-12454000D01*
X4075000Y-12404000D02*
G75*
G03*
X4075000Y-12404000I-50000J0D01*
G01*
X3975000Y-12608000D02*
X4075000Y-12708000D01*
X4075000Y-12608000D02*
X3975000Y-12708000D01*
X4075000Y-12658000D02*
G75*
G03*
X4075000Y-12658000I-50000J0D01*
G01*
X3975000Y-12862000D02*
X4075000Y-12962000D01*
X4075000Y-12862000D02*
X3975000Y-12962000D01*
X4075000Y-12912000D02*
G75*
G03*
X4075000Y-12912000I-50000J0D01*
G01*
X3975000Y-13116000D02*
X4075000Y-13216000D01*
X4075000Y-13116000D02*
X3975000Y-13216000D01*
X4075000Y-13166000D02*
G75*
G03*
X4075000Y-13166000I-50000J0D01*
G01*
X3975000Y-13370000D02*
X4075000Y-13470000D01*
X4075000Y-13370000D02*
X3975000Y-13470000D01*
X4075000Y-13420000D02*
G75*
G03*
X4075000Y-13420000I-50000J0D01*
G01*
X3975000Y-13624000D02*
X4075000Y-13724000D01*
X4075000Y-13624000D02*
X3975000Y-13724000D01*
X4075000Y-13674000D02*
G75*
G03*
X4075000Y-13674000I-50000J0D01*
G01*
X3975000Y-13878000D02*
X4075000Y-13978000D01*
X4075000Y-13878000D02*
X3975000Y-13978000D01*
X4075000Y-13928000D02*
G75*
G03*
X4075000Y-13928000I-50000J0D01*
G01*
X4370000Y-8540000D02*
X4470000Y-8640000D01*
X4470000Y-8540000D02*
X4370000Y-8640000D01*
X4470000Y-8590000D02*
G75*
G03*
X4470000Y-8590000I-50000J0D01*
G01*
X4370000Y-10650000D02*
X4470000Y-10750000D01*
X4470000Y-10650000D02*
X4370000Y-10750000D01*
X4470000Y-10700000D02*
G75*
G03*
X4470000Y-10700000I-50000J0D01*
G01*
X4390000Y-6182500D02*
X4490000Y-6282500D01*
X4490000Y-6182500D02*
X4390000Y-6282500D01*
X4490000Y-6232500D02*
G75*
G03*
X4490000Y-6232500I-50000J0D01*
G01*
X4620000Y-8540000D02*
X4720000Y-8640000D01*
X4720000Y-8540000D02*
X4620000Y-8640000D01*
X4720000Y-8590000D02*
G75*
G03*
X4720000Y-8590000I-50000J0D01*
G01*
X4620000Y-10650000D02*
X4720000Y-10750000D01*
X4720000Y-10650000D02*
X4620000Y-10750000D01*
X4720000Y-10700000D02*
G75*
G03*
X4720000Y-10700000I-50000J0D01*
G01*
X4640000Y-6182500D02*
X4740000Y-6282500D01*
X4740000Y-6182500D02*
X4640000Y-6282500D01*
X4740000Y-6232500D02*
G75*
G03*
X4740000Y-6232500I-50000J0D01*
G01*
X4870000Y-8540000D02*
X4970000Y-8640000D01*
X4970000Y-8540000D02*
X4870000Y-8640000D01*
X4970000Y-8590000D02*
G75*
G03*
X4970000Y-8590000I-50000J0D01*
G01*
X4870000Y-10650000D02*
X4970000Y-10750000D01*
X4970000Y-10650000D02*
X4870000Y-10750000D01*
X4970000Y-10700000D02*
G75*
G03*
X4970000Y-10700000I-50000J0D01*
G01*
X4890000Y-6182500D02*
X4990000Y-6282500D01*
X4990000Y-6182500D02*
X4890000Y-6282500D01*
X4990000Y-6232500D02*
G75*
G03*
X4990000Y-6232500I-50000J0D01*
G01*
X6460000Y-10650000D02*
X6560000Y-10750000D01*
X6560000Y-10650000D02*
X6460000Y-10750000D01*
X6560000Y-10700000D02*
G75*
G03*
X6560000Y-10700000I-50000J0D01*
G01*
X6470000Y-8540000D02*
X6570000Y-8640000D01*
X6570000Y-8540000D02*
X6470000Y-8640000D01*
X6570000Y-8590000D02*
G75*
G03*
X6570000Y-8590000I-50000J0D01*
G01*
X6480000Y-6187500D02*
X6580000Y-6287500D01*
X6580000Y-6187500D02*
X6480000Y-6287500D01*
X6580000Y-6237500D02*
G75*
G03*
X6580000Y-6237500I-50000J0D01*
G01*
X6710000Y-10650000D02*
X6810000Y-10750000D01*
X6810000Y-10650000D02*
X6710000Y-10750000D01*
X6810000Y-10700000D02*
G75*
G03*
X6810000Y-10700000I-50000J0D01*
G01*
X6720000Y-8540000D02*
X6820000Y-8640000D01*
X6820000Y-8540000D02*
X6720000Y-8640000D01*
X6820000Y-8590000D02*
G75*
G03*
X6820000Y-8590000I-50000J0D01*
G01*
X6730000Y-6187500D02*
X6830000Y-6287500D01*
X6830000Y-6187500D02*
X6730000Y-6287500D01*
X6830000Y-6237500D02*
G75*
G03*
X6830000Y-6237500I-50000J0D01*
G01*
X6960000Y-10650000D02*
X7060000Y-10750000D01*
X7060000Y-10650000D02*
X6960000Y-10750000D01*
X7060000Y-10700000D02*
G75*
G03*
X7060000Y-10700000I-50000J0D01*
G01*
X6970000Y-8540000D02*
X7070000Y-8640000D01*
X7070000Y-8540000D02*
X6970000Y-8640000D01*
X7070000Y-8590000D02*
G75*
G03*
X7070000Y-8590000I-50000J0D01*
G01*
X6980000Y-6187500D02*
X7080000Y-6287500D01*
X7080000Y-6187500D02*
X6980000Y-6287500D01*
X7080000Y-6237500D02*
G75*
G03*
X7080000Y-6237500I-50000J0D01*
G01*
X7420000Y-12100000D02*
X7520000Y-12200000D01*
X7520000Y-12100000D02*
X7420000Y-12200000D01*
X7520000Y-12150000D02*
G75*
G03*
X7520000Y-12150000I-50000J0D01*
G01*
X7420000Y-12354000D02*
X7520000Y-12454000D01*
X7520000Y-12354000D02*
X7420000Y-12454000D01*
X7520000Y-12404000D02*
G75*
G03*
X7520000Y-12404000I-50000J0D01*
G01*
X7420000Y-12608000D02*
X7520000Y-12708000D01*
X7520000Y-12608000D02*
X7420000Y-12708000D01*
X7520000Y-12658000D02*
G75*
G03*
X7520000Y-12658000I-50000J0D01*
G01*
X7420000Y-12862000D02*
X7520000Y-12962000D01*
X7520000Y-12862000D02*
X7420000Y-12962000D01*
X7520000Y-12912000D02*
G75*
G03*
X7520000Y-12912000I-50000J0D01*
G01*
X7420000Y-13116000D02*
X7520000Y-13216000D01*
X7520000Y-13116000D02*
X7420000Y-13216000D01*
X7520000Y-13166000D02*
G75*
G03*
X7520000Y-13166000I-50000J0D01*
G01*
X7420000Y-13370000D02*
X7520000Y-13470000D01*
X7520000Y-13370000D02*
X7420000Y-13470000D01*
X7520000Y-13420000D02*
G75*
G03*
X7520000Y-13420000I-50000J0D01*
G01*
X7420000Y-13624000D02*
X7520000Y-13724000D01*
X7520000Y-13624000D02*
X7420000Y-13724000D01*
X7520000Y-13674000D02*
G75*
G03*
X7520000Y-13674000I-50000J0D01*
G01*
X7420000Y-13878000D02*
X7520000Y-13978000D01*
X7520000Y-13878000D02*
X7420000Y-13978000D01*
X7520000Y-13928000D02*
G75*
G03*
X7520000Y-13928000I-50000J0D01*
G01*
X7980000Y-12095000D02*
X8080000Y-12195000D01*
X8080000Y-12095000D02*
X7980000Y-12195000D01*
X8080000Y-12145000D02*
G75*
G03*
X8080000Y-12145000I-50000J0D01*
G01*
X7980000Y-12349000D02*
X8080000Y-12449000D01*
X8080000Y-12349000D02*
X7980000Y-12449000D01*
X8080000Y-12399000D02*
G75*
G03*
X8080000Y-12399000I-50000J0D01*
G01*
X7980000Y-12603000D02*
X8080000Y-12703000D01*
X8080000Y-12603000D02*
X7980000Y-12703000D01*
X8080000Y-12653000D02*
G75*
G03*
X8080000Y-12653000I-50000J0D01*
G01*
X7980000Y-12857000D02*
X8080000Y-12957000D01*
X8080000Y-12857000D02*
X7980000Y-12957000D01*
X8080000Y-12907000D02*
G75*
G03*
X8080000Y-12907000I-50000J0D01*
G01*
X7980000Y-13111000D02*
X8080000Y-13211000D01*
X8080000Y-13111000D02*
X7980000Y-13211000D01*
X8080000Y-13161000D02*
G75*
G03*
X8080000Y-13161000I-50000J0D01*
G01*
X7980000Y-13365000D02*
X8080000Y-13465000D01*
X8080000Y-13365000D02*
X7980000Y-13465000D01*
X8080000Y-13415000D02*
G75*
G03*
X8080000Y-13415000I-50000J0D01*
G01*
X7980000Y-13619000D02*
X8080000Y-13719000D01*
X8080000Y-13619000D02*
X7980000Y-13719000D01*
X8080000Y-13669000D02*
G75*
G03*
X8080000Y-13669000I-50000J0D01*
G01*
X7980000Y-13873000D02*
X8080000Y-13973000D01*
X8080000Y-13873000D02*
X7980000Y-13973000D01*
X8080000Y-13923000D02*
G75*
G03*
X8080000Y-13923000I-50000J0D01*
G01*
X11011250Y-6752000D02*
X11111250Y-6852000D01*
X11111250Y-6752000D02*
X11011250Y-6852000D01*
X11111250Y-6802000D02*
G75*
G03*
X11111250Y-6802000I-50000J0D01*
G01*
X11011250Y-7006000D02*
X11111250Y-7106000D01*
X11111250Y-7006000D02*
X11011250Y-7106000D01*
X11111250Y-7056000D02*
G75*
G03*
X11111250Y-7056000I-50000J0D01*
G01*
X11011250Y-7260000D02*
X11111250Y-7360000D01*
X11111250Y-7260000D02*
X11011250Y-7360000D01*
X11111250Y-7310000D02*
G75*
G03*
X11111250Y-7310000I-50000J0D01*
G01*
X11011250Y-7514000D02*
X11111250Y-7614000D01*
X11111250Y-7514000D02*
X11011250Y-7614000D01*
X11111250Y-7564000D02*
G75*
G03*
X11111250Y-7564000I-50000J0D01*
G01*
X11011250Y-7768000D02*
X11111250Y-7868000D01*
X11111250Y-7768000D02*
X11011250Y-7868000D01*
X11111250Y-7818000D02*
G75*
G03*
X11111250Y-7818000I-50000J0D01*
G01*
X11265250Y-6752000D02*
X11365250Y-6852000D01*
X11365250Y-6752000D02*
X11265250Y-6852000D01*
X11365250Y-6802000D02*
G75*
G03*
X11365250Y-6802000I-50000J0D01*
G01*
X11265250Y-7006000D02*
X11365250Y-7106000D01*
X11365250Y-7006000D02*
X11265250Y-7106000D01*
X11365250Y-7056000D02*
G75*
G03*
X11365250Y-7056000I-50000J0D01*
G01*
X11265250Y-7260000D02*
X11365250Y-7360000D01*
X11365250Y-7260000D02*
X11265250Y-7360000D01*
X11365250Y-7310000D02*
G75*
G03*
X11365250Y-7310000I-50000J0D01*
G01*
X11265250Y-7514000D02*
X11365250Y-7614000D01*
X11365250Y-7514000D02*
X11265250Y-7614000D01*
X11365250Y-7564000D02*
G75*
G03*
X11365250Y-7564000I-50000J0D01*
G01*
X11265250Y-7768000D02*
X11365250Y-7868000D01*
X11365250Y-7768000D02*
X11265250Y-7868000D01*
X11365250Y-7818000D02*
G75*
G03*
X11365250Y-7818000I-50000J0D01*
G01*
X11425000Y-12095000D02*
X11525000Y-12195000D01*
X11525000Y-12095000D02*
X11425000Y-12195000D01*
X11525000Y-12145000D02*
G75*
G03*
X11525000Y-12145000I-50000J0D01*
G01*
X11425000Y-12349000D02*
X11525000Y-12449000D01*
X11525000Y-12349000D02*
X11425000Y-12449000D01*
X11525000Y-12399000D02*
G75*
G03*
X11525000Y-12399000I-50000J0D01*
G01*
X11425000Y-12603000D02*
X11525000Y-12703000D01*
X11525000Y-12603000D02*
X11425000Y-12703000D01*
X11525000Y-12653000D02*
G75*
G03*
X11525000Y-12653000I-50000J0D01*
G01*
X11425000Y-12857000D02*
X11525000Y-12957000D01*
X11525000Y-12857000D02*
X11425000Y-12957000D01*
X11525000Y-12907000D02*
G75*
G03*
X11525000Y-12907000I-50000J0D01*
G01*
X11425000Y-13111000D02*
X11525000Y-13211000D01*
X11525000Y-13111000D02*
X11425000Y-13211000D01*
X11525000Y-13161000D02*
G75*
G03*
X11525000Y-13161000I-50000J0D01*
G01*
X11425000Y-13365000D02*
X11525000Y-13465000D01*
X11525000Y-13365000D02*
X11425000Y-13465000D01*
X11525000Y-13415000D02*
G75*
G03*
X11525000Y-13415000I-50000J0D01*
G01*
X11425000Y-13619000D02*
X11525000Y-13719000D01*
X11525000Y-13619000D02*
X11425000Y-13719000D01*
X11525000Y-13669000D02*
G75*
G03*
X11525000Y-13669000I-50000J0D01*
G01*
X11425000Y-13873000D02*
X11525000Y-13973000D01*
X11525000Y-13873000D02*
X11425000Y-13973000D01*
X11525000Y-13923000D02*
G75*
G03*
X11525000Y-13923000I-50000J0D01*
G01*
D18*
X4135000Y-7785000D02*
X4245000Y-7895000D01*
X4245000Y-7785000D02*
X4135000Y-7895000D01*
X4190000Y-7785000D02*
X4190000Y-7895000D01*
X4135000Y-7840000D02*
X4245000Y-7840000D01*
D11*
X4235000Y-7875000D02*
X4235000Y-7805000D01*
X4145000Y-7875000D02*
X4145000Y-7805000D01*
X4235000Y-7805000D02*
G75*
G03*
X4145000Y-7805000I-45000J0D01*
G01*
X4145000Y-7875000D02*
G75*
G03*
X4235000Y-7875000I45000J0D01*
G01*
D18*
X4135000Y-9895000D02*
X4245000Y-10005000D01*
X4245000Y-9895000D02*
X4135000Y-10005000D01*
X4190000Y-9895000D02*
X4190000Y-10005000D01*
X4135000Y-9950000D02*
X4245000Y-9950000D01*
D11*
X4235000Y-9985000D02*
X4235000Y-9915000D01*
X4145000Y-9985000D02*
X4145000Y-9915000D01*
X4235000Y-9915000D02*
G75*
G03*
X4145000Y-9915000I-45000J0D01*
G01*
X4145000Y-9985000D02*
G75*
G03*
X4235000Y-9985000I45000J0D01*
G01*
D18*
X4155000Y-5427500D02*
X4265000Y-5537500D01*
X4265000Y-5427500D02*
X4155000Y-5537500D01*
X4210000Y-5427500D02*
X4210000Y-5537500D01*
X4155000Y-5482500D02*
X4265000Y-5482500D01*
D11*
X4255000Y-5517500D02*
X4255000Y-5447500D01*
X4165000Y-5517500D02*
X4165000Y-5447500D01*
X4255000Y-5447500D02*
G75*
G03*
X4165000Y-5447500I-45000J0D01*
G01*
X4165000Y-5517500D02*
G75*
G03*
X4255000Y-5517500I45000J0D01*
G01*
D18*
X5095000Y-7785000D02*
X5205000Y-7895000D01*
X5205000Y-7785000D02*
X5095000Y-7895000D01*
X5150000Y-7785000D02*
X5150000Y-7895000D01*
X5095000Y-7840000D02*
X5205000Y-7840000D01*
D11*
X5195000Y-7875000D02*
X5195000Y-7805000D01*
X5105000Y-7875000D02*
X5105000Y-7805000D01*
X5195000Y-7805000D02*
G75*
G03*
X5105000Y-7805000I-45000J0D01*
G01*
X5105000Y-7875000D02*
G75*
G03*
X5195000Y-7875000I45000J0D01*
G01*
D18*
X5095000Y-9895000D02*
X5205000Y-10005000D01*
X5205000Y-9895000D02*
X5095000Y-10005000D01*
X5150000Y-9895000D02*
X5150000Y-10005000D01*
X5095000Y-9950000D02*
X5205000Y-9950000D01*
D11*
X5195000Y-9985000D02*
X5195000Y-9915000D01*
X5105000Y-9985000D02*
X5105000Y-9915000D01*
X5195000Y-9915000D02*
G75*
G03*
X5105000Y-9915000I-45000J0D01*
G01*
X5105000Y-9985000D02*
G75*
G03*
X5195000Y-9985000I45000J0D01*
G01*
D18*
X5115000Y-5427500D02*
X5225000Y-5537500D01*
X5225000Y-5427500D02*
X5115000Y-5537500D01*
X5170000Y-5427500D02*
X5170000Y-5537500D01*
X5115000Y-5482500D02*
X5225000Y-5482500D01*
D11*
X5215000Y-5517500D02*
X5215000Y-5447500D01*
X5125000Y-5517500D02*
X5125000Y-5447500D01*
X5215000Y-5447500D02*
G75*
G03*
X5125000Y-5447500I-45000J0D01*
G01*
X5125000Y-5517500D02*
G75*
G03*
X5215000Y-5517500I45000J0D01*
G01*
D18*
X6225000Y-9895000D02*
X6335000Y-10005000D01*
X6335000Y-9895000D02*
X6225000Y-10005000D01*
X6280000Y-9895000D02*
X6280000Y-10005000D01*
X6225000Y-9950000D02*
X6335000Y-9950000D01*
D11*
X6325000Y-9985000D02*
X6325000Y-9915000D01*
X6235000Y-9985000D02*
X6235000Y-9915000D01*
X6325000Y-9915000D02*
G75*
G03*
X6235000Y-9915000I-45000J0D01*
G01*
X6235000Y-9985000D02*
G75*
G03*
X6325000Y-9985000I45000J0D01*
G01*
D18*
X6235000Y-7785000D02*
X6345000Y-7895000D01*
X6345000Y-7785000D02*
X6235000Y-7895000D01*
X6290000Y-7785000D02*
X6290000Y-7895000D01*
X6235000Y-7840000D02*
X6345000Y-7840000D01*
D11*
X6335000Y-7875000D02*
X6335000Y-7805000D01*
X6245000Y-7875000D02*
X6245000Y-7805000D01*
X6335000Y-7805000D02*
G75*
G03*
X6245000Y-7805000I-45000J0D01*
G01*
X6245000Y-7875000D02*
G75*
G03*
X6335000Y-7875000I45000J0D01*
G01*
D18*
X6245000Y-5432500D02*
X6355000Y-5542500D01*
X6355000Y-5432500D02*
X6245000Y-5542500D01*
X6300000Y-5432500D02*
X6300000Y-5542500D01*
X6245000Y-5487500D02*
X6355000Y-5487500D01*
D11*
X6345000Y-5522500D02*
X6345000Y-5452500D01*
X6255000Y-5522500D02*
X6255000Y-5452500D01*
X6345000Y-5452500D02*
G75*
G03*
X6255000Y-5452500I-45000J0D01*
G01*
X6255000Y-5522500D02*
G75*
G03*
X6345000Y-5522500I45000J0D01*
G01*
D18*
X7185000Y-9895000D02*
X7295000Y-10005000D01*
X7295000Y-9895000D02*
X7185000Y-10005000D01*
X7240000Y-9895000D02*
X7240000Y-10005000D01*
X7185000Y-9950000D02*
X7295000Y-9950000D01*
D11*
X7285000Y-9985000D02*
X7285000Y-9915000D01*
X7195000Y-9985000D02*
X7195000Y-9915000D01*
X7285000Y-9915000D02*
G75*
G03*
X7195000Y-9915000I-45000J0D01*
G01*
X7195000Y-9985000D02*
G75*
G03*
X7285000Y-9985000I45000J0D01*
G01*
D18*
X7195000Y-7785000D02*
X7305000Y-7895000D01*
X7305000Y-7785000D02*
X7195000Y-7895000D01*
X7250000Y-7785000D02*
X7250000Y-7895000D01*
X7195000Y-7840000D02*
X7305000Y-7840000D01*
D11*
X7295000Y-7875000D02*
X7295000Y-7805000D01*
X7205000Y-7875000D02*
X7205000Y-7805000D01*
X7295000Y-7805000D02*
G75*
G03*
X7205000Y-7805000I-45000J0D01*
G01*
X7205000Y-7875000D02*
G75*
G03*
X7295000Y-7875000I45000J0D01*
G01*
D18*
X7205000Y-5432500D02*
X7315000Y-5542500D01*
X7315000Y-5432500D02*
X7205000Y-5542500D01*
X7260000Y-5432500D02*
X7260000Y-5542500D01*
X7205000Y-5487500D02*
X7315000Y-5487500D01*
D11*
X7305000Y-5522500D02*
X7305000Y-5452500D01*
X7215000Y-5522500D02*
X7215000Y-5452500D01*
X7305000Y-5452500D02*
G75*
G03*
X7215000Y-5452500I-45000J0D01*
G01*
X7215000Y-5522500D02*
G75*
G03*
X7305000Y-5522500I45000J0D01*
G01*
D19*
X4649000Y-13527000D02*
X4771000Y-13649000D01*
X4771000Y-13527000D02*
X4649000Y-13649000D01*
X4753134Y-13631134D02*
X4753134Y-13544866D01*
X4666866Y-13544866D01*
X4666866Y-13631134D01*
X4753134Y-13631134D01*
X4649000Y-14987000D02*
X4771000Y-15109000D01*
X4771000Y-14987000D02*
X4649000Y-15109000D01*
X4753134Y-15091134D02*
X4753134Y-15004866D01*
X4666866Y-15004866D01*
X4666866Y-15091134D01*
X4753134Y-15091134D01*
X5689000Y-13525000D02*
X5811000Y-13647000D01*
X5811000Y-13525000D02*
X5689000Y-13647000D01*
X5793134Y-13629134D02*
X5793134Y-13542866D01*
X5706866Y-13542866D01*
X5706866Y-13629134D01*
X5793134Y-13629134D01*
X5689000Y-14987000D02*
X5811000Y-15109000D01*
X5811000Y-14987000D02*
X5689000Y-15109000D01*
X5793134Y-15091134D02*
X5793134Y-15004866D01*
X5706866Y-15004866D01*
X5706866Y-15091134D01*
X5793134Y-15091134D01*
X6729000Y-13527000D02*
X6851000Y-13649000D01*
X6851000Y-13527000D02*
X6729000Y-13649000D01*
X6833134Y-13631134D02*
X6833134Y-13544866D01*
X6746866Y-13544866D01*
X6746866Y-13631134D01*
X6833134Y-13631134D01*
X6729000Y-14987000D02*
X6851000Y-15109000D01*
X6851000Y-14987000D02*
X6729000Y-15109000D01*
X6833134Y-15091134D02*
X6833134Y-15004866D01*
X6746866Y-15004866D01*
X6746866Y-15091134D01*
X6833134Y-15091134D01*
D20*
X4639000Y-13207000D02*
X4781000Y-13349000D01*
X4781000Y-13207000D02*
X4639000Y-13349000D01*
X4710000Y-13349000D02*
X4781000Y-13278000D01*
X4710000Y-13207000D01*
X4639000Y-13278000D01*
X4710000Y-13349000D01*
X4639000Y-14667000D02*
X4781000Y-14809000D01*
X4781000Y-14667000D02*
X4639000Y-14809000D01*
X4710000Y-14809000D02*
X4781000Y-14738000D01*
X4710000Y-14667000D01*
X4639000Y-14738000D01*
X4710000Y-14809000D01*
X5679000Y-13205000D02*
X5821000Y-13347000D01*
X5821000Y-13205000D02*
X5679000Y-13347000D01*
X5750000Y-13347000D02*
X5821000Y-13276000D01*
X5750000Y-13205000D01*
X5679000Y-13276000D01*
X5750000Y-13347000D01*
X5679000Y-14667000D02*
X5821000Y-14809000D01*
X5821000Y-14667000D02*
X5679000Y-14809000D01*
X5750000Y-14809000D02*
X5821000Y-14738000D01*
X5750000Y-14667000D01*
X5679000Y-14738000D01*
X5750000Y-14809000D01*
X6719000Y-13207000D02*
X6861000Y-13349000D01*
X6861000Y-13207000D02*
X6719000Y-13349000D01*
X6790000Y-13349000D02*
X6861000Y-13278000D01*
X6790000Y-13207000D01*
X6719000Y-13278000D01*
X6790000Y-13349000D01*
X6719000Y-14667000D02*
X6861000Y-14809000D01*
X6861000Y-14667000D02*
X6719000Y-14809000D01*
X6790000Y-14809000D02*
X6861000Y-14738000D01*
X6790000Y-14667000D01*
X6719000Y-14738000D01*
X6790000Y-14809000D01*
D21*
X4710000Y-12376500D02*
X4710000Y-12519500D01*
X4638500Y-12448000D02*
X4781500Y-12448000D01*
X4781500Y-12448000D02*
G75*
G03*
X4781500Y-12448000I-71500J0D01*
G01*
X4710000Y-13836500D02*
X4710000Y-13979500D01*
X4638500Y-13908000D02*
X4781500Y-13908000D01*
X4781500Y-13908000D02*
G75*
G03*
X4781500Y-13908000I-71500J0D01*
G01*
X5750000Y-12374500D02*
X5750000Y-12517500D01*
X5678500Y-12446000D02*
X5821500Y-12446000D01*
X5821500Y-12446000D02*
G75*
G03*
X5821500Y-12446000I-71500J0D01*
G01*
X5750000Y-13836500D02*
X5750000Y-13979500D01*
X5678500Y-13908000D02*
X5821500Y-13908000D01*
X5821500Y-13908000D02*
G75*
G03*
X5821500Y-13908000I-71500J0D01*
G01*
X6790000Y-12376500D02*
X6790000Y-12519500D01*
X6718500Y-12448000D02*
X6861500Y-12448000D01*
X6861500Y-12448000D02*
G75*
G03*
X6861500Y-12448000I-71500J0D01*
G01*
X6790000Y-13836500D02*
X6790000Y-13979500D01*
X6718500Y-13908000D02*
X6861500Y-13908000D01*
X6861500Y-13908000D02*
G75*
G03*
X6861500Y-13908000I-71500J0D01*
G01*
D22*
X5841067Y-5626067D02*
X5841067Y-5413933D01*
X5628933Y-5413933D01*
X5628933Y-5626067D01*
X5841067Y-5626067D01*
X5885000Y-5520000D02*
G75*
G03*
X5885000Y-5520000I-150000J0D01*
G01*
X5841067Y-11706067D02*
X5841067Y-11493933D01*
X5628933Y-11493933D01*
X5628933Y-11706067D01*
X5841067Y-11706067D01*
X5885000Y-11600000D02*
G75*
G03*
X5885000Y-11600000I-150000J0D01*
G01*
X9841067Y-5621067D02*
X9841067Y-5408933D01*
X9628933Y-5408933D01*
X9628933Y-5621067D01*
X9841067Y-5621067D01*
X9885000Y-5515000D02*
G75*
G03*
X9885000Y-5515000I-150000J0D01*
G01*
X9841067Y-11701067D02*
X9841067Y-11488933D01*
X9628933Y-11488933D01*
X9628933Y-11701067D01*
X9841067Y-11701067D01*
X9885000Y-11595000D02*
G75*
G03*
X9885000Y-11595000I-150000J0D01*
G01*
D11*
X4102619Y-15505476D02*
X4102619Y-15305476D01*
X4150238Y-15305476D01*
X4178809Y-15315000D01*
X4197857Y-15334048D01*
X4207381Y-15353095D01*
X4216905Y-15391190D01*
X4216905Y-15419762D01*
X4207381Y-15457857D01*
X4197857Y-15476905D01*
X4178809Y-15495952D01*
X4150238Y-15505476D01*
X4102619Y-15505476D01*
X4302619Y-15505476D02*
X4302619Y-15372143D01*
X4302619Y-15410238D02*
X4312143Y-15391190D01*
X4321667Y-15381667D01*
X4340714Y-15372143D01*
X4359762Y-15372143D01*
X4426429Y-15505476D02*
X4426429Y-15372143D01*
X4426429Y-15305476D02*
X4416905Y-15315000D01*
X4426429Y-15324524D01*
X4435952Y-15315000D01*
X4426429Y-15305476D01*
X4426429Y-15324524D01*
X4550238Y-15505476D02*
X4531190Y-15495952D01*
X4521667Y-15476905D01*
X4521667Y-15305476D01*
X4655000Y-15505476D02*
X4635952Y-15495952D01*
X4626429Y-15476905D01*
X4626429Y-15305476D01*
X4883571Y-15505476D02*
X4883571Y-15305476D01*
X4950238Y-15448333D01*
X5016905Y-15305476D01*
X5016905Y-15505476D01*
X5197857Y-15505476D02*
X5197857Y-15400714D01*
X5188333Y-15381667D01*
X5169286Y-15372143D01*
X5131190Y-15372143D01*
X5112143Y-15381667D01*
X5197857Y-15495952D02*
X5178810Y-15505476D01*
X5131190Y-15505476D01*
X5112143Y-15495952D01*
X5102619Y-15476905D01*
X5102619Y-15457857D01*
X5112143Y-15438809D01*
X5131190Y-15429286D01*
X5178810Y-15429286D01*
X5197857Y-15419762D01*
X5293095Y-15372143D02*
X5293095Y-15572143D01*
X5293095Y-15381667D02*
X5312143Y-15372143D01*
X5350238Y-15372143D01*
X5369286Y-15381667D01*
X5378810Y-15391190D01*
X5388333Y-15410238D01*
X5388333Y-15467381D01*
X5378810Y-15486428D01*
X5369286Y-15495952D01*
X5350238Y-15505476D01*
X5312143Y-15505476D01*
X5293095Y-15495952D01*
X5474048Y-15486428D02*
X5483571Y-15495952D01*
X5474048Y-15505476D01*
X5464524Y-15495952D01*
X5474048Y-15486428D01*
X5474048Y-15505476D01*
X5474048Y-15381667D02*
X5483571Y-15391190D01*
X5474048Y-15400714D01*
X5464524Y-15391190D01*
X5474048Y-15381667D01*
X5474048Y-15400714D01*
D12*
X3805000Y-15815000D02*
X3845000Y-15855000D01*
X3845000Y-15815000D02*
X3805000Y-15855000D01*
D11*
X4140714Y-15725476D02*
X4159762Y-15725476D01*
X4178809Y-15735000D01*
X4188333Y-15744524D01*
X4197857Y-15763571D01*
X4207381Y-15801667D01*
X4207381Y-15849286D01*
X4197857Y-15887381D01*
X4188333Y-15906428D01*
X4178809Y-15915952D01*
X4159762Y-15925476D01*
X4140714Y-15925476D01*
X4121667Y-15915952D01*
X4112143Y-15906428D01*
X4102619Y-15887381D01*
X4093095Y-15849286D01*
X4093095Y-15801667D01*
X4102619Y-15763571D01*
X4112143Y-15744524D01*
X4121667Y-15735000D01*
X4140714Y-15725476D01*
X4293095Y-15906428D02*
X4302619Y-15915952D01*
X4293095Y-15925476D01*
X4283571Y-15915952D01*
X4293095Y-15906428D01*
X4293095Y-15925476D01*
X4474048Y-15792143D02*
X4474048Y-15925476D01*
X4426429Y-15715952D02*
X4378810Y-15858809D01*
X4502619Y-15858809D01*
X4616905Y-15725476D02*
X4635952Y-15725476D01*
X4655000Y-15735000D01*
X4664524Y-15744524D01*
X4674048Y-15763571D01*
X4683571Y-15801667D01*
X4683571Y-15849286D01*
X4674048Y-15887381D01*
X4664524Y-15906428D01*
X4655000Y-15915952D01*
X4635952Y-15925476D01*
X4616905Y-15925476D01*
X4597857Y-15915952D01*
X4588333Y-15906428D01*
X4578810Y-15887381D01*
X4569286Y-15849286D01*
X4569286Y-15801667D01*
X4578810Y-15763571D01*
X4588333Y-15744524D01*
X4597857Y-15735000D01*
X4616905Y-15725476D01*
X4807381Y-15725476D02*
X4826429Y-15725476D01*
X4845476Y-15735000D01*
X4855000Y-15744524D01*
X4864524Y-15763571D01*
X4874048Y-15801667D01*
X4874048Y-15849286D01*
X4864524Y-15887381D01*
X4855000Y-15906428D01*
X4845476Y-15915952D01*
X4826429Y-15925476D01*
X4807381Y-15925476D01*
X4788333Y-15915952D01*
X4778810Y-15906428D01*
X4769286Y-15887381D01*
X4759762Y-15849286D01*
X4759762Y-15801667D01*
X4769286Y-15763571D01*
X4778810Y-15744524D01*
X4788333Y-15735000D01*
X4807381Y-15725476D01*
X4959762Y-15925476D02*
X4959762Y-15792143D01*
X4959762Y-15811190D02*
X4969286Y-15801667D01*
X4988333Y-15792143D01*
X5016905Y-15792143D01*
X5035952Y-15801667D01*
X5045476Y-15820714D01*
X5045476Y-15925476D01*
X5045476Y-15820714D02*
X5055000Y-15801667D01*
X5074048Y-15792143D01*
X5102619Y-15792143D01*
X5121667Y-15801667D01*
X5131190Y-15820714D01*
X5131190Y-15925476D01*
X5226429Y-15925476D02*
X5226429Y-15792143D01*
X5226429Y-15811190D02*
X5235952Y-15801667D01*
X5255000Y-15792143D01*
X5283571Y-15792143D01*
X5302619Y-15801667D01*
X5312143Y-15820714D01*
X5312143Y-15925476D01*
X5312143Y-15820714D02*
X5321667Y-15801667D01*
X5340714Y-15792143D01*
X5369286Y-15792143D01*
X5388333Y-15801667D01*
X5397857Y-15820714D01*
X5397857Y-15925476D01*
X5788333Y-15715952D02*
X5616905Y-15973095D01*
X6045476Y-15725476D02*
X6064524Y-15725476D01*
X6083571Y-15735000D01*
X6093095Y-15744524D01*
X6102619Y-15763571D01*
X6112143Y-15801667D01*
X6112143Y-15849286D01*
X6102619Y-15887381D01*
X6093095Y-15906428D01*
X6083571Y-15915952D01*
X6064524Y-15925476D01*
X6045476Y-15925476D01*
X6026428Y-15915952D01*
X6016905Y-15906428D01*
X6007381Y-15887381D01*
X5997857Y-15849286D01*
X5997857Y-15801667D01*
X6007381Y-15763571D01*
X6016905Y-15744524D01*
X6026428Y-15735000D01*
X6045476Y-15725476D01*
X6197857Y-15906428D02*
X6207381Y-15915952D01*
X6197857Y-15925476D01*
X6188333Y-15915952D01*
X6197857Y-15906428D01*
X6197857Y-15925476D01*
X6331190Y-15725476D02*
X6350238Y-15725476D01*
X6369286Y-15735000D01*
X6378809Y-15744524D01*
X6388333Y-15763571D01*
X6397857Y-15801667D01*
X6397857Y-15849286D01*
X6388333Y-15887381D01*
X6378809Y-15906428D01*
X6369286Y-15915952D01*
X6350238Y-15925476D01*
X6331190Y-15925476D01*
X6312143Y-15915952D01*
X6302619Y-15906428D01*
X6293095Y-15887381D01*
X6283571Y-15849286D01*
X6283571Y-15801667D01*
X6293095Y-15763571D01*
X6302619Y-15744524D01*
X6312143Y-15735000D01*
X6331190Y-15725476D01*
X6588333Y-15925476D02*
X6474048Y-15925476D01*
X6531190Y-15925476D02*
X6531190Y-15725476D01*
X6512143Y-15754048D01*
X6493095Y-15773095D01*
X6474048Y-15782619D01*
X6769286Y-15725476D02*
X6674048Y-15725476D01*
X6664524Y-15820714D01*
X6674048Y-15811190D01*
X6693095Y-15801667D01*
X6740714Y-15801667D01*
X6759762Y-15811190D01*
X6769286Y-15820714D01*
X6778809Y-15839762D01*
X6778809Y-15887381D01*
X6769286Y-15906428D01*
X6759762Y-15915952D01*
X6740714Y-15925476D01*
X6693095Y-15925476D01*
X6674048Y-15915952D01*
X6664524Y-15906428D01*
X6845476Y-15725476D02*
X6978809Y-15725476D01*
X6893095Y-15925476D01*
X7045476Y-15725476D02*
X7045476Y-15763571D01*
X7121667Y-15725476D02*
X7121667Y-15763571D01*
X7416905Y-16001667D02*
X7407381Y-15992143D01*
X7388333Y-15963571D01*
X7378809Y-15944524D01*
X7369286Y-15915952D01*
X7359762Y-15868333D01*
X7359762Y-15830238D01*
X7369286Y-15782619D01*
X7378809Y-15754048D01*
X7388333Y-15735000D01*
X7407381Y-15706428D01*
X7416905Y-15696905D01*
X7483571Y-15744524D02*
X7493095Y-15735000D01*
X7512143Y-15725476D01*
X7559762Y-15725476D01*
X7578809Y-15735000D01*
X7588333Y-15744524D01*
X7597857Y-15763571D01*
X7597857Y-15782619D01*
X7588333Y-15811190D01*
X7474048Y-15925476D01*
X7597857Y-15925476D01*
X7693095Y-15925476D02*
X7731190Y-15925476D01*
X7750238Y-15915952D01*
X7759762Y-15906428D01*
X7778809Y-15877857D01*
X7788333Y-15839762D01*
X7788333Y-15763571D01*
X7778809Y-15744524D01*
X7769286Y-15735000D01*
X7750238Y-15725476D01*
X7712143Y-15725476D01*
X7693095Y-15735000D01*
X7683571Y-15744524D01*
X7674048Y-15763571D01*
X7674048Y-15811190D01*
X7683571Y-15830238D01*
X7693095Y-15839762D01*
X7712143Y-15849286D01*
X7750238Y-15849286D01*
X7769286Y-15839762D01*
X7778809Y-15830238D01*
X7788333Y-15811190D01*
X8026428Y-15925476D02*
X8026428Y-15725476D01*
X8112143Y-15925476D02*
X8112143Y-15820714D01*
X8102619Y-15801667D01*
X8083571Y-15792143D01*
X8055000Y-15792143D01*
X8035952Y-15801667D01*
X8026428Y-15811190D01*
X8235952Y-15925476D02*
X8216905Y-15915952D01*
X8207381Y-15906428D01*
X8197857Y-15887381D01*
X8197857Y-15830238D01*
X8207381Y-15811190D01*
X8216905Y-15801667D01*
X8235952Y-15792143D01*
X8264524Y-15792143D01*
X8283571Y-15801667D01*
X8293095Y-15811190D01*
X8302619Y-15830238D01*
X8302619Y-15887381D01*
X8293095Y-15906428D01*
X8283571Y-15915952D01*
X8264524Y-15925476D01*
X8235952Y-15925476D01*
X8416905Y-15925476D02*
X8397857Y-15915952D01*
X8388333Y-15896905D01*
X8388333Y-15725476D01*
X8569286Y-15915952D02*
X8550238Y-15925476D01*
X8512143Y-15925476D01*
X8493095Y-15915952D01*
X8483571Y-15896905D01*
X8483571Y-15820714D01*
X8493095Y-15801667D01*
X8512143Y-15792143D01*
X8550238Y-15792143D01*
X8569286Y-15801667D01*
X8578810Y-15820714D01*
X8578810Y-15839762D01*
X8483571Y-15858809D01*
X8655000Y-15915952D02*
X8674048Y-15925476D01*
X8712143Y-15925476D01*
X8731190Y-15915952D01*
X8740714Y-15896905D01*
X8740714Y-15887381D01*
X8731190Y-15868333D01*
X8712143Y-15858809D01*
X8683571Y-15858809D01*
X8664524Y-15849286D01*
X8655000Y-15830238D01*
X8655000Y-15820714D01*
X8664524Y-15801667D01*
X8683571Y-15792143D01*
X8712143Y-15792143D01*
X8731190Y-15801667D01*
X8807381Y-16001667D02*
X8816905Y-15992143D01*
X8835952Y-15963571D01*
X8845476Y-15944524D01*
X8855000Y-15915952D01*
X8864524Y-15868333D01*
X8864524Y-15830238D01*
X8855000Y-15782619D01*
X8845476Y-15754048D01*
X8835952Y-15735000D01*
X8816905Y-15706428D01*
X8807381Y-15696905D01*
D13*
X3845000Y-16099000D02*
G75*
G03*
X3845000Y-16099000I-30000J0D01*
G01*
D11*
X4140714Y-15989476D02*
X4159762Y-15989476D01*
X4178809Y-15999000D01*
X4188333Y-16008524D01*
X4197857Y-16027571D01*
X4207381Y-16065667D01*
X4207381Y-16113286D01*
X4197857Y-16151381D01*
X4188333Y-16170428D01*
X4178809Y-16179952D01*
X4159762Y-16189476D01*
X4140714Y-16189476D01*
X4121667Y-16179952D01*
X4112143Y-16170428D01*
X4102619Y-16151381D01*
X4093095Y-16113286D01*
X4093095Y-16065667D01*
X4102619Y-16027571D01*
X4112143Y-16008524D01*
X4121667Y-15999000D01*
X4140714Y-15989476D01*
X4293095Y-16170428D02*
X4302619Y-16179952D01*
X4293095Y-16189476D01*
X4283571Y-16179952D01*
X4293095Y-16170428D01*
X4293095Y-16189476D01*
X4474048Y-15989476D02*
X4435952Y-15989476D01*
X4416905Y-15999000D01*
X4407381Y-16008524D01*
X4388333Y-16037095D01*
X4378810Y-16075190D01*
X4378810Y-16151381D01*
X4388333Y-16170428D01*
X4397857Y-16179952D01*
X4416905Y-16189476D01*
X4455000Y-16189476D01*
X4474048Y-16179952D01*
X4483571Y-16170428D01*
X4493095Y-16151381D01*
X4493095Y-16103762D01*
X4483571Y-16084714D01*
X4474048Y-16075190D01*
X4455000Y-16065667D01*
X4416905Y-16065667D01*
X4397857Y-16075190D01*
X4388333Y-16084714D01*
X4378810Y-16103762D01*
X4616905Y-15989476D02*
X4635952Y-15989476D01*
X4655000Y-15999000D01*
X4664524Y-16008524D01*
X4674048Y-16027571D01*
X4683571Y-16065667D01*
X4683571Y-16113286D01*
X4674048Y-16151381D01*
X4664524Y-16170428D01*
X4655000Y-16179952D01*
X4635952Y-16189476D01*
X4616905Y-16189476D01*
X4597857Y-16179952D01*
X4588333Y-16170428D01*
X4578810Y-16151381D01*
X4569286Y-16113286D01*
X4569286Y-16065667D01*
X4578810Y-16027571D01*
X4588333Y-16008524D01*
X4597857Y-15999000D01*
X4616905Y-15989476D01*
X4807381Y-15989476D02*
X4826429Y-15989476D01*
X4845476Y-15999000D01*
X4855000Y-16008524D01*
X4864524Y-16027571D01*
X4874048Y-16065667D01*
X4874048Y-16113286D01*
X4864524Y-16151381D01*
X4855000Y-16170428D01*
X4845476Y-16179952D01*
X4826429Y-16189476D01*
X4807381Y-16189476D01*
X4788333Y-16179952D01*
X4778810Y-16170428D01*
X4769286Y-16151381D01*
X4759762Y-16113286D01*
X4759762Y-16065667D01*
X4769286Y-16027571D01*
X4778810Y-16008524D01*
X4788333Y-15999000D01*
X4807381Y-15989476D01*
X4959762Y-16189476D02*
X4959762Y-16056143D01*
X4959762Y-16075190D02*
X4969286Y-16065667D01*
X4988333Y-16056143D01*
X5016905Y-16056143D01*
X5035952Y-16065667D01*
X5045476Y-16084714D01*
X5045476Y-16189476D01*
X5045476Y-16084714D02*
X5055000Y-16065667D01*
X5074048Y-16056143D01*
X5102619Y-16056143D01*
X5121667Y-16065667D01*
X5131190Y-16084714D01*
X5131190Y-16189476D01*
X5226429Y-16189476D02*
X5226429Y-16056143D01*
X5226429Y-16075190D02*
X5235952Y-16065667D01*
X5255000Y-16056143D01*
X5283571Y-16056143D01*
X5302619Y-16065667D01*
X5312143Y-16084714D01*
X5312143Y-16189476D01*
X5312143Y-16084714D02*
X5321667Y-16065667D01*
X5340714Y-16056143D01*
X5369286Y-16056143D01*
X5388333Y-16065667D01*
X5397857Y-16084714D01*
X5397857Y-16189476D01*
X5788333Y-15979952D02*
X5616905Y-16237095D01*
X6045476Y-15989476D02*
X6064524Y-15989476D01*
X6083571Y-15999000D01*
X6093095Y-16008524D01*
X6102619Y-16027571D01*
X6112143Y-16065667D01*
X6112143Y-16113286D01*
X6102619Y-16151381D01*
X6093095Y-16170428D01*
X6083571Y-16179952D01*
X6064524Y-16189476D01*
X6045476Y-16189476D01*
X6026428Y-16179952D01*
X6016905Y-16170428D01*
X6007381Y-16151381D01*
X5997857Y-16113286D01*
X5997857Y-16065667D01*
X6007381Y-16027571D01*
X6016905Y-16008524D01*
X6026428Y-15999000D01*
X6045476Y-15989476D01*
X6197857Y-16170428D02*
X6207381Y-16179952D01*
X6197857Y-16189476D01*
X6188333Y-16179952D01*
X6197857Y-16170428D01*
X6197857Y-16189476D01*
X6331190Y-15989476D02*
X6350238Y-15989476D01*
X6369286Y-15999000D01*
X6378809Y-16008524D01*
X6388333Y-16027571D01*
X6397857Y-16065667D01*
X6397857Y-16113286D01*
X6388333Y-16151381D01*
X6378809Y-16170428D01*
X6369286Y-16179952D01*
X6350238Y-16189476D01*
X6331190Y-16189476D01*
X6312143Y-16179952D01*
X6302619Y-16170428D01*
X6293095Y-16151381D01*
X6283571Y-16113286D01*
X6283571Y-16065667D01*
X6293095Y-16027571D01*
X6302619Y-16008524D01*
X6312143Y-15999000D01*
X6331190Y-15989476D01*
X6474048Y-16008524D02*
X6483571Y-15999000D01*
X6502619Y-15989476D01*
X6550238Y-15989476D01*
X6569286Y-15999000D01*
X6578809Y-16008524D01*
X6588333Y-16027571D01*
X6588333Y-16046619D01*
X6578809Y-16075190D01*
X6464524Y-16189476D01*
X6588333Y-16189476D01*
X6655000Y-15989476D02*
X6778809Y-15989476D01*
X6712143Y-16065667D01*
X6740714Y-16065667D01*
X6759762Y-16075190D01*
X6769286Y-16084714D01*
X6778809Y-16103762D01*
X6778809Y-16151381D01*
X6769286Y-16170428D01*
X6759762Y-16179952D01*
X6740714Y-16189476D01*
X6683571Y-16189476D01*
X6664524Y-16179952D01*
X6655000Y-16170428D01*
X6950238Y-15989476D02*
X6912143Y-15989476D01*
X6893095Y-15999000D01*
X6883571Y-16008524D01*
X6864524Y-16037095D01*
X6855000Y-16075190D01*
X6855000Y-16151381D01*
X6864524Y-16170428D01*
X6874048Y-16179952D01*
X6893095Y-16189476D01*
X6931190Y-16189476D01*
X6950238Y-16179952D01*
X6959762Y-16170428D01*
X6969286Y-16151381D01*
X6969286Y-16103762D01*
X6959762Y-16084714D01*
X6950238Y-16075190D01*
X6931190Y-16065667D01*
X6893095Y-16065667D01*
X6874048Y-16075190D01*
X6864524Y-16084714D01*
X6855000Y-16103762D01*
X7045476Y-15989476D02*
X7045476Y-16027571D01*
X7121667Y-15989476D02*
X7121667Y-16027571D01*
X7416905Y-16265667D02*
X7407381Y-16256143D01*
X7388333Y-16227571D01*
X7378809Y-16208524D01*
X7369286Y-16179952D01*
X7359762Y-16132333D01*
X7359762Y-16094238D01*
X7369286Y-16046619D01*
X7378809Y-16018048D01*
X7388333Y-15999000D01*
X7407381Y-15970428D01*
X7416905Y-15960905D01*
X7597857Y-16189476D02*
X7483571Y-16189476D01*
X7540714Y-16189476D02*
X7540714Y-15989476D01*
X7521667Y-16018048D01*
X7502619Y-16037095D01*
X7483571Y-16046619D01*
X7769286Y-16056143D02*
X7769286Y-16189476D01*
X7721667Y-15979952D02*
X7674048Y-16122809D01*
X7797857Y-16122809D01*
X7912143Y-15989476D02*
X7931190Y-15989476D01*
X7950238Y-15999000D01*
X7959762Y-16008524D01*
X7969286Y-16027571D01*
X7978809Y-16065667D01*
X7978809Y-16113286D01*
X7969286Y-16151381D01*
X7959762Y-16170428D01*
X7950238Y-16179952D01*
X7931190Y-16189476D01*
X7912143Y-16189476D01*
X7893095Y-16179952D01*
X7883571Y-16170428D01*
X7874048Y-16151381D01*
X7864524Y-16113286D01*
X7864524Y-16065667D01*
X7874048Y-16027571D01*
X7883571Y-16008524D01*
X7893095Y-15999000D01*
X7912143Y-15989476D01*
X8216905Y-16189476D02*
X8216905Y-15989476D01*
X8302619Y-16189476D02*
X8302619Y-16084714D01*
X8293095Y-16065667D01*
X8274048Y-16056143D01*
X8245476Y-16056143D01*
X8226428Y-16065667D01*
X8216905Y-16075190D01*
X8426429Y-16189476D02*
X8407381Y-16179952D01*
X8397857Y-16170428D01*
X8388333Y-16151381D01*
X8388333Y-16094238D01*
X8397857Y-16075190D01*
X8407381Y-16065667D01*
X8426429Y-16056143D01*
X8455000Y-16056143D01*
X8474048Y-16065667D01*
X8483571Y-16075190D01*
X8493095Y-16094238D01*
X8493095Y-16151381D01*
X8483571Y-16170428D01*
X8474048Y-16179952D01*
X8455000Y-16189476D01*
X8426429Y-16189476D01*
X8607381Y-16189476D02*
X8588333Y-16179952D01*
X8578810Y-16160905D01*
X8578810Y-15989476D01*
X8759762Y-16179952D02*
X8740714Y-16189476D01*
X8702619Y-16189476D01*
X8683571Y-16179952D01*
X8674048Y-16160905D01*
X8674048Y-16084714D01*
X8683571Y-16065667D01*
X8702619Y-16056143D01*
X8740714Y-16056143D01*
X8759762Y-16065667D01*
X8769286Y-16084714D01*
X8769286Y-16103762D01*
X8674048Y-16122809D01*
X8845476Y-16179952D02*
X8864524Y-16189476D01*
X8902619Y-16189476D01*
X8921667Y-16179952D01*
X8931190Y-16160905D01*
X8931190Y-16151381D01*
X8921667Y-16132333D01*
X8902619Y-16122809D01*
X8874048Y-16122809D01*
X8855000Y-16113286D01*
X8845476Y-16094238D01*
X8845476Y-16084714D01*
X8855000Y-16065667D01*
X8874048Y-16056143D01*
X8902619Y-16056143D01*
X8921667Y-16065667D01*
X8997857Y-16265667D02*
X9007381Y-16256143D01*
X9026429Y-16227571D01*
X9035952Y-16208524D01*
X9045476Y-16179952D01*
X9055000Y-16132333D01*
X9055000Y-16094238D01*
X9045476Y-16046619D01*
X9035952Y-16018048D01*
X9026429Y-15999000D01*
X9007381Y-15970428D01*
X8997857Y-15960905D01*
D14*
X3807500Y-16325500D02*
X3807500Y-16400500D01*
X3770000Y-16363000D02*
X3845000Y-16363000D01*
D11*
X4140714Y-16253476D02*
X4159762Y-16253476D01*
X4178809Y-16263000D01*
X4188333Y-16272524D01*
X4197857Y-16291571D01*
X4207381Y-16329667D01*
X4207381Y-16377286D01*
X4197857Y-16415381D01*
X4188333Y-16434428D01*
X4178809Y-16443952D01*
X4159762Y-16453476D01*
X4140714Y-16453476D01*
X4121667Y-16443952D01*
X4112143Y-16434428D01*
X4102619Y-16415381D01*
X4093095Y-16377286D01*
X4093095Y-16329667D01*
X4102619Y-16291571D01*
X4112143Y-16272524D01*
X4121667Y-16263000D01*
X4140714Y-16253476D01*
X4293095Y-16434428D02*
X4302619Y-16443952D01*
X4293095Y-16453476D01*
X4283571Y-16443952D01*
X4293095Y-16434428D01*
X4293095Y-16453476D01*
X4369286Y-16253476D02*
X4502619Y-16253476D01*
X4416905Y-16453476D01*
X4674048Y-16253476D02*
X4578810Y-16253476D01*
X4569286Y-16348714D01*
X4578810Y-16339190D01*
X4597857Y-16329667D01*
X4645476Y-16329667D01*
X4664524Y-16339190D01*
X4674048Y-16348714D01*
X4683571Y-16367762D01*
X4683571Y-16415381D01*
X4674048Y-16434428D01*
X4664524Y-16443952D01*
X4645476Y-16453476D01*
X4597857Y-16453476D01*
X4578810Y-16443952D01*
X4569286Y-16434428D01*
X4807381Y-16253476D02*
X4826429Y-16253476D01*
X4845476Y-16263000D01*
X4855000Y-16272524D01*
X4864524Y-16291571D01*
X4874048Y-16329667D01*
X4874048Y-16377286D01*
X4864524Y-16415381D01*
X4855000Y-16434428D01*
X4845476Y-16443952D01*
X4826429Y-16453476D01*
X4807381Y-16453476D01*
X4788333Y-16443952D01*
X4778810Y-16434428D01*
X4769286Y-16415381D01*
X4759762Y-16377286D01*
X4759762Y-16329667D01*
X4769286Y-16291571D01*
X4778810Y-16272524D01*
X4788333Y-16263000D01*
X4807381Y-16253476D01*
X4959762Y-16453476D02*
X4959762Y-16320143D01*
X4959762Y-16339190D02*
X4969286Y-16329667D01*
X4988333Y-16320143D01*
X5016905Y-16320143D01*
X5035952Y-16329667D01*
X5045476Y-16348714D01*
X5045476Y-16453476D01*
X5045476Y-16348714D02*
X5055000Y-16329667D01*
X5074048Y-16320143D01*
X5102619Y-16320143D01*
X5121667Y-16329667D01*
X5131190Y-16348714D01*
X5131190Y-16453476D01*
X5226429Y-16453476D02*
X5226429Y-16320143D01*
X5226429Y-16339190D02*
X5235952Y-16329667D01*
X5255000Y-16320143D01*
X5283571Y-16320143D01*
X5302619Y-16329667D01*
X5312143Y-16348714D01*
X5312143Y-16453476D01*
X5312143Y-16348714D02*
X5321667Y-16329667D01*
X5340714Y-16320143D01*
X5369286Y-16320143D01*
X5388333Y-16329667D01*
X5397857Y-16348714D01*
X5397857Y-16453476D01*
X5788333Y-16243952D02*
X5616905Y-16501095D01*
X6045476Y-16253476D02*
X6064524Y-16253476D01*
X6083571Y-16263000D01*
X6093095Y-16272524D01*
X6102619Y-16291571D01*
X6112143Y-16329667D01*
X6112143Y-16377286D01*
X6102619Y-16415381D01*
X6093095Y-16434428D01*
X6083571Y-16443952D01*
X6064524Y-16453476D01*
X6045476Y-16453476D01*
X6026428Y-16443952D01*
X6016905Y-16434428D01*
X6007381Y-16415381D01*
X5997857Y-16377286D01*
X5997857Y-16329667D01*
X6007381Y-16291571D01*
X6016905Y-16272524D01*
X6026428Y-16263000D01*
X6045476Y-16253476D01*
X6197857Y-16434428D02*
X6207381Y-16443952D01*
X6197857Y-16453476D01*
X6188333Y-16443952D01*
X6197857Y-16434428D01*
X6197857Y-16453476D01*
X6331190Y-16253476D02*
X6350238Y-16253476D01*
X6369286Y-16263000D01*
X6378809Y-16272524D01*
X6388333Y-16291571D01*
X6397857Y-16329667D01*
X6397857Y-16377286D01*
X6388333Y-16415381D01*
X6378809Y-16434428D01*
X6369286Y-16443952D01*
X6350238Y-16453476D01*
X6331190Y-16453476D01*
X6312143Y-16443952D01*
X6302619Y-16434428D01*
X6293095Y-16415381D01*
X6283571Y-16377286D01*
X6283571Y-16329667D01*
X6293095Y-16291571D01*
X6302619Y-16272524D01*
X6312143Y-16263000D01*
X6331190Y-16253476D01*
X6474048Y-16272524D02*
X6483571Y-16263000D01*
X6502619Y-16253476D01*
X6550238Y-16253476D01*
X6569286Y-16263000D01*
X6578809Y-16272524D01*
X6588333Y-16291571D01*
X6588333Y-16310619D01*
X6578809Y-16339190D01*
X6464524Y-16453476D01*
X6588333Y-16453476D01*
X6683571Y-16453476D02*
X6721667Y-16453476D01*
X6740714Y-16443952D01*
X6750238Y-16434428D01*
X6769286Y-16405857D01*
X6778809Y-16367762D01*
X6778809Y-16291571D01*
X6769286Y-16272524D01*
X6759762Y-16263000D01*
X6740714Y-16253476D01*
X6702619Y-16253476D01*
X6683571Y-16263000D01*
X6674048Y-16272524D01*
X6664524Y-16291571D01*
X6664524Y-16339190D01*
X6674048Y-16358238D01*
X6683571Y-16367762D01*
X6702619Y-16377286D01*
X6740714Y-16377286D01*
X6759762Y-16367762D01*
X6769286Y-16358238D01*
X6778809Y-16339190D01*
X6959762Y-16253476D02*
X6864524Y-16253476D01*
X6855000Y-16348714D01*
X6864524Y-16339190D01*
X6883571Y-16329667D01*
X6931190Y-16329667D01*
X6950238Y-16339190D01*
X6959762Y-16348714D01*
X6969286Y-16367762D01*
X6969286Y-16415381D01*
X6959762Y-16434428D01*
X6950238Y-16443952D01*
X6931190Y-16453476D01*
X6883571Y-16453476D01*
X6864524Y-16443952D01*
X6855000Y-16434428D01*
X7045476Y-16253476D02*
X7045476Y-16291571D01*
X7121667Y-16253476D02*
X7121667Y-16291571D01*
X7416905Y-16529667D02*
X7407381Y-16520143D01*
X7388333Y-16491571D01*
X7378809Y-16472524D01*
X7369286Y-16443952D01*
X7359762Y-16396333D01*
X7359762Y-16358238D01*
X7369286Y-16310619D01*
X7378809Y-16282048D01*
X7388333Y-16263000D01*
X7407381Y-16234428D01*
X7416905Y-16224905D01*
X7578809Y-16253476D02*
X7540714Y-16253476D01*
X7521667Y-16263000D01*
X7512143Y-16272524D01*
X7493095Y-16301095D01*
X7483571Y-16339190D01*
X7483571Y-16415381D01*
X7493095Y-16434428D01*
X7502619Y-16443952D01*
X7521667Y-16453476D01*
X7559762Y-16453476D01*
X7578809Y-16443952D01*
X7588333Y-16434428D01*
X7597857Y-16415381D01*
X7597857Y-16367762D01*
X7588333Y-16348714D01*
X7578809Y-16339190D01*
X7559762Y-16329667D01*
X7521667Y-16329667D01*
X7502619Y-16339190D01*
X7493095Y-16348714D01*
X7483571Y-16367762D01*
X7835952Y-16453476D02*
X7835952Y-16253476D01*
X7921667Y-16453476D02*
X7921667Y-16348714D01*
X7912143Y-16329667D01*
X7893095Y-16320143D01*
X7864524Y-16320143D01*
X7845476Y-16329667D01*
X7835952Y-16339190D01*
X8045476Y-16453476D02*
X8026428Y-16443952D01*
X8016905Y-16434428D01*
X8007381Y-16415381D01*
X8007381Y-16358238D01*
X8016905Y-16339190D01*
X8026428Y-16329667D01*
X8045476Y-16320143D01*
X8074048Y-16320143D01*
X8093095Y-16329667D01*
X8102619Y-16339190D01*
X8112143Y-16358238D01*
X8112143Y-16415381D01*
X8102619Y-16434428D01*
X8093095Y-16443952D01*
X8074048Y-16453476D01*
X8045476Y-16453476D01*
X8226428Y-16453476D02*
X8207381Y-16443952D01*
X8197857Y-16424905D01*
X8197857Y-16253476D01*
X8378809Y-16443952D02*
X8359762Y-16453476D01*
X8321667Y-16453476D01*
X8302619Y-16443952D01*
X8293095Y-16424905D01*
X8293095Y-16348714D01*
X8302619Y-16329667D01*
X8321667Y-16320143D01*
X8359762Y-16320143D01*
X8378809Y-16329667D01*
X8388333Y-16348714D01*
X8388333Y-16367762D01*
X8293095Y-16386809D01*
X8464524Y-16443952D02*
X8483571Y-16453476D01*
X8521667Y-16453476D01*
X8540714Y-16443952D01*
X8550238Y-16424905D01*
X8550238Y-16415381D01*
X8540714Y-16396333D01*
X8521667Y-16386809D01*
X8493095Y-16386809D01*
X8474048Y-16377286D01*
X8464524Y-16358238D01*
X8464524Y-16348714D01*
X8474048Y-16329667D01*
X8493095Y-16320143D01*
X8521667Y-16320143D01*
X8540714Y-16329667D01*
X8616905Y-16529667D02*
X8626429Y-16520143D01*
X8645476Y-16491571D01*
X8655000Y-16472524D01*
X8664524Y-16443952D01*
X8674048Y-16396333D01*
X8674048Y-16358238D01*
X8664524Y-16310619D01*
X8655000Y-16282048D01*
X8645476Y-16263000D01*
X8626429Y-16234428D01*
X8616905Y-16224905D01*
D15*
X3833284Y-16655284D02*
X3833284Y-16598715D01*
X3776715Y-16598715D01*
X3776715Y-16655284D01*
X3833284Y-16655284D01*
D11*
X4140714Y-16517476D02*
X4159762Y-16517476D01*
X4178809Y-16527000D01*
X4188333Y-16536524D01*
X4197857Y-16555571D01*
X4207381Y-16593667D01*
X4207381Y-16641286D01*
X4197857Y-16679381D01*
X4188333Y-16698428D01*
X4178809Y-16707952D01*
X4159762Y-16717476D01*
X4140714Y-16717476D01*
X4121667Y-16707952D01*
X4112143Y-16698428D01*
X4102619Y-16679381D01*
X4093095Y-16641286D01*
X4093095Y-16593667D01*
X4102619Y-16555571D01*
X4112143Y-16536524D01*
X4121667Y-16527000D01*
X4140714Y-16517476D01*
X4293095Y-16698428D02*
X4302619Y-16707952D01*
X4293095Y-16717476D01*
X4283571Y-16707952D01*
X4293095Y-16698428D01*
X4293095Y-16717476D01*
X4416905Y-16603190D02*
X4397857Y-16593667D01*
X4388333Y-16584143D01*
X4378810Y-16565095D01*
X4378810Y-16555571D01*
X4388333Y-16536524D01*
X4397857Y-16527000D01*
X4416905Y-16517476D01*
X4455000Y-16517476D01*
X4474048Y-16527000D01*
X4483571Y-16536524D01*
X4493095Y-16555571D01*
X4493095Y-16565095D01*
X4483571Y-16584143D01*
X4474048Y-16593667D01*
X4455000Y-16603190D01*
X4416905Y-16603190D01*
X4397857Y-16612714D01*
X4388333Y-16622238D01*
X4378810Y-16641286D01*
X4378810Y-16679381D01*
X4388333Y-16698428D01*
X4397857Y-16707952D01*
X4416905Y-16717476D01*
X4455000Y-16717476D01*
X4474048Y-16707952D01*
X4483571Y-16698428D01*
X4493095Y-16679381D01*
X4493095Y-16641286D01*
X4483571Y-16622238D01*
X4474048Y-16612714D01*
X4455000Y-16603190D01*
X4616905Y-16517476D02*
X4635952Y-16517476D01*
X4655000Y-16527000D01*
X4664524Y-16536524D01*
X4674048Y-16555571D01*
X4683571Y-16593667D01*
X4683571Y-16641286D01*
X4674048Y-16679381D01*
X4664524Y-16698428D01*
X4655000Y-16707952D01*
X4635952Y-16717476D01*
X4616905Y-16717476D01*
X4597857Y-16707952D01*
X4588333Y-16698428D01*
X4578810Y-16679381D01*
X4569286Y-16641286D01*
X4569286Y-16593667D01*
X4578810Y-16555571D01*
X4588333Y-16536524D01*
X4597857Y-16527000D01*
X4616905Y-16517476D01*
X4807381Y-16517476D02*
X4826429Y-16517476D01*
X4845476Y-16527000D01*
X4855000Y-16536524D01*
X4864524Y-16555571D01*
X4874048Y-16593667D01*
X4874048Y-16641286D01*
X4864524Y-16679381D01*
X4855000Y-16698428D01*
X4845476Y-16707952D01*
X4826429Y-16717476D01*
X4807381Y-16717476D01*
X4788333Y-16707952D01*
X4778810Y-16698428D01*
X4769286Y-16679381D01*
X4759762Y-16641286D01*
X4759762Y-16593667D01*
X4769286Y-16555571D01*
X4778810Y-16536524D01*
X4788333Y-16527000D01*
X4807381Y-16517476D01*
X4959762Y-16717476D02*
X4959762Y-16584143D01*
X4959762Y-16603190D02*
X4969286Y-16593667D01*
X4988333Y-16584143D01*
X5016905Y-16584143D01*
X5035952Y-16593667D01*
X5045476Y-16612714D01*
X5045476Y-16717476D01*
X5045476Y-16612714D02*
X5055000Y-16593667D01*
X5074048Y-16584143D01*
X5102619Y-16584143D01*
X5121667Y-16593667D01*
X5131190Y-16612714D01*
X5131190Y-16717476D01*
X5226429Y-16717476D02*
X5226429Y-16584143D01*
X5226429Y-16603190D02*
X5235952Y-16593667D01*
X5255000Y-16584143D01*
X5283571Y-16584143D01*
X5302619Y-16593667D01*
X5312143Y-16612714D01*
X5312143Y-16717476D01*
X5312143Y-16612714D02*
X5321667Y-16593667D01*
X5340714Y-16584143D01*
X5369286Y-16584143D01*
X5388333Y-16593667D01*
X5397857Y-16612714D01*
X5397857Y-16717476D01*
X5788333Y-16507952D02*
X5616905Y-16765095D01*
X6045476Y-16517476D02*
X6064524Y-16517476D01*
X6083571Y-16527000D01*
X6093095Y-16536524D01*
X6102619Y-16555571D01*
X6112143Y-16593667D01*
X6112143Y-16641286D01*
X6102619Y-16679381D01*
X6093095Y-16698428D01*
X6083571Y-16707952D01*
X6064524Y-16717476D01*
X6045476Y-16717476D01*
X6026428Y-16707952D01*
X6016905Y-16698428D01*
X6007381Y-16679381D01*
X5997857Y-16641286D01*
X5997857Y-16593667D01*
X6007381Y-16555571D01*
X6016905Y-16536524D01*
X6026428Y-16527000D01*
X6045476Y-16517476D01*
X6197857Y-16698428D02*
X6207381Y-16707952D01*
X6197857Y-16717476D01*
X6188333Y-16707952D01*
X6197857Y-16698428D01*
X6197857Y-16717476D01*
X6331190Y-16517476D02*
X6350238Y-16517476D01*
X6369286Y-16527000D01*
X6378809Y-16536524D01*
X6388333Y-16555571D01*
X6397857Y-16593667D01*
X6397857Y-16641286D01*
X6388333Y-16679381D01*
X6378809Y-16698428D01*
X6369286Y-16707952D01*
X6350238Y-16717476D01*
X6331190Y-16717476D01*
X6312143Y-16707952D01*
X6302619Y-16698428D01*
X6293095Y-16679381D01*
X6283571Y-16641286D01*
X6283571Y-16593667D01*
X6293095Y-16555571D01*
X6302619Y-16536524D01*
X6312143Y-16527000D01*
X6331190Y-16517476D01*
X6464524Y-16517476D02*
X6588333Y-16517476D01*
X6521667Y-16593667D01*
X6550238Y-16593667D01*
X6569286Y-16603190D01*
X6578809Y-16612714D01*
X6588333Y-16631762D01*
X6588333Y-16679381D01*
X6578809Y-16698428D01*
X6569286Y-16707952D01*
X6550238Y-16717476D01*
X6493095Y-16717476D01*
X6474048Y-16707952D01*
X6464524Y-16698428D01*
X6778809Y-16717476D02*
X6664524Y-16717476D01*
X6721667Y-16717476D02*
X6721667Y-16517476D01*
X6702619Y-16546048D01*
X6683571Y-16565095D01*
X6664524Y-16574619D01*
X6959762Y-16517476D02*
X6864524Y-16517476D01*
X6855000Y-16612714D01*
X6864524Y-16603190D01*
X6883571Y-16593667D01*
X6931190Y-16593667D01*
X6950238Y-16603190D01*
X6959762Y-16612714D01*
X6969286Y-16631762D01*
X6969286Y-16679381D01*
X6959762Y-16698428D01*
X6950238Y-16707952D01*
X6931190Y-16717476D01*
X6883571Y-16717476D01*
X6864524Y-16707952D01*
X6855000Y-16698428D01*
X7045476Y-16517476D02*
X7045476Y-16555571D01*
X7121667Y-16517476D02*
X7121667Y-16555571D01*
X7416905Y-16793667D02*
X7407381Y-16784143D01*
X7388333Y-16755571D01*
X7378809Y-16736524D01*
X7369286Y-16707952D01*
X7359762Y-16660333D01*
X7359762Y-16622238D01*
X7369286Y-16574619D01*
X7378809Y-16546048D01*
X7388333Y-16527000D01*
X7407381Y-16498428D01*
X7416905Y-16488905D01*
X7597857Y-16717476D02*
X7483571Y-16717476D01*
X7540714Y-16717476D02*
X7540714Y-16517476D01*
X7521667Y-16546048D01*
X7502619Y-16565095D01*
X7483571Y-16574619D01*
X7674048Y-16536524D02*
X7683571Y-16527000D01*
X7702619Y-16517476D01*
X7750238Y-16517476D01*
X7769286Y-16527000D01*
X7778809Y-16536524D01*
X7788333Y-16555571D01*
X7788333Y-16574619D01*
X7778809Y-16603190D01*
X7664524Y-16717476D01*
X7788333Y-16717476D01*
X7883571Y-16717476D02*
X7921667Y-16717476D01*
X7940714Y-16707952D01*
X7950238Y-16698428D01*
X7969286Y-16669857D01*
X7978809Y-16631762D01*
X7978809Y-16555571D01*
X7969286Y-16536524D01*
X7959762Y-16527000D01*
X7940714Y-16517476D01*
X7902619Y-16517476D01*
X7883571Y-16527000D01*
X7874048Y-16536524D01*
X7864524Y-16555571D01*
X7864524Y-16603190D01*
X7874048Y-16622238D01*
X7883571Y-16631762D01*
X7902619Y-16641286D01*
X7940714Y-16641286D01*
X7959762Y-16631762D01*
X7969286Y-16622238D01*
X7978809Y-16603190D01*
X8216905Y-16717476D02*
X8216905Y-16517476D01*
X8302619Y-16717476D02*
X8302619Y-16612714D01*
X8293095Y-16593667D01*
X8274048Y-16584143D01*
X8245476Y-16584143D01*
X8226428Y-16593667D01*
X8216905Y-16603190D01*
X8426429Y-16717476D02*
X8407381Y-16707952D01*
X8397857Y-16698428D01*
X8388333Y-16679381D01*
X8388333Y-16622238D01*
X8397857Y-16603190D01*
X8407381Y-16593667D01*
X8426429Y-16584143D01*
X8455000Y-16584143D01*
X8474048Y-16593667D01*
X8483571Y-16603190D01*
X8493095Y-16622238D01*
X8493095Y-16679381D01*
X8483571Y-16698428D01*
X8474048Y-16707952D01*
X8455000Y-16717476D01*
X8426429Y-16717476D01*
X8607381Y-16717476D02*
X8588333Y-16707952D01*
X8578810Y-16688905D01*
X8578810Y-16517476D01*
X8759762Y-16707952D02*
X8740714Y-16717476D01*
X8702619Y-16717476D01*
X8683571Y-16707952D01*
X8674048Y-16688905D01*
X8674048Y-16612714D01*
X8683571Y-16593667D01*
X8702619Y-16584143D01*
X8740714Y-16584143D01*
X8759762Y-16593667D01*
X8769286Y-16612714D01*
X8769286Y-16631762D01*
X8674048Y-16650809D01*
X8845476Y-16707952D02*
X8864524Y-16717476D01*
X8902619Y-16717476D01*
X8921667Y-16707952D01*
X8931190Y-16688905D01*
X8931190Y-16679381D01*
X8921667Y-16660333D01*
X8902619Y-16650809D01*
X8874048Y-16650809D01*
X8855000Y-16641286D01*
X8845476Y-16622238D01*
X8845476Y-16612714D01*
X8855000Y-16593667D01*
X8874048Y-16584143D01*
X8902619Y-16584143D01*
X8921667Y-16593667D01*
X8997857Y-16793667D02*
X9007381Y-16784143D01*
X9026429Y-16755571D01*
X9035952Y-16736524D01*
X9045476Y-16707952D01*
X9055000Y-16660333D01*
X9055000Y-16622238D01*
X9045476Y-16574619D01*
X9035952Y-16546048D01*
X9026429Y-16527000D01*
X9007381Y-16498428D01*
X8997857Y-16488905D01*
D16*
X3800000Y-16936000D02*
X3845000Y-16891000D01*
X3800000Y-16846000D01*
X3755000Y-16891000D01*
X3800000Y-16936000D01*
D11*
X4140714Y-16781476D02*
X4159762Y-16781476D01*
X4178809Y-16791000D01*
X4188333Y-16800524D01*
X4197857Y-16819571D01*
X4207381Y-16857667D01*
X4207381Y-16905286D01*
X4197857Y-16943381D01*
X4188333Y-16962429D01*
X4178809Y-16971952D01*
X4159762Y-16981476D01*
X4140714Y-16981476D01*
X4121667Y-16971952D01*
X4112143Y-16962429D01*
X4102619Y-16943381D01*
X4093095Y-16905286D01*
X4093095Y-16857667D01*
X4102619Y-16819571D01*
X4112143Y-16800524D01*
X4121667Y-16791000D01*
X4140714Y-16781476D01*
X4293095Y-16962429D02*
X4302619Y-16971952D01*
X4293095Y-16981476D01*
X4283571Y-16971952D01*
X4293095Y-16962429D01*
X4293095Y-16981476D01*
X4397857Y-16981476D02*
X4435952Y-16981476D01*
X4455000Y-16971952D01*
X4464524Y-16962429D01*
X4483571Y-16933857D01*
X4493095Y-16895762D01*
X4493095Y-16819571D01*
X4483571Y-16800524D01*
X4474048Y-16791000D01*
X4455000Y-16781476D01*
X4416905Y-16781476D01*
X4397857Y-16791000D01*
X4388333Y-16800524D01*
X4378810Y-16819571D01*
X4378810Y-16867190D01*
X4388333Y-16886238D01*
X4397857Y-16895762D01*
X4416905Y-16905286D01*
X4455000Y-16905286D01*
X4474048Y-16895762D01*
X4483571Y-16886238D01*
X4493095Y-16867190D01*
X4616905Y-16781476D02*
X4635952Y-16781476D01*
X4655000Y-16791000D01*
X4664524Y-16800524D01*
X4674048Y-16819571D01*
X4683571Y-16857667D01*
X4683571Y-16905286D01*
X4674048Y-16943381D01*
X4664524Y-16962429D01*
X4655000Y-16971952D01*
X4635952Y-16981476D01*
X4616905Y-16981476D01*
X4597857Y-16971952D01*
X4588333Y-16962429D01*
X4578810Y-16943381D01*
X4569286Y-16905286D01*
X4569286Y-16857667D01*
X4578810Y-16819571D01*
X4588333Y-16800524D01*
X4597857Y-16791000D01*
X4616905Y-16781476D01*
X4807381Y-16781476D02*
X4826429Y-16781476D01*
X4845476Y-16791000D01*
X4855000Y-16800524D01*
X4864524Y-16819571D01*
X4874048Y-16857667D01*
X4874048Y-16905286D01*
X4864524Y-16943381D01*
X4855000Y-16962429D01*
X4845476Y-16971952D01*
X4826429Y-16981476D01*
X4807381Y-16981476D01*
X4788333Y-16971952D01*
X4778810Y-16962429D01*
X4769286Y-16943381D01*
X4759762Y-16905286D01*
X4759762Y-16857667D01*
X4769286Y-16819571D01*
X4778810Y-16800524D01*
X4788333Y-16791000D01*
X4807381Y-16781476D01*
X4959762Y-16981476D02*
X4959762Y-16848143D01*
X4959762Y-16867190D02*
X4969286Y-16857667D01*
X4988333Y-16848143D01*
X5016905Y-16848143D01*
X5035952Y-16857667D01*
X5045476Y-16876714D01*
X5045476Y-16981476D01*
X5045476Y-16876714D02*
X5055000Y-16857667D01*
X5074048Y-16848143D01*
X5102619Y-16848143D01*
X5121667Y-16857667D01*
X5131190Y-16876714D01*
X5131190Y-16981476D01*
X5226429Y-16981476D02*
X5226429Y-16848143D01*
X5226429Y-16867190D02*
X5235952Y-16857667D01*
X5255000Y-16848143D01*
X5283571Y-16848143D01*
X5302619Y-16857667D01*
X5312143Y-16876714D01*
X5312143Y-16981476D01*
X5312143Y-16876714D02*
X5321667Y-16857667D01*
X5340714Y-16848143D01*
X5369286Y-16848143D01*
X5388333Y-16857667D01*
X5397857Y-16876714D01*
X5397857Y-16981476D01*
X5788333Y-16771952D02*
X5616905Y-17029095D01*
X6045476Y-16781476D02*
X6064524Y-16781476D01*
X6083571Y-16791000D01*
X6093095Y-16800524D01*
X6102619Y-16819571D01*
X6112143Y-16857667D01*
X6112143Y-16905286D01*
X6102619Y-16943381D01*
X6093095Y-16962429D01*
X6083571Y-16971952D01*
X6064524Y-16981476D01*
X6045476Y-16981476D01*
X6026428Y-16971952D01*
X6016905Y-16962429D01*
X6007381Y-16943381D01*
X5997857Y-16905286D01*
X5997857Y-16857667D01*
X6007381Y-16819571D01*
X6016905Y-16800524D01*
X6026428Y-16791000D01*
X6045476Y-16781476D01*
X6197857Y-16962429D02*
X6207381Y-16971952D01*
X6197857Y-16981476D01*
X6188333Y-16971952D01*
X6197857Y-16962429D01*
X6197857Y-16981476D01*
X6331190Y-16781476D02*
X6350238Y-16781476D01*
X6369286Y-16791000D01*
X6378809Y-16800524D01*
X6388333Y-16819571D01*
X6397857Y-16857667D01*
X6397857Y-16905286D01*
X6388333Y-16943381D01*
X6378809Y-16962429D01*
X6369286Y-16971952D01*
X6350238Y-16981476D01*
X6331190Y-16981476D01*
X6312143Y-16971952D01*
X6302619Y-16962429D01*
X6293095Y-16943381D01*
X6283571Y-16905286D01*
X6283571Y-16857667D01*
X6293095Y-16819571D01*
X6302619Y-16800524D01*
X6312143Y-16791000D01*
X6331190Y-16781476D01*
X6464524Y-16781476D02*
X6588333Y-16781476D01*
X6521667Y-16857667D01*
X6550238Y-16857667D01*
X6569286Y-16867190D01*
X6578809Y-16876714D01*
X6588333Y-16895762D01*
X6588333Y-16943381D01*
X6578809Y-16962429D01*
X6569286Y-16971952D01*
X6550238Y-16981476D01*
X6493095Y-16981476D01*
X6474048Y-16971952D01*
X6464524Y-16962429D01*
X6769286Y-16781476D02*
X6674048Y-16781476D01*
X6664524Y-16876714D01*
X6674048Y-16867190D01*
X6693095Y-16857667D01*
X6740714Y-16857667D01*
X6759762Y-16867190D01*
X6769286Y-16876714D01*
X6778809Y-16895762D01*
X6778809Y-16943381D01*
X6769286Y-16962429D01*
X6759762Y-16971952D01*
X6740714Y-16981476D01*
X6693095Y-16981476D01*
X6674048Y-16971952D01*
X6664524Y-16962429D01*
X6950238Y-16848143D02*
X6950238Y-16981476D01*
X6902619Y-16771952D02*
X6855000Y-16914810D01*
X6978809Y-16914810D01*
X7045476Y-16781476D02*
X7045476Y-16819571D01*
X7121667Y-16781476D02*
X7121667Y-16819571D01*
X7416905Y-17057667D02*
X7407381Y-17048143D01*
X7388333Y-17019571D01*
X7378809Y-17000524D01*
X7369286Y-16971952D01*
X7359762Y-16924333D01*
X7359762Y-16886238D01*
X7369286Y-16838619D01*
X7378809Y-16810048D01*
X7388333Y-16791000D01*
X7407381Y-16762428D01*
X7416905Y-16752905D01*
X7597857Y-16981476D02*
X7483571Y-16981476D01*
X7540714Y-16981476D02*
X7540714Y-16781476D01*
X7521667Y-16810048D01*
X7502619Y-16829095D01*
X7483571Y-16838619D01*
X7674048Y-16800524D02*
X7683571Y-16791000D01*
X7702619Y-16781476D01*
X7750238Y-16781476D01*
X7769286Y-16791000D01*
X7778809Y-16800524D01*
X7788333Y-16819571D01*
X7788333Y-16838619D01*
X7778809Y-16867190D01*
X7664524Y-16981476D01*
X7788333Y-16981476D01*
X8026428Y-16981476D02*
X8026428Y-16781476D01*
X8112143Y-16981476D02*
X8112143Y-16876714D01*
X8102619Y-16857667D01*
X8083571Y-16848143D01*
X8055000Y-16848143D01*
X8035952Y-16857667D01*
X8026428Y-16867190D01*
X8235952Y-16981476D02*
X8216905Y-16971952D01*
X8207381Y-16962429D01*
X8197857Y-16943381D01*
X8197857Y-16886238D01*
X8207381Y-16867190D01*
X8216905Y-16857667D01*
X8235952Y-16848143D01*
X8264524Y-16848143D01*
X8283571Y-16857667D01*
X8293095Y-16867190D01*
X8302619Y-16886238D01*
X8302619Y-16943381D01*
X8293095Y-16962429D01*
X8283571Y-16971952D01*
X8264524Y-16981476D01*
X8235952Y-16981476D01*
X8416905Y-16981476D02*
X8397857Y-16971952D01*
X8388333Y-16952905D01*
X8388333Y-16781476D01*
X8569286Y-16971952D02*
X8550238Y-16981476D01*
X8512143Y-16981476D01*
X8493095Y-16971952D01*
X8483571Y-16952905D01*
X8483571Y-16876714D01*
X8493095Y-16857667D01*
X8512143Y-16848143D01*
X8550238Y-16848143D01*
X8569286Y-16857667D01*
X8578810Y-16876714D01*
X8578810Y-16895762D01*
X8483571Y-16914810D01*
X8655000Y-16971952D02*
X8674048Y-16981476D01*
X8712143Y-16981476D01*
X8731190Y-16971952D01*
X8740714Y-16952905D01*
X8740714Y-16943381D01*
X8731190Y-16924333D01*
X8712143Y-16914810D01*
X8683571Y-16914810D01*
X8664524Y-16905286D01*
X8655000Y-16886238D01*
X8655000Y-16876714D01*
X8664524Y-16857667D01*
X8683571Y-16848143D01*
X8712143Y-16848143D01*
X8731190Y-16857667D01*
X8807381Y-17057667D02*
X8816905Y-17048143D01*
X8835952Y-17019571D01*
X8845476Y-17000524D01*
X8855000Y-16971952D01*
X8864524Y-16924333D01*
X8864524Y-16886238D01*
X8855000Y-16838619D01*
X8845476Y-16810048D01*
X8835952Y-16791000D01*
X8816905Y-16762428D01*
X8807381Y-16752905D01*
D17*
X3745000Y-17105000D02*
X3845000Y-17205000D01*
X3845000Y-17105000D02*
X3745000Y-17205000D01*
X3845000Y-17155000D02*
G75*
G03*
X3845000Y-17155000I-50000J0D01*
G01*
D11*
X4207381Y-17245476D02*
X4093095Y-17245476D01*
X4150238Y-17245476D02*
X4150238Y-17045476D01*
X4131190Y-17074048D01*
X4112143Y-17093095D01*
X4093095Y-17102619D01*
X4293095Y-17226429D02*
X4302619Y-17235952D01*
X4293095Y-17245476D01*
X4283571Y-17235952D01*
X4293095Y-17226429D01*
X4293095Y-17245476D01*
X4426429Y-17045476D02*
X4445476Y-17045476D01*
X4464524Y-17055000D01*
X4474048Y-17064524D01*
X4483571Y-17083571D01*
X4493095Y-17121667D01*
X4493095Y-17169286D01*
X4483571Y-17207381D01*
X4474048Y-17226429D01*
X4464524Y-17235952D01*
X4445476Y-17245476D01*
X4426429Y-17245476D01*
X4407381Y-17235952D01*
X4397857Y-17226429D01*
X4388333Y-17207381D01*
X4378810Y-17169286D01*
X4378810Y-17121667D01*
X4388333Y-17083571D01*
X4397857Y-17064524D01*
X4407381Y-17055000D01*
X4426429Y-17045476D01*
X4616905Y-17045476D02*
X4635952Y-17045476D01*
X4655000Y-17055000D01*
X4664524Y-17064524D01*
X4674048Y-17083571D01*
X4683571Y-17121667D01*
X4683571Y-17169286D01*
X4674048Y-17207381D01*
X4664524Y-17226429D01*
X4655000Y-17235952D01*
X4635952Y-17245476D01*
X4616905Y-17245476D01*
X4597857Y-17235952D01*
X4588333Y-17226429D01*
X4578810Y-17207381D01*
X4569286Y-17169286D01*
X4569286Y-17121667D01*
X4578810Y-17083571D01*
X4588333Y-17064524D01*
X4597857Y-17055000D01*
X4616905Y-17045476D01*
X4807381Y-17045476D02*
X4826429Y-17045476D01*
X4845476Y-17055000D01*
X4855000Y-17064524D01*
X4864524Y-17083571D01*
X4874048Y-17121667D01*
X4874048Y-17169286D01*
X4864524Y-17207381D01*
X4855000Y-17226429D01*
X4845476Y-17235952D01*
X4826429Y-17245476D01*
X4807381Y-17245476D01*
X4788333Y-17235952D01*
X4778810Y-17226429D01*
X4769286Y-17207381D01*
X4759762Y-17169286D01*
X4759762Y-17121667D01*
X4769286Y-17083571D01*
X4778810Y-17064524D01*
X4788333Y-17055000D01*
X4807381Y-17045476D01*
X4959762Y-17245476D02*
X4959762Y-17112143D01*
X4959762Y-17131190D02*
X4969286Y-17121667D01*
X4988333Y-17112143D01*
X5016905Y-17112143D01*
X5035952Y-17121667D01*
X5045476Y-17140714D01*
X5045476Y-17245476D01*
X5045476Y-17140714D02*
X5055000Y-17121667D01*
X5074048Y-17112143D01*
X5102619Y-17112143D01*
X5121667Y-17121667D01*
X5131190Y-17140714D01*
X5131190Y-17245476D01*
X5226429Y-17245476D02*
X5226429Y-17112143D01*
X5226429Y-17131190D02*
X5235952Y-17121667D01*
X5255000Y-17112143D01*
X5283571Y-17112143D01*
X5302619Y-17121667D01*
X5312143Y-17140714D01*
X5312143Y-17245476D01*
X5312143Y-17140714D02*
X5321667Y-17121667D01*
X5340714Y-17112143D01*
X5369286Y-17112143D01*
X5388333Y-17121667D01*
X5397857Y-17140714D01*
X5397857Y-17245476D01*
X5788333Y-17035952D02*
X5616905Y-17293095D01*
X6045476Y-17045476D02*
X6064524Y-17045476D01*
X6083571Y-17055000D01*
X6093095Y-17064524D01*
X6102619Y-17083571D01*
X6112143Y-17121667D01*
X6112143Y-17169286D01*
X6102619Y-17207381D01*
X6093095Y-17226429D01*
X6083571Y-17235952D01*
X6064524Y-17245476D01*
X6045476Y-17245476D01*
X6026428Y-17235952D01*
X6016905Y-17226429D01*
X6007381Y-17207381D01*
X5997857Y-17169286D01*
X5997857Y-17121667D01*
X6007381Y-17083571D01*
X6016905Y-17064524D01*
X6026428Y-17055000D01*
X6045476Y-17045476D01*
X6197857Y-17226429D02*
X6207381Y-17235952D01*
X6197857Y-17245476D01*
X6188333Y-17235952D01*
X6197857Y-17226429D01*
X6197857Y-17245476D01*
X6331190Y-17045476D02*
X6350238Y-17045476D01*
X6369286Y-17055000D01*
X6378809Y-17064524D01*
X6388333Y-17083571D01*
X6397857Y-17121667D01*
X6397857Y-17169286D01*
X6388333Y-17207381D01*
X6378809Y-17226429D01*
X6369286Y-17235952D01*
X6350238Y-17245476D01*
X6331190Y-17245476D01*
X6312143Y-17235952D01*
X6302619Y-17226429D01*
X6293095Y-17207381D01*
X6283571Y-17169286D01*
X6283571Y-17121667D01*
X6293095Y-17083571D01*
X6302619Y-17064524D01*
X6312143Y-17055000D01*
X6331190Y-17045476D01*
X6464524Y-17045476D02*
X6588333Y-17045476D01*
X6521667Y-17121667D01*
X6550238Y-17121667D01*
X6569286Y-17131190D01*
X6578809Y-17140714D01*
X6588333Y-17159762D01*
X6588333Y-17207381D01*
X6578809Y-17226429D01*
X6569286Y-17235952D01*
X6550238Y-17245476D01*
X6493095Y-17245476D01*
X6474048Y-17235952D01*
X6464524Y-17226429D01*
X6683571Y-17245476D02*
X6721667Y-17245476D01*
X6740714Y-17235952D01*
X6750238Y-17226429D01*
X6769286Y-17197857D01*
X6778809Y-17159762D01*
X6778809Y-17083571D01*
X6769286Y-17064524D01*
X6759762Y-17055000D01*
X6740714Y-17045476D01*
X6702619Y-17045476D01*
X6683571Y-17055000D01*
X6674048Y-17064524D01*
X6664524Y-17083571D01*
X6664524Y-17131190D01*
X6674048Y-17150238D01*
X6683571Y-17159762D01*
X6702619Y-17169286D01*
X6740714Y-17169286D01*
X6759762Y-17159762D01*
X6769286Y-17150238D01*
X6778809Y-17131190D01*
X6950238Y-17112143D02*
X6950238Y-17245476D01*
X6902619Y-17035952D02*
X6855000Y-17178810D01*
X6978809Y-17178810D01*
X7045476Y-17045476D02*
X7045476Y-17083571D01*
X7121667Y-17045476D02*
X7121667Y-17083571D01*
X7416905Y-17321667D02*
X7407381Y-17312143D01*
X7388333Y-17283571D01*
X7378809Y-17264524D01*
X7369286Y-17235952D01*
X7359762Y-17188333D01*
X7359762Y-17150238D01*
X7369286Y-17102619D01*
X7378809Y-17074048D01*
X7388333Y-17055000D01*
X7407381Y-17026429D01*
X7416905Y-17016905D01*
X7578809Y-17045476D02*
X7540714Y-17045476D01*
X7521667Y-17055000D01*
X7512143Y-17064524D01*
X7493095Y-17093095D01*
X7483571Y-17131190D01*
X7483571Y-17207381D01*
X7493095Y-17226429D01*
X7502619Y-17235952D01*
X7521667Y-17245476D01*
X7559762Y-17245476D01*
X7578809Y-17235952D01*
X7588333Y-17226429D01*
X7597857Y-17207381D01*
X7597857Y-17159762D01*
X7588333Y-17140714D01*
X7578809Y-17131190D01*
X7559762Y-17121667D01*
X7521667Y-17121667D01*
X7502619Y-17131190D01*
X7493095Y-17140714D01*
X7483571Y-17159762D01*
X7721667Y-17045476D02*
X7740714Y-17045476D01*
X7759762Y-17055000D01*
X7769286Y-17064524D01*
X7778809Y-17083571D01*
X7788333Y-17121667D01*
X7788333Y-17169286D01*
X7778809Y-17207381D01*
X7769286Y-17226429D01*
X7759762Y-17235952D01*
X7740714Y-17245476D01*
X7721667Y-17245476D01*
X7702619Y-17235952D01*
X7693095Y-17226429D01*
X7683571Y-17207381D01*
X7674048Y-17169286D01*
X7674048Y-17121667D01*
X7683571Y-17083571D01*
X7693095Y-17064524D01*
X7702619Y-17055000D01*
X7721667Y-17045476D01*
X8026428Y-17245476D02*
X8026428Y-17045476D01*
X8112143Y-17245476D02*
X8112143Y-17140714D01*
X8102619Y-17121667D01*
X8083571Y-17112143D01*
X8055000Y-17112143D01*
X8035952Y-17121667D01*
X8026428Y-17131190D01*
X8235952Y-17245476D02*
X8216905Y-17235952D01*
X8207381Y-17226429D01*
X8197857Y-17207381D01*
X8197857Y-17150238D01*
X8207381Y-17131190D01*
X8216905Y-17121667D01*
X8235952Y-17112143D01*
X8264524Y-17112143D01*
X8283571Y-17121667D01*
X8293095Y-17131190D01*
X8302619Y-17150238D01*
X8302619Y-17207381D01*
X8293095Y-17226429D01*
X8283571Y-17235952D01*
X8264524Y-17245476D01*
X8235952Y-17245476D01*
X8416905Y-17245476D02*
X8397857Y-17235952D01*
X8388333Y-17216905D01*
X8388333Y-17045476D01*
X8569286Y-17235952D02*
X8550238Y-17245476D01*
X8512143Y-17245476D01*
X8493095Y-17235952D01*
X8483571Y-17216905D01*
X8483571Y-17140714D01*
X8493095Y-17121667D01*
X8512143Y-17112143D01*
X8550238Y-17112143D01*
X8569286Y-17121667D01*
X8578810Y-17140714D01*
X8578810Y-17159762D01*
X8483571Y-17178810D01*
X8655000Y-17235952D02*
X8674048Y-17245476D01*
X8712143Y-17245476D01*
X8731190Y-17235952D01*
X8740714Y-17216905D01*
X8740714Y-17207381D01*
X8731190Y-17188333D01*
X8712143Y-17178810D01*
X8683571Y-17178810D01*
X8664524Y-17169286D01*
X8655000Y-17150238D01*
X8655000Y-17140714D01*
X8664524Y-17121667D01*
X8683571Y-17112143D01*
X8712143Y-17112143D01*
X8731190Y-17121667D01*
X8807381Y-17321667D02*
X8816905Y-17312143D01*
X8835952Y-17283571D01*
X8845476Y-17264524D01*
X8855000Y-17235952D01*
X8864524Y-17188333D01*
X8864524Y-17150238D01*
X8855000Y-17102619D01*
X8845476Y-17074048D01*
X8835952Y-17055000D01*
X8816905Y-17026429D01*
X8807381Y-17016905D01*
D18*
X3735000Y-17364000D02*
X3845000Y-17474000D01*
X3845000Y-17364000D02*
X3735000Y-17474000D01*
X3790000Y-17364000D02*
X3790000Y-17474000D01*
X3735000Y-17419000D02*
X3845000Y-17419000D01*
D11*
X4207381Y-17509476D02*
X4093095Y-17509476D01*
X4150238Y-17509476D02*
X4150238Y-17309476D01*
X4131190Y-17338048D01*
X4112143Y-17357095D01*
X4093095Y-17366619D01*
X4293095Y-17490429D02*
X4302619Y-17499952D01*
X4293095Y-17509476D01*
X4283571Y-17499952D01*
X4293095Y-17490429D01*
X4293095Y-17509476D01*
X4493095Y-17509476D02*
X4378810Y-17509476D01*
X4435952Y-17509476D02*
X4435952Y-17309476D01*
X4416905Y-17338048D01*
X4397857Y-17357095D01*
X4378810Y-17366619D01*
X4616905Y-17309476D02*
X4635952Y-17309476D01*
X4655000Y-17319000D01*
X4664524Y-17328524D01*
X4674048Y-17347571D01*
X4683571Y-17385667D01*
X4683571Y-17433286D01*
X4674048Y-17471381D01*
X4664524Y-17490429D01*
X4655000Y-17499952D01*
X4635952Y-17509476D01*
X4616905Y-17509476D01*
X4597857Y-17499952D01*
X4588333Y-17490429D01*
X4578810Y-17471381D01*
X4569286Y-17433286D01*
X4569286Y-17385667D01*
X4578810Y-17347571D01*
X4588333Y-17328524D01*
X4597857Y-17319000D01*
X4616905Y-17309476D01*
X4807381Y-17309476D02*
X4826429Y-17309476D01*
X4845476Y-17319000D01*
X4855000Y-17328524D01*
X4864524Y-17347571D01*
X4874048Y-17385667D01*
X4874048Y-17433286D01*
X4864524Y-17471381D01*
X4855000Y-17490429D01*
X4845476Y-17499952D01*
X4826429Y-17509476D01*
X4807381Y-17509476D01*
X4788333Y-17499952D01*
X4778810Y-17490429D01*
X4769286Y-17471381D01*
X4759762Y-17433286D01*
X4759762Y-17385667D01*
X4769286Y-17347571D01*
X4778810Y-17328524D01*
X4788333Y-17319000D01*
X4807381Y-17309476D01*
X4959762Y-17509476D02*
X4959762Y-17376143D01*
X4959762Y-17395190D02*
X4969286Y-17385667D01*
X4988333Y-17376143D01*
X5016905Y-17376143D01*
X5035952Y-17385667D01*
X5045476Y-17404714D01*
X5045476Y-17509476D01*
X5045476Y-17404714D02*
X5055000Y-17385667D01*
X5074048Y-17376143D01*
X5102619Y-17376143D01*
X5121667Y-17385667D01*
X5131190Y-17404714D01*
X5131190Y-17509476D01*
X5226429Y-17509476D02*
X5226429Y-17376143D01*
X5226429Y-17395190D02*
X5235952Y-17385667D01*
X5255000Y-17376143D01*
X5283571Y-17376143D01*
X5302619Y-17385667D01*
X5312143Y-17404714D01*
X5312143Y-17509476D01*
X5312143Y-17404714D02*
X5321667Y-17385667D01*
X5340714Y-17376143D01*
X5369286Y-17376143D01*
X5388333Y-17385667D01*
X5397857Y-17404714D01*
X5397857Y-17509476D01*
X5788333Y-17299952D02*
X5616905Y-17557095D01*
X6045476Y-17309476D02*
X6064524Y-17309476D01*
X6083571Y-17319000D01*
X6093095Y-17328524D01*
X6102619Y-17347571D01*
X6112143Y-17385667D01*
X6112143Y-17433286D01*
X6102619Y-17471381D01*
X6093095Y-17490429D01*
X6083571Y-17499952D01*
X6064524Y-17509476D01*
X6045476Y-17509476D01*
X6026428Y-17499952D01*
X6016905Y-17490429D01*
X6007381Y-17471381D01*
X5997857Y-17433286D01*
X5997857Y-17385667D01*
X6007381Y-17347571D01*
X6016905Y-17328524D01*
X6026428Y-17319000D01*
X6045476Y-17309476D01*
X6197857Y-17490429D02*
X6207381Y-17499952D01*
X6197857Y-17509476D01*
X6188333Y-17499952D01*
X6197857Y-17490429D01*
X6197857Y-17509476D01*
X6331190Y-17309476D02*
X6350238Y-17309476D01*
X6369286Y-17319000D01*
X6378809Y-17328524D01*
X6388333Y-17347571D01*
X6397857Y-17385667D01*
X6397857Y-17433286D01*
X6388333Y-17471381D01*
X6378809Y-17490429D01*
X6369286Y-17499952D01*
X6350238Y-17509476D01*
X6331190Y-17509476D01*
X6312143Y-17499952D01*
X6302619Y-17490429D01*
X6293095Y-17471381D01*
X6283571Y-17433286D01*
X6283571Y-17385667D01*
X6293095Y-17347571D01*
X6302619Y-17328524D01*
X6312143Y-17319000D01*
X6331190Y-17309476D01*
X6569286Y-17376143D02*
X6569286Y-17509476D01*
X6521667Y-17299952D02*
X6474048Y-17442810D01*
X6597857Y-17442810D01*
X6655000Y-17309476D02*
X6778809Y-17309476D01*
X6712143Y-17385667D01*
X6740714Y-17385667D01*
X6759762Y-17395190D01*
X6769286Y-17404714D01*
X6778809Y-17423762D01*
X6778809Y-17471381D01*
X6769286Y-17490429D01*
X6759762Y-17499952D01*
X6740714Y-17509476D01*
X6683571Y-17509476D01*
X6664524Y-17499952D01*
X6655000Y-17490429D01*
X6845476Y-17309476D02*
X6969286Y-17309476D01*
X6902619Y-17385667D01*
X6931190Y-17385667D01*
X6950238Y-17395190D01*
X6959762Y-17404714D01*
X6969286Y-17423762D01*
X6969286Y-17471381D01*
X6959762Y-17490429D01*
X6950238Y-17499952D01*
X6931190Y-17509476D01*
X6874048Y-17509476D01*
X6855000Y-17499952D01*
X6845476Y-17490429D01*
X7045476Y-17309476D02*
X7045476Y-17347571D01*
X7121667Y-17309476D02*
X7121667Y-17347571D01*
X7416905Y-17585667D02*
X7407381Y-17576143D01*
X7388333Y-17547571D01*
X7378809Y-17528524D01*
X7369286Y-17499952D01*
X7359762Y-17452333D01*
X7359762Y-17414238D01*
X7369286Y-17366619D01*
X7378809Y-17338048D01*
X7388333Y-17319000D01*
X7407381Y-17290429D01*
X7416905Y-17280905D01*
X7531190Y-17309476D02*
X7550238Y-17309476D01*
X7569286Y-17319000D01*
X7578809Y-17328524D01*
X7588333Y-17347571D01*
X7597857Y-17385667D01*
X7597857Y-17433286D01*
X7588333Y-17471381D01*
X7578809Y-17490429D01*
X7569286Y-17499952D01*
X7550238Y-17509476D01*
X7531190Y-17509476D01*
X7512143Y-17499952D01*
X7502619Y-17490429D01*
X7493095Y-17471381D01*
X7483571Y-17433286D01*
X7483571Y-17385667D01*
X7493095Y-17347571D01*
X7502619Y-17328524D01*
X7512143Y-17319000D01*
X7531190Y-17309476D01*
X7835952Y-17509476D02*
X7835952Y-17309476D01*
X7921667Y-17509476D02*
X7921667Y-17404714D01*
X7912143Y-17385667D01*
X7893095Y-17376143D01*
X7864524Y-17376143D01*
X7845476Y-17385667D01*
X7835952Y-17395190D01*
X8045476Y-17509476D02*
X8026428Y-17499952D01*
X8016905Y-17490429D01*
X8007381Y-17471381D01*
X8007381Y-17414238D01*
X8016905Y-17395190D01*
X8026428Y-17385667D01*
X8045476Y-17376143D01*
X8074048Y-17376143D01*
X8093095Y-17385667D01*
X8102619Y-17395190D01*
X8112143Y-17414238D01*
X8112143Y-17471381D01*
X8102619Y-17490429D01*
X8093095Y-17499952D01*
X8074048Y-17509476D01*
X8045476Y-17509476D01*
X8226428Y-17509476D02*
X8207381Y-17499952D01*
X8197857Y-17480905D01*
X8197857Y-17309476D01*
X8378809Y-17499952D02*
X8359762Y-17509476D01*
X8321667Y-17509476D01*
X8302619Y-17499952D01*
X8293095Y-17480905D01*
X8293095Y-17404714D01*
X8302619Y-17385667D01*
X8321667Y-17376143D01*
X8359762Y-17376143D01*
X8378809Y-17385667D01*
X8388333Y-17404714D01*
X8388333Y-17423762D01*
X8293095Y-17442810D01*
X8464524Y-17499952D02*
X8483571Y-17509476D01*
X8521667Y-17509476D01*
X8540714Y-17499952D01*
X8550238Y-17480905D01*
X8550238Y-17471381D01*
X8540714Y-17452333D01*
X8521667Y-17442810D01*
X8493095Y-17442810D01*
X8474048Y-17433286D01*
X8464524Y-17414238D01*
X8464524Y-17404714D01*
X8474048Y-17385667D01*
X8493095Y-17376143D01*
X8521667Y-17376143D01*
X8540714Y-17385667D01*
X8788333Y-17433286D02*
X8940714Y-17433286D01*
X8864524Y-17509476D02*
X8864524Y-17357095D01*
X9293095Y-17509476D02*
X9178810Y-17509476D01*
X9235952Y-17509476D02*
X9235952Y-17309476D01*
X9216905Y-17338048D01*
X9197857Y-17357095D01*
X9178810Y-17366619D01*
X9369286Y-17328524D02*
X9378810Y-17319000D01*
X9397857Y-17309476D01*
X9445476Y-17309476D01*
X9464524Y-17319000D01*
X9474048Y-17328524D01*
X9483571Y-17347571D01*
X9483571Y-17366619D01*
X9474048Y-17395190D01*
X9359762Y-17509476D01*
X9483571Y-17509476D01*
X9712143Y-17499952D02*
X9731190Y-17509476D01*
X9769286Y-17509476D01*
X9788333Y-17499952D01*
X9797857Y-17480905D01*
X9797857Y-17471381D01*
X9788333Y-17452333D01*
X9769286Y-17442810D01*
X9740714Y-17442810D01*
X9721667Y-17433286D01*
X9712143Y-17414238D01*
X9712143Y-17404714D01*
X9721667Y-17385667D01*
X9740714Y-17376143D01*
X9769286Y-17376143D01*
X9788333Y-17385667D01*
X9912143Y-17509476D02*
X9893095Y-17499952D01*
X9883571Y-17480905D01*
X9883571Y-17309476D01*
X10016905Y-17509476D02*
X9997857Y-17499952D01*
X9988333Y-17490429D01*
X9978810Y-17471381D01*
X9978810Y-17414238D01*
X9988333Y-17395190D01*
X9997857Y-17385667D01*
X10016905Y-17376143D01*
X10045476Y-17376143D01*
X10064524Y-17385667D01*
X10074048Y-17395190D01*
X10083571Y-17414238D01*
X10083571Y-17471381D01*
X10074048Y-17490429D01*
X10064524Y-17499952D01*
X10045476Y-17509476D01*
X10016905Y-17509476D01*
X10140714Y-17376143D02*
X10216905Y-17376143D01*
X10169286Y-17309476D02*
X10169286Y-17480905D01*
X10178810Y-17499952D01*
X10197857Y-17509476D01*
X10216905Y-17509476D01*
X10274048Y-17499952D02*
X10293095Y-17509476D01*
X10331190Y-17509476D01*
X10350238Y-17499952D01*
X10359762Y-17480905D01*
X10359762Y-17471381D01*
X10350238Y-17452333D01*
X10331190Y-17442810D01*
X10302619Y-17442810D01*
X10283571Y-17433286D01*
X10274048Y-17414238D01*
X10274048Y-17404714D01*
X10283571Y-17385667D01*
X10302619Y-17376143D01*
X10331190Y-17376143D01*
X10350238Y-17385667D01*
X10426429Y-17585667D02*
X10435952Y-17576143D01*
X10455000Y-17547571D01*
X10464524Y-17528524D01*
X10474048Y-17499952D01*
X10483571Y-17452333D01*
X10483571Y-17414238D01*
X10474048Y-17366619D01*
X10464524Y-17338048D01*
X10455000Y-17319000D01*
X10435952Y-17290429D01*
X10426429Y-17280905D01*
D19*
X3723000Y-17622000D02*
X3845000Y-17744000D01*
X3845000Y-17622000D02*
X3723000Y-17744000D01*
X3827134Y-17726134D02*
X3827134Y-17639866D01*
X3740866Y-17639866D01*
X3740866Y-17726134D01*
X3827134Y-17726134D01*
D11*
X4207381Y-17773476D02*
X4093095Y-17773476D01*
X4150238Y-17773476D02*
X4150238Y-17573476D01*
X4131190Y-17602048D01*
X4112143Y-17621095D01*
X4093095Y-17630619D01*
X4293095Y-17754429D02*
X4302619Y-17763952D01*
X4293095Y-17773476D01*
X4283571Y-17763952D01*
X4293095Y-17754429D01*
X4293095Y-17773476D01*
X4378810Y-17592524D02*
X4388333Y-17583000D01*
X4407381Y-17573476D01*
X4455000Y-17573476D01*
X4474048Y-17583000D01*
X4483571Y-17592524D01*
X4493095Y-17611571D01*
X4493095Y-17630619D01*
X4483571Y-17659190D01*
X4369286Y-17773476D01*
X4493095Y-17773476D01*
X4569286Y-17592524D02*
X4578810Y-17583000D01*
X4597857Y-17573476D01*
X4645476Y-17573476D01*
X4664524Y-17583000D01*
X4674048Y-17592524D01*
X4683571Y-17611571D01*
X4683571Y-17630619D01*
X4674048Y-17659190D01*
X4559762Y-17773476D01*
X4683571Y-17773476D01*
X4807381Y-17573476D02*
X4826429Y-17573476D01*
X4845476Y-17583000D01*
X4855000Y-17592524D01*
X4864524Y-17611571D01*
X4874048Y-17649667D01*
X4874048Y-17697286D01*
X4864524Y-17735381D01*
X4855000Y-17754429D01*
X4845476Y-17763952D01*
X4826429Y-17773476D01*
X4807381Y-17773476D01*
X4788333Y-17763952D01*
X4778810Y-17754429D01*
X4769286Y-17735381D01*
X4759762Y-17697286D01*
X4759762Y-17649667D01*
X4769286Y-17611571D01*
X4778810Y-17592524D01*
X4788333Y-17583000D01*
X4807381Y-17573476D01*
X4959762Y-17773476D02*
X4959762Y-17640143D01*
X4959762Y-17659190D02*
X4969286Y-17649667D01*
X4988333Y-17640143D01*
X5016905Y-17640143D01*
X5035952Y-17649667D01*
X5045476Y-17668714D01*
X5045476Y-17773476D01*
X5045476Y-17668714D02*
X5055000Y-17649667D01*
X5074048Y-17640143D01*
X5102619Y-17640143D01*
X5121667Y-17649667D01*
X5131190Y-17668714D01*
X5131190Y-17773476D01*
X5226429Y-17773476D02*
X5226429Y-17640143D01*
X5226429Y-17659190D02*
X5235952Y-17649667D01*
X5255000Y-17640143D01*
X5283571Y-17640143D01*
X5302619Y-17649667D01*
X5312143Y-17668714D01*
X5312143Y-17773476D01*
X5312143Y-17668714D02*
X5321667Y-17649667D01*
X5340714Y-17640143D01*
X5369286Y-17640143D01*
X5388333Y-17649667D01*
X5397857Y-17668714D01*
X5397857Y-17773476D01*
X5788333Y-17563952D02*
X5616905Y-17821095D01*
X6045476Y-17573476D02*
X6064524Y-17573476D01*
X6083571Y-17583000D01*
X6093095Y-17592524D01*
X6102619Y-17611571D01*
X6112143Y-17649667D01*
X6112143Y-17697286D01*
X6102619Y-17735381D01*
X6093095Y-17754429D01*
X6083571Y-17763952D01*
X6064524Y-17773476D01*
X6045476Y-17773476D01*
X6026428Y-17763952D01*
X6016905Y-17754429D01*
X6007381Y-17735381D01*
X5997857Y-17697286D01*
X5997857Y-17649667D01*
X6007381Y-17611571D01*
X6016905Y-17592524D01*
X6026428Y-17583000D01*
X6045476Y-17573476D01*
X6197857Y-17754429D02*
X6207381Y-17763952D01*
X6197857Y-17773476D01*
X6188333Y-17763952D01*
X6197857Y-17754429D01*
X6197857Y-17773476D01*
X6331190Y-17573476D02*
X6350238Y-17573476D01*
X6369286Y-17583000D01*
X6378809Y-17592524D01*
X6388333Y-17611571D01*
X6397857Y-17649667D01*
X6397857Y-17697286D01*
X6388333Y-17735381D01*
X6378809Y-17754429D01*
X6369286Y-17763952D01*
X6350238Y-17773476D01*
X6331190Y-17773476D01*
X6312143Y-17763952D01*
X6302619Y-17754429D01*
X6293095Y-17735381D01*
X6283571Y-17697286D01*
X6283571Y-17649667D01*
X6293095Y-17611571D01*
X6302619Y-17592524D01*
X6312143Y-17583000D01*
X6331190Y-17573476D01*
X6569286Y-17640143D02*
X6569286Y-17773476D01*
X6521667Y-17563952D02*
X6474048Y-17706810D01*
X6597857Y-17706810D01*
X6702619Y-17659190D02*
X6683571Y-17649667D01*
X6674048Y-17640143D01*
X6664524Y-17621095D01*
X6664524Y-17611571D01*
X6674048Y-17592524D01*
X6683571Y-17583000D01*
X6702619Y-17573476D01*
X6740714Y-17573476D01*
X6759762Y-17583000D01*
X6769286Y-17592524D01*
X6778809Y-17611571D01*
X6778809Y-17621095D01*
X6769286Y-17640143D01*
X6759762Y-17649667D01*
X6740714Y-17659190D01*
X6702619Y-17659190D01*
X6683571Y-17668714D01*
X6674048Y-17678238D01*
X6664524Y-17697286D01*
X6664524Y-17735381D01*
X6674048Y-17754429D01*
X6683571Y-17763952D01*
X6702619Y-17773476D01*
X6740714Y-17773476D01*
X6759762Y-17763952D01*
X6769286Y-17754429D01*
X6778809Y-17735381D01*
X6778809Y-17697286D01*
X6769286Y-17678238D01*
X6759762Y-17668714D01*
X6740714Y-17659190D01*
X6902619Y-17573476D02*
X6921667Y-17573476D01*
X6940714Y-17583000D01*
X6950238Y-17592524D01*
X6959762Y-17611571D01*
X6969286Y-17649667D01*
X6969286Y-17697286D01*
X6959762Y-17735381D01*
X6950238Y-17754429D01*
X6940714Y-17763952D01*
X6921667Y-17773476D01*
X6902619Y-17773476D01*
X6883571Y-17763952D01*
X6874048Y-17754429D01*
X6864524Y-17735381D01*
X6855000Y-17697286D01*
X6855000Y-17649667D01*
X6864524Y-17611571D01*
X6874048Y-17592524D01*
X6883571Y-17583000D01*
X6902619Y-17573476D01*
X7045476Y-17573476D02*
X7045476Y-17611571D01*
X7121667Y-17573476D02*
X7121667Y-17611571D01*
X7416905Y-17849667D02*
X7407381Y-17840143D01*
X7388333Y-17811571D01*
X7378809Y-17792524D01*
X7369286Y-17763952D01*
X7359762Y-17716333D01*
X7359762Y-17678238D01*
X7369286Y-17630619D01*
X7378809Y-17602048D01*
X7388333Y-17583000D01*
X7407381Y-17554429D01*
X7416905Y-17544905D01*
X7578809Y-17573476D02*
X7540714Y-17573476D01*
X7521667Y-17583000D01*
X7512143Y-17592524D01*
X7493095Y-17621095D01*
X7483571Y-17659190D01*
X7483571Y-17735381D01*
X7493095Y-17754429D01*
X7502619Y-17763952D01*
X7521667Y-17773476D01*
X7559762Y-17773476D01*
X7578809Y-17763952D01*
X7588333Y-17754429D01*
X7597857Y-17735381D01*
X7597857Y-17687762D01*
X7588333Y-17668714D01*
X7578809Y-17659190D01*
X7559762Y-17649667D01*
X7521667Y-17649667D01*
X7502619Y-17659190D01*
X7493095Y-17668714D01*
X7483571Y-17687762D01*
X7835952Y-17773476D02*
X7835952Y-17573476D01*
X7921667Y-17773476D02*
X7921667Y-17668714D01*
X7912143Y-17649667D01*
X7893095Y-17640143D01*
X7864524Y-17640143D01*
X7845476Y-17649667D01*
X7835952Y-17659190D01*
X8045476Y-17773476D02*
X8026428Y-17763952D01*
X8016905Y-17754429D01*
X8007381Y-17735381D01*
X8007381Y-17678238D01*
X8016905Y-17659190D01*
X8026428Y-17649667D01*
X8045476Y-17640143D01*
X8074048Y-17640143D01*
X8093095Y-17649667D01*
X8102619Y-17659190D01*
X8112143Y-17678238D01*
X8112143Y-17735381D01*
X8102619Y-17754429D01*
X8093095Y-17763952D01*
X8074048Y-17773476D01*
X8045476Y-17773476D01*
X8226428Y-17773476D02*
X8207381Y-17763952D01*
X8197857Y-17744905D01*
X8197857Y-17573476D01*
X8378809Y-17763952D02*
X8359762Y-17773476D01*
X8321667Y-17773476D01*
X8302619Y-17763952D01*
X8293095Y-17744905D01*
X8293095Y-17668714D01*
X8302619Y-17649667D01*
X8321667Y-17640143D01*
X8359762Y-17640143D01*
X8378809Y-17649667D01*
X8388333Y-17668714D01*
X8388333Y-17687762D01*
X8293095Y-17706810D01*
X8464524Y-17763952D02*
X8483571Y-17773476D01*
X8521667Y-17773476D01*
X8540714Y-17763952D01*
X8550238Y-17744905D01*
X8550238Y-17735381D01*
X8540714Y-17716333D01*
X8521667Y-17706810D01*
X8493095Y-17706810D01*
X8474048Y-17697286D01*
X8464524Y-17678238D01*
X8464524Y-17668714D01*
X8474048Y-17649667D01*
X8493095Y-17640143D01*
X8521667Y-17640143D01*
X8540714Y-17649667D01*
X8616905Y-17849667D02*
X8626429Y-17840143D01*
X8645476Y-17811571D01*
X8655000Y-17792524D01*
X8664524Y-17763952D01*
X8674048Y-17716333D01*
X8674048Y-17678238D01*
X8664524Y-17630619D01*
X8655000Y-17602048D01*
X8645476Y-17583000D01*
X8626429Y-17554429D01*
X8616905Y-17544905D01*
D20*
X3703000Y-17876000D02*
X3845000Y-18018000D01*
X3845000Y-17876000D02*
X3703000Y-18018000D01*
X3774000Y-18018000D02*
X3845000Y-17947000D01*
X3774000Y-17876000D01*
X3703000Y-17947000D01*
X3774000Y-18018000D01*
D11*
X4207381Y-18037476D02*
X4093095Y-18037476D01*
X4150238Y-18037476D02*
X4150238Y-17837476D01*
X4131190Y-17866048D01*
X4112143Y-17885095D01*
X4093095Y-17894619D01*
X4293095Y-18018429D02*
X4302619Y-18027952D01*
X4293095Y-18037476D01*
X4283571Y-18027952D01*
X4293095Y-18018429D01*
X4293095Y-18037476D01*
X4474048Y-17904143D02*
X4474048Y-18037476D01*
X4426429Y-17827952D02*
X4378810Y-17970810D01*
X4502619Y-17970810D01*
X4569286Y-17856524D02*
X4578810Y-17847000D01*
X4597857Y-17837476D01*
X4645476Y-17837476D01*
X4664524Y-17847000D01*
X4674048Y-17856524D01*
X4683571Y-17875571D01*
X4683571Y-17894619D01*
X4674048Y-17923190D01*
X4559762Y-18037476D01*
X4683571Y-18037476D01*
X4807381Y-17837476D02*
X4826429Y-17837476D01*
X4845476Y-17847000D01*
X4855000Y-17856524D01*
X4864524Y-17875571D01*
X4874048Y-17913667D01*
X4874048Y-17961286D01*
X4864524Y-17999381D01*
X4855000Y-18018429D01*
X4845476Y-18027952D01*
X4826429Y-18037476D01*
X4807381Y-18037476D01*
X4788333Y-18027952D01*
X4778810Y-18018429D01*
X4769286Y-17999381D01*
X4759762Y-17961286D01*
X4759762Y-17913667D01*
X4769286Y-17875571D01*
X4778810Y-17856524D01*
X4788333Y-17847000D01*
X4807381Y-17837476D01*
X4959762Y-18037476D02*
X4959762Y-17904143D01*
X4959762Y-17923190D02*
X4969286Y-17913667D01*
X4988333Y-17904143D01*
X5016905Y-17904143D01*
X5035952Y-17913667D01*
X5045476Y-17932714D01*
X5045476Y-18037476D01*
X5045476Y-17932714D02*
X5055000Y-17913667D01*
X5074048Y-17904143D01*
X5102619Y-17904143D01*
X5121667Y-17913667D01*
X5131190Y-17932714D01*
X5131190Y-18037476D01*
X5226429Y-18037476D02*
X5226429Y-17904143D01*
X5226429Y-17923190D02*
X5235952Y-17913667D01*
X5255000Y-17904143D01*
X5283571Y-17904143D01*
X5302619Y-17913667D01*
X5312143Y-17932714D01*
X5312143Y-18037476D01*
X5312143Y-17932714D02*
X5321667Y-17913667D01*
X5340714Y-17904143D01*
X5369286Y-17904143D01*
X5388333Y-17913667D01*
X5397857Y-17932714D01*
X5397857Y-18037476D01*
X5788333Y-17827952D02*
X5616905Y-18085095D01*
X6045476Y-17837476D02*
X6064524Y-17837476D01*
X6083571Y-17847000D01*
X6093095Y-17856524D01*
X6102619Y-17875571D01*
X6112143Y-17913667D01*
X6112143Y-17961286D01*
X6102619Y-17999381D01*
X6093095Y-18018429D01*
X6083571Y-18027952D01*
X6064524Y-18037476D01*
X6045476Y-18037476D01*
X6026428Y-18027952D01*
X6016905Y-18018429D01*
X6007381Y-17999381D01*
X5997857Y-17961286D01*
X5997857Y-17913667D01*
X6007381Y-17875571D01*
X6016905Y-17856524D01*
X6026428Y-17847000D01*
X6045476Y-17837476D01*
X6197857Y-18018429D02*
X6207381Y-18027952D01*
X6197857Y-18037476D01*
X6188333Y-18027952D01*
X6197857Y-18018429D01*
X6197857Y-18037476D01*
X6331190Y-17837476D02*
X6350238Y-17837476D01*
X6369286Y-17847000D01*
X6378809Y-17856524D01*
X6388333Y-17875571D01*
X6397857Y-17913667D01*
X6397857Y-17961286D01*
X6388333Y-17999381D01*
X6378809Y-18018429D01*
X6369286Y-18027952D01*
X6350238Y-18037476D01*
X6331190Y-18037476D01*
X6312143Y-18027952D01*
X6302619Y-18018429D01*
X6293095Y-17999381D01*
X6283571Y-17961286D01*
X6283571Y-17913667D01*
X6293095Y-17875571D01*
X6302619Y-17856524D01*
X6312143Y-17847000D01*
X6331190Y-17837476D01*
X6578809Y-17837476D02*
X6483571Y-17837476D01*
X6474048Y-17932714D01*
X6483571Y-17923190D01*
X6502619Y-17913667D01*
X6550238Y-17913667D01*
X6569286Y-17923190D01*
X6578809Y-17932714D01*
X6588333Y-17951762D01*
X6588333Y-17999381D01*
X6578809Y-18018429D01*
X6569286Y-18027952D01*
X6550238Y-18037476D01*
X6502619Y-18037476D01*
X6483571Y-18027952D01*
X6474048Y-18018429D01*
X6769286Y-17837476D02*
X6674048Y-17837476D01*
X6664524Y-17932714D01*
X6674048Y-17923190D01*
X6693095Y-17913667D01*
X6740714Y-17913667D01*
X6759762Y-17923190D01*
X6769286Y-17932714D01*
X6778809Y-17951762D01*
X6778809Y-17999381D01*
X6769286Y-18018429D01*
X6759762Y-18027952D01*
X6740714Y-18037476D01*
X6693095Y-18037476D01*
X6674048Y-18027952D01*
X6664524Y-18018429D01*
X6874048Y-18037476D02*
X6912143Y-18037476D01*
X6931190Y-18027952D01*
X6940714Y-18018429D01*
X6959762Y-17989857D01*
X6969286Y-17951762D01*
X6969286Y-17875571D01*
X6959762Y-17856524D01*
X6950238Y-17847000D01*
X6931190Y-17837476D01*
X6893095Y-17837476D01*
X6874048Y-17847000D01*
X6864524Y-17856524D01*
X6855000Y-17875571D01*
X6855000Y-17923190D01*
X6864524Y-17942238D01*
X6874048Y-17951762D01*
X6893095Y-17961286D01*
X6931190Y-17961286D01*
X6950238Y-17951762D01*
X6959762Y-17942238D01*
X6969286Y-17923190D01*
X7045476Y-17837476D02*
X7045476Y-17875571D01*
X7121667Y-17837476D02*
X7121667Y-17875571D01*
X7416905Y-18113667D02*
X7407381Y-18104143D01*
X7388333Y-18075571D01*
X7378809Y-18056524D01*
X7369286Y-18027952D01*
X7359762Y-17980333D01*
X7359762Y-17942238D01*
X7369286Y-17894619D01*
X7378809Y-17866048D01*
X7388333Y-17847000D01*
X7407381Y-17818429D01*
X7416905Y-17808905D01*
X7578809Y-17837476D02*
X7540714Y-17837476D01*
X7521667Y-17847000D01*
X7512143Y-17856524D01*
X7493095Y-17885095D01*
X7483571Y-17923190D01*
X7483571Y-17999381D01*
X7493095Y-18018429D01*
X7502619Y-18027952D01*
X7521667Y-18037476D01*
X7559762Y-18037476D01*
X7578809Y-18027952D01*
X7588333Y-18018429D01*
X7597857Y-17999381D01*
X7597857Y-17951762D01*
X7588333Y-17932714D01*
X7578809Y-17923190D01*
X7559762Y-17913667D01*
X7521667Y-17913667D01*
X7502619Y-17923190D01*
X7493095Y-17932714D01*
X7483571Y-17951762D01*
X7835952Y-18037476D02*
X7835952Y-17837476D01*
X7921667Y-18037476D02*
X7921667Y-17932714D01*
X7912143Y-17913667D01*
X7893095Y-17904143D01*
X7864524Y-17904143D01*
X7845476Y-17913667D01*
X7835952Y-17923190D01*
X8045476Y-18037476D02*
X8026428Y-18027952D01*
X8016905Y-18018429D01*
X8007381Y-17999381D01*
X8007381Y-17942238D01*
X8016905Y-17923190D01*
X8026428Y-17913667D01*
X8045476Y-17904143D01*
X8074048Y-17904143D01*
X8093095Y-17913667D01*
X8102619Y-17923190D01*
X8112143Y-17942238D01*
X8112143Y-17999381D01*
X8102619Y-18018429D01*
X8093095Y-18027952D01*
X8074048Y-18037476D01*
X8045476Y-18037476D01*
X8226428Y-18037476D02*
X8207381Y-18027952D01*
X8197857Y-18008905D01*
X8197857Y-17837476D01*
X8378809Y-18027952D02*
X8359762Y-18037476D01*
X8321667Y-18037476D01*
X8302619Y-18027952D01*
X8293095Y-18008905D01*
X8293095Y-17932714D01*
X8302619Y-17913667D01*
X8321667Y-17904143D01*
X8359762Y-17904143D01*
X8378809Y-17913667D01*
X8388333Y-17932714D01*
X8388333Y-17951762D01*
X8293095Y-17970810D01*
X8464524Y-18027952D02*
X8483571Y-18037476D01*
X8521667Y-18037476D01*
X8540714Y-18027952D01*
X8550238Y-18008905D01*
X8550238Y-17999381D01*
X8540714Y-17980333D01*
X8521667Y-17970810D01*
X8493095Y-17970810D01*
X8474048Y-17961286D01*
X8464524Y-17942238D01*
X8464524Y-17932714D01*
X8474048Y-17913667D01*
X8493095Y-17904143D01*
X8521667Y-17904143D01*
X8540714Y-17913667D01*
X8616905Y-18113667D02*
X8626429Y-18104143D01*
X8645476Y-18075571D01*
X8655000Y-18056524D01*
X8664524Y-18027952D01*
X8674048Y-17980333D01*
X8674048Y-17942238D01*
X8664524Y-17894619D01*
X8655000Y-17866048D01*
X8645476Y-17847000D01*
X8626429Y-17818429D01*
X8616905Y-17808905D01*
D21*
X3773500Y-18139500D02*
X3773500Y-18282500D01*
X3702000Y-18211000D02*
X3845000Y-18211000D01*
X3845000Y-18211000D02*
G75*
G03*
X3845000Y-18211000I-71500J0D01*
G01*
D11*
X4207381Y-18301476D02*
X4093095Y-18301476D01*
X4150238Y-18301476D02*
X4150238Y-18101476D01*
X4131190Y-18130048D01*
X4112143Y-18149095D01*
X4093095Y-18158619D01*
X4293095Y-18282429D02*
X4302619Y-18291952D01*
X4293095Y-18301476D01*
X4283571Y-18291952D01*
X4293095Y-18282429D01*
X4293095Y-18301476D01*
X4474048Y-18168143D02*
X4474048Y-18301476D01*
X4426429Y-18091952D02*
X4378810Y-18234810D01*
X4502619Y-18234810D01*
X4559762Y-18101476D02*
X4683571Y-18101476D01*
X4616905Y-18177667D01*
X4645476Y-18177667D01*
X4664524Y-18187190D01*
X4674048Y-18196714D01*
X4683571Y-18215762D01*
X4683571Y-18263381D01*
X4674048Y-18282429D01*
X4664524Y-18291952D01*
X4645476Y-18301476D01*
X4588333Y-18301476D01*
X4569286Y-18291952D01*
X4559762Y-18282429D01*
X4807381Y-18101476D02*
X4826429Y-18101476D01*
X4845476Y-18111000D01*
X4855000Y-18120524D01*
X4864524Y-18139571D01*
X4874048Y-18177667D01*
X4874048Y-18225286D01*
X4864524Y-18263381D01*
X4855000Y-18282429D01*
X4845476Y-18291952D01*
X4826429Y-18301476D01*
X4807381Y-18301476D01*
X4788333Y-18291952D01*
X4778810Y-18282429D01*
X4769286Y-18263381D01*
X4759762Y-18225286D01*
X4759762Y-18177667D01*
X4769286Y-18139571D01*
X4778810Y-18120524D01*
X4788333Y-18111000D01*
X4807381Y-18101476D01*
X4959762Y-18301476D02*
X4959762Y-18168143D01*
X4959762Y-18187190D02*
X4969286Y-18177667D01*
X4988333Y-18168143D01*
X5016905Y-18168143D01*
X5035952Y-18177667D01*
X5045476Y-18196714D01*
X5045476Y-18301476D01*
X5045476Y-18196714D02*
X5055000Y-18177667D01*
X5074048Y-18168143D01*
X5102619Y-18168143D01*
X5121667Y-18177667D01*
X5131190Y-18196714D01*
X5131190Y-18301476D01*
X5226429Y-18301476D02*
X5226429Y-18168143D01*
X5226429Y-18187190D02*
X5235952Y-18177667D01*
X5255000Y-18168143D01*
X5283571Y-18168143D01*
X5302619Y-18177667D01*
X5312143Y-18196714D01*
X5312143Y-18301476D01*
X5312143Y-18196714D02*
X5321667Y-18177667D01*
X5340714Y-18168143D01*
X5369286Y-18168143D01*
X5388333Y-18177667D01*
X5397857Y-18196714D01*
X5397857Y-18301476D01*
X5788333Y-18091952D02*
X5616905Y-18349095D01*
X6045476Y-18101476D02*
X6064524Y-18101476D01*
X6083571Y-18111000D01*
X6093095Y-18120524D01*
X6102619Y-18139571D01*
X6112143Y-18177667D01*
X6112143Y-18225286D01*
X6102619Y-18263381D01*
X6093095Y-18282429D01*
X6083571Y-18291952D01*
X6064524Y-18301476D01*
X6045476Y-18301476D01*
X6026428Y-18291952D01*
X6016905Y-18282429D01*
X6007381Y-18263381D01*
X5997857Y-18225286D01*
X5997857Y-18177667D01*
X6007381Y-18139571D01*
X6016905Y-18120524D01*
X6026428Y-18111000D01*
X6045476Y-18101476D01*
X6197857Y-18282429D02*
X6207381Y-18291952D01*
X6197857Y-18301476D01*
X6188333Y-18291952D01*
X6197857Y-18282429D01*
X6197857Y-18301476D01*
X6331190Y-18101476D02*
X6350238Y-18101476D01*
X6369286Y-18111000D01*
X6378809Y-18120524D01*
X6388333Y-18139571D01*
X6397857Y-18177667D01*
X6397857Y-18225286D01*
X6388333Y-18263381D01*
X6378809Y-18282429D01*
X6369286Y-18291952D01*
X6350238Y-18301476D01*
X6331190Y-18301476D01*
X6312143Y-18291952D01*
X6302619Y-18282429D01*
X6293095Y-18263381D01*
X6283571Y-18225286D01*
X6283571Y-18177667D01*
X6293095Y-18139571D01*
X6302619Y-18120524D01*
X6312143Y-18111000D01*
X6331190Y-18101476D01*
X6578809Y-18101476D02*
X6483571Y-18101476D01*
X6474048Y-18196714D01*
X6483571Y-18187190D01*
X6502619Y-18177667D01*
X6550238Y-18177667D01*
X6569286Y-18187190D01*
X6578809Y-18196714D01*
X6588333Y-18215762D01*
X6588333Y-18263381D01*
X6578809Y-18282429D01*
X6569286Y-18291952D01*
X6550238Y-18301476D01*
X6502619Y-18301476D01*
X6483571Y-18291952D01*
X6474048Y-18282429D01*
X6759762Y-18101476D02*
X6721667Y-18101476D01*
X6702619Y-18111000D01*
X6693095Y-18120524D01*
X6674048Y-18149095D01*
X6664524Y-18187190D01*
X6664524Y-18263381D01*
X6674048Y-18282429D01*
X6683571Y-18291952D01*
X6702619Y-18301476D01*
X6740714Y-18301476D01*
X6759762Y-18291952D01*
X6769286Y-18282429D01*
X6778809Y-18263381D01*
X6778809Y-18215762D01*
X6769286Y-18196714D01*
X6759762Y-18187190D01*
X6740714Y-18177667D01*
X6702619Y-18177667D01*
X6683571Y-18187190D01*
X6674048Y-18196714D01*
X6664524Y-18215762D01*
X6845476Y-18101476D02*
X6969286Y-18101476D01*
X6902619Y-18177667D01*
X6931190Y-18177667D01*
X6950238Y-18187190D01*
X6959762Y-18196714D01*
X6969286Y-18215762D01*
X6969286Y-18263381D01*
X6959762Y-18282429D01*
X6950238Y-18291952D01*
X6931190Y-18301476D01*
X6874048Y-18301476D01*
X6855000Y-18291952D01*
X6845476Y-18282429D01*
X7045476Y-18101476D02*
X7045476Y-18139571D01*
X7121667Y-18101476D02*
X7121667Y-18139571D01*
X7416905Y-18377667D02*
X7407381Y-18368143D01*
X7388333Y-18339571D01*
X7378809Y-18320524D01*
X7369286Y-18291952D01*
X7359762Y-18244333D01*
X7359762Y-18206238D01*
X7369286Y-18158619D01*
X7378809Y-18130048D01*
X7388333Y-18111000D01*
X7407381Y-18082429D01*
X7416905Y-18072905D01*
X7578809Y-18101476D02*
X7540714Y-18101476D01*
X7521667Y-18111000D01*
X7512143Y-18120524D01*
X7493095Y-18149095D01*
X7483571Y-18187190D01*
X7483571Y-18263381D01*
X7493095Y-18282429D01*
X7502619Y-18291952D01*
X7521667Y-18301476D01*
X7559762Y-18301476D01*
X7578809Y-18291952D01*
X7588333Y-18282429D01*
X7597857Y-18263381D01*
X7597857Y-18215762D01*
X7588333Y-18196714D01*
X7578809Y-18187190D01*
X7559762Y-18177667D01*
X7521667Y-18177667D01*
X7502619Y-18187190D01*
X7493095Y-18196714D01*
X7483571Y-18215762D01*
X7835952Y-18301476D02*
X7835952Y-18101476D01*
X7921667Y-18301476D02*
X7921667Y-18196714D01*
X7912143Y-18177667D01*
X7893095Y-18168143D01*
X7864524Y-18168143D01*
X7845476Y-18177667D01*
X7835952Y-18187190D01*
X8045476Y-18301476D02*
X8026428Y-18291952D01*
X8016905Y-18282429D01*
X8007381Y-18263381D01*
X8007381Y-18206238D01*
X8016905Y-18187190D01*
X8026428Y-18177667D01*
X8045476Y-18168143D01*
X8074048Y-18168143D01*
X8093095Y-18177667D01*
X8102619Y-18187190D01*
X8112143Y-18206238D01*
X8112143Y-18263381D01*
X8102619Y-18282429D01*
X8093095Y-18291952D01*
X8074048Y-18301476D01*
X8045476Y-18301476D01*
X8226428Y-18301476D02*
X8207381Y-18291952D01*
X8197857Y-18272905D01*
X8197857Y-18101476D01*
X8378809Y-18291952D02*
X8359762Y-18301476D01*
X8321667Y-18301476D01*
X8302619Y-18291952D01*
X8293095Y-18272905D01*
X8293095Y-18196714D01*
X8302619Y-18177667D01*
X8321667Y-18168143D01*
X8359762Y-18168143D01*
X8378809Y-18177667D01*
X8388333Y-18196714D01*
X8388333Y-18215762D01*
X8293095Y-18234810D01*
X8464524Y-18291952D02*
X8483571Y-18301476D01*
X8521667Y-18301476D01*
X8540714Y-18291952D01*
X8550238Y-18272905D01*
X8550238Y-18263381D01*
X8540714Y-18244333D01*
X8521667Y-18234810D01*
X8493095Y-18234810D01*
X8474048Y-18225286D01*
X8464524Y-18206238D01*
X8464524Y-18196714D01*
X8474048Y-18177667D01*
X8493095Y-18168143D01*
X8521667Y-18168143D01*
X8540714Y-18177667D01*
X8616905Y-18377667D02*
X8626429Y-18368143D01*
X8645476Y-18339571D01*
X8655000Y-18320524D01*
X8664524Y-18291952D01*
X8674048Y-18244333D01*
X8674048Y-18206238D01*
X8664524Y-18158619D01*
X8655000Y-18130048D01*
X8645476Y-18111000D01*
X8626429Y-18082429D01*
X8616905Y-18072905D01*
X3815711Y-18545711D02*
X3815711Y-18404289D01*
X3674289Y-18404289D01*
X3674289Y-18545711D01*
X3815711Y-18545711D01*
X3845000Y-18475000D02*
G75*
G03*
X3845000Y-18475000I-100000J0D01*
G01*
X4083571Y-18365476D02*
X4207381Y-18365476D01*
X4140714Y-18441667D01*
X4169286Y-18441667D01*
X4188333Y-18451190D01*
X4197857Y-18460714D01*
X4207381Y-18479762D01*
X4207381Y-18527381D01*
X4197857Y-18546429D01*
X4188333Y-18555952D01*
X4169286Y-18565476D01*
X4112143Y-18565476D01*
X4093095Y-18555952D01*
X4083571Y-18546429D01*
X4293095Y-18546429D02*
X4302619Y-18555952D01*
X4293095Y-18565476D01*
X4283571Y-18555952D01*
X4293095Y-18546429D01*
X4293095Y-18565476D01*
X4426429Y-18365476D02*
X4445476Y-18365476D01*
X4464524Y-18375000D01*
X4474048Y-18384524D01*
X4483571Y-18403571D01*
X4493095Y-18441667D01*
X4493095Y-18489286D01*
X4483571Y-18527381D01*
X4474048Y-18546429D01*
X4464524Y-18555952D01*
X4445476Y-18565476D01*
X4426429Y-18565476D01*
X4407381Y-18555952D01*
X4397857Y-18546429D01*
X4388333Y-18527381D01*
X4378810Y-18489286D01*
X4378810Y-18441667D01*
X4388333Y-18403571D01*
X4397857Y-18384524D01*
X4407381Y-18375000D01*
X4426429Y-18365476D01*
X4616905Y-18365476D02*
X4635952Y-18365476D01*
X4655000Y-18375000D01*
X4664524Y-18384524D01*
X4674048Y-18403571D01*
X4683571Y-18441667D01*
X4683571Y-18489286D01*
X4674048Y-18527381D01*
X4664524Y-18546429D01*
X4655000Y-18555952D01*
X4635952Y-18565476D01*
X4616905Y-18565476D01*
X4597857Y-18555952D01*
X4588333Y-18546429D01*
X4578810Y-18527381D01*
X4569286Y-18489286D01*
X4569286Y-18441667D01*
X4578810Y-18403571D01*
X4588333Y-18384524D01*
X4597857Y-18375000D01*
X4616905Y-18365476D01*
X4807381Y-18365476D02*
X4826429Y-18365476D01*
X4845476Y-18375000D01*
X4855000Y-18384524D01*
X4864524Y-18403571D01*
X4874048Y-18441667D01*
X4874048Y-18489286D01*
X4864524Y-18527381D01*
X4855000Y-18546429D01*
X4845476Y-18555952D01*
X4826429Y-18565476D01*
X4807381Y-18565476D01*
X4788333Y-18555952D01*
X4778810Y-18546429D01*
X4769286Y-18527381D01*
X4759762Y-18489286D01*
X4759762Y-18441667D01*
X4769286Y-18403571D01*
X4778810Y-18384524D01*
X4788333Y-18375000D01*
X4807381Y-18365476D01*
X4959762Y-18565476D02*
X4959762Y-18432143D01*
X4959762Y-18451190D02*
X4969286Y-18441667D01*
X4988333Y-18432143D01*
X5016905Y-18432143D01*
X5035952Y-18441667D01*
X5045476Y-18460714D01*
X5045476Y-18565476D01*
X5045476Y-18460714D02*
X5055000Y-18441667D01*
X5074048Y-18432143D01*
X5102619Y-18432143D01*
X5121667Y-18441667D01*
X5131190Y-18460714D01*
X5131190Y-18565476D01*
X5226429Y-18565476D02*
X5226429Y-18432143D01*
X5226429Y-18451190D02*
X5235952Y-18441667D01*
X5255000Y-18432143D01*
X5283571Y-18432143D01*
X5302619Y-18441667D01*
X5312143Y-18460714D01*
X5312143Y-18565476D01*
X5312143Y-18460714D02*
X5321667Y-18441667D01*
X5340714Y-18432143D01*
X5369286Y-18432143D01*
X5388333Y-18441667D01*
X5397857Y-18460714D01*
X5397857Y-18565476D01*
X5788333Y-18355952D02*
X5616905Y-18613095D01*
X6045476Y-18365476D02*
X6064524Y-18365476D01*
X6083571Y-18375000D01*
X6093095Y-18384524D01*
X6102619Y-18403571D01*
X6112143Y-18441667D01*
X6112143Y-18489286D01*
X6102619Y-18527381D01*
X6093095Y-18546429D01*
X6083571Y-18555952D01*
X6064524Y-18565476D01*
X6045476Y-18565476D01*
X6026428Y-18555952D01*
X6016905Y-18546429D01*
X6007381Y-18527381D01*
X5997857Y-18489286D01*
X5997857Y-18441667D01*
X6007381Y-18403571D01*
X6016905Y-18384524D01*
X6026428Y-18375000D01*
X6045476Y-18365476D01*
X6197857Y-18546429D02*
X6207381Y-18555952D01*
X6197857Y-18565476D01*
X6188333Y-18555952D01*
X6197857Y-18546429D01*
X6197857Y-18565476D01*
X6397857Y-18565476D02*
X6283571Y-18565476D01*
X6340714Y-18565476D02*
X6340714Y-18365476D01*
X6321667Y-18394048D01*
X6302619Y-18413095D01*
X6283571Y-18422619D01*
X6588333Y-18565476D02*
X6474048Y-18565476D01*
X6531190Y-18565476D02*
X6531190Y-18365476D01*
X6512143Y-18394048D01*
X6493095Y-18413095D01*
X6474048Y-18422619D01*
X6702619Y-18451190D02*
X6683571Y-18441667D01*
X6674048Y-18432143D01*
X6664524Y-18413095D01*
X6664524Y-18403571D01*
X6674048Y-18384524D01*
X6683571Y-18375000D01*
X6702619Y-18365476D01*
X6740714Y-18365476D01*
X6759762Y-18375000D01*
X6769286Y-18384524D01*
X6778809Y-18403571D01*
X6778809Y-18413095D01*
X6769286Y-18432143D01*
X6759762Y-18441667D01*
X6740714Y-18451190D01*
X6702619Y-18451190D01*
X6683571Y-18460714D01*
X6674048Y-18470238D01*
X6664524Y-18489286D01*
X6664524Y-18527381D01*
X6674048Y-18546429D01*
X6683571Y-18555952D01*
X6702619Y-18565476D01*
X6740714Y-18565476D01*
X6759762Y-18555952D01*
X6769286Y-18546429D01*
X6778809Y-18527381D01*
X6778809Y-18489286D01*
X6769286Y-18470238D01*
X6759762Y-18460714D01*
X6740714Y-18451190D01*
X6969286Y-18565476D02*
X6855000Y-18565476D01*
X6912143Y-18565476D02*
X6912143Y-18365476D01*
X6893095Y-18394048D01*
X6874048Y-18413095D01*
X6855000Y-18422619D01*
X7045476Y-18365476D02*
X7045476Y-18403571D01*
X7121667Y-18365476D02*
X7121667Y-18403571D01*
X7416905Y-18641667D02*
X7407381Y-18632143D01*
X7388333Y-18603571D01*
X7378809Y-18584524D01*
X7369286Y-18555952D01*
X7359762Y-18508333D01*
X7359762Y-18470238D01*
X7369286Y-18422619D01*
X7378809Y-18394048D01*
X7388333Y-18375000D01*
X7407381Y-18346429D01*
X7416905Y-18336905D01*
X7578809Y-18432143D02*
X7578809Y-18565476D01*
X7531190Y-18355952D02*
X7483571Y-18498810D01*
X7607381Y-18498810D01*
X7835952Y-18565476D02*
X7835952Y-18365476D01*
X7921667Y-18565476D02*
X7921667Y-18460714D01*
X7912143Y-18441667D01*
X7893095Y-18432143D01*
X7864524Y-18432143D01*
X7845476Y-18441667D01*
X7835952Y-18451190D01*
X8045476Y-18565476D02*
X8026428Y-18555952D01*
X8016905Y-18546429D01*
X8007381Y-18527381D01*
X8007381Y-18470238D01*
X8016905Y-18451190D01*
X8026428Y-18441667D01*
X8045476Y-18432143D01*
X8074048Y-18432143D01*
X8093095Y-18441667D01*
X8102619Y-18451190D01*
X8112143Y-18470238D01*
X8112143Y-18527381D01*
X8102619Y-18546429D01*
X8093095Y-18555952D01*
X8074048Y-18565476D01*
X8045476Y-18565476D01*
X8226428Y-18565476D02*
X8207381Y-18555952D01*
X8197857Y-18536905D01*
X8197857Y-18365476D01*
X8378809Y-18555952D02*
X8359762Y-18565476D01*
X8321667Y-18565476D01*
X8302619Y-18555952D01*
X8293095Y-18536905D01*
X8293095Y-18460714D01*
X8302619Y-18441667D01*
X8321667Y-18432143D01*
X8359762Y-18432143D01*
X8378809Y-18441667D01*
X8388333Y-18460714D01*
X8388333Y-18479762D01*
X8293095Y-18498810D01*
X8464524Y-18555952D02*
X8483571Y-18565476D01*
X8521667Y-18565476D01*
X8540714Y-18555952D01*
X8550238Y-18536905D01*
X8550238Y-18527381D01*
X8540714Y-18508333D01*
X8521667Y-18498810D01*
X8493095Y-18498810D01*
X8474048Y-18489286D01*
X8464524Y-18470238D01*
X8464524Y-18460714D01*
X8474048Y-18441667D01*
X8493095Y-18432143D01*
X8521667Y-18432143D01*
X8540714Y-18441667D01*
X8616905Y-18641667D02*
X8626429Y-18632143D01*
X8645476Y-18603571D01*
X8655000Y-18584524D01*
X8664524Y-18555952D01*
X8674048Y-18508333D01*
X8674048Y-18470238D01*
X8664524Y-18422619D01*
X8655000Y-18394048D01*
X8645476Y-18375000D01*
X8626429Y-18346429D01*
X8616905Y-18336905D01*
M02*
