M48
; DRILL file {KiCad 5.99.0-unknown-fb4343bc8f~130~ubuntu20.04.1} date Mon Jun 28 22:26:46 2021
; FORMAT={-:-/ absolute / metric / decimal}
; #@! TF.CreationDate,2021-06-28T22:26:46+02:00
; #@! TF.GenerationSoftware,Kicad,Pcbnew,5.99.0-unknown-fb4343bc8f~130~ubuntu20.04.1
; #@! TF.FileFunction,Plated,1,2,PTH
FMAT,2
METRIC
; #@! TA.AperFunction,Plated,PTH,ViaDrill
T1C0.400
; #@! TA.AperFunction,Plated,PTH,ViaDrill
T2C0.600
; #@! TA.AperFunction,Plated,PTH,ComponentDrill
T3C0.750
; #@! TA.AperFunction,Plated,PTH,ComponentDrill
T4C0.800
; #@! TA.AperFunction,Plated,PTH,ComponentDrill
T5C0.900
; #@! TA.AperFunction,Plated,PTH,ComponentDrill
T6C1.000
; #@! TA.AperFunction,Plated,PTH,ComponentDrill
T7C1.100
; #@! TA.AperFunction,Plated,PTH,ComponentDrill
T8C1.220
; #@! TA.AperFunction,Plated,PTH,ComponentDrill
T9C1.420
; #@! TA.AperFunction,Plated,PTH,ComponentDrill
T10C1.430
; #@! TA.AperFunction,Plated,PTH,ComponentDrill
T11C3.000
%
G90
G05
T1
X42.95Y-121.4
X48.036Y-129.586
X50.7Y-121.1
X50.75Y-123.9
X50.8Y-125.25
X52.589Y-123.339
X52.799Y-90.25
X53.743Y-90.815
X68.65Y-113.25
X69.6Y-112.35
X72.2Y-107.1
X74.45Y-107.6
X75.599Y-74.1
X81.9Y-130.45
X81.95Y-125.3
X81.95Y-127.85
X85.05Y-129.1
X85.1Y-130.4
X85.15Y-132.9
X85.15Y-134.0
X87.4Y-90.95
X87.75Y-132.75
X90.4Y-132.75
X94.0Y-132.5
X94.05Y-82.5
X96.65Y-83.35
X98.649Y-94.5
X99.2Y-91.15
X104.2Y-129.05
T2
X39.75Y-119.0
X39.9Y-144.75
X40.35Y-59.3
X40.6Y-150.15
X41.4Y-73.25
X42.25Y-95.95
X42.4Y-132.25
X42.5Y-127.3
X43.15Y-82.35
X43.6Y-110.55
X44.45Y-141.05
X45.15Y-116.75
X45.45Y-126.5
X45.75Y-104.0
X46.8Y-57.25
X47.6Y-120.3
X48.5Y-111.2
X49.0Y-75.1
X50.15Y-104.7
X50.3Y-108.85
X50.35Y-132.35
X50.4Y-144.65
X51.0Y-129.0
X51.75Y-96.05
X51.8Y-150.0
X52.15Y-137.85
X52.6Y-126.75
X53.05Y-102.2
X53.15Y-67.0
X55.3Y-129.8
X55.4Y-75.55
X57.6Y-105.4
X58.4Y-90.3
X58.45Y-83.7
X58.65Y-65.4
X60.75Y-125.05
X60.75Y-144.55
X61.0Y-132.7
X61.9Y-111.2
X62.2Y-71.45
X62.5Y-81.7
X62.55Y-149.85
X62.6Y-74.85
X62.75Y-137.5
X64.5Y-102.55
X67.6Y-56.95
X67.9Y-90.25
X68.7Y-74.55
X68.95Y-81.05
X69.1Y-96.8
X69.55Y-120.5
X70.2Y-116.5
X70.8Y-125.6
X71.1Y-144.8
X71.25Y-140.45
X72.75Y-111.45
X73.45Y-149.85
X74.7Y-145.3
X74.75Y-115.15
X74.8Y-58.6
X80.3Y-87.2
X80.95Y-149.35
X81.05Y-64.1
X81.05Y-67.25
X81.15Y-55.15
X81.15Y-98.9
X81.2Y-142.65
X81.35Y-118.8
X81.4Y-116.65
X81.45Y-75.2
X81.45Y-78.95
X81.45Y-82.95
X82.6Y-94.7
X84.5Y-98.8
X84.5Y-102.4
X84.75Y-138.4
X84.95Y-110.8
X85.0Y-86.7
X85.1Y-82.2
X85.15Y-78.95
X85.2Y-67.25
X85.25Y-64.05
X85.45Y-115.9
X85.45Y-120.4
X85.452Y-122.952
X86.45Y-74.9
X86.5Y-135.1
X87.45Y-126.1
X88.05Y-111.0
X88.5Y-106.2
X88.85Y-99.15
X88.95Y-115.65
X89.05Y-122.35
X89.35Y-54.95
X89.4Y-94.25
X90.9Y-127.25
X90.95Y-77.85
X91.05Y-135.1
X91.2Y-73.15
X91.6Y-60.55
X91.9Y-69.45
X92.05Y-86.9
X92.2Y-118.05
X93.15Y-108.45
X93.85Y-66.05
X94.7Y-79.15
X94.75Y-74.1
X95.3Y-122.1
X95.4Y-92.1
X95.95Y-102.0
X96.1Y-97.7
X97.7Y-110.3
X98.4Y-136.0
X99.15Y-62.6
X99.35Y-71.95
X99.45Y-82.25
X100.85Y-112.15
X102.4Y-53.75
X102.9Y-93.0
X103.55Y-148.95
X103.95Y-123.3
X105.2Y-130.55
X105.4Y-69.3
X105.4Y-76.55
X105.6Y-63.6
X105.65Y-58.1
X105.65Y-88.55
X105.7Y-82.9
X106.05Y-127.65
X106.5Y-116.2
X107.45Y-92.9
X107.7Y-123.8
X111.85Y-127.7
X111.9Y-59.7
X112.0Y-124.25
X112.05Y-86.2
X113.35Y-116.85
X113.55Y-111.15
X114.3Y-149.5
X114.4Y-143.45
T3
X95.38Y-104.63
X95.38Y-105.9
X95.38Y-107.17
X99.377Y-104.63
X99.377Y-105.9
X99.377Y-107.17
T4
X44.15Y-114.45
X46.65Y-114.45
X49.15Y-114.45
X55.5Y-71.99
X55.5Y-79.61
X55.5Y-86.74
X55.5Y-94.36
X55.5Y-100.99
X55.5Y-108.61
X58.95Y-61.89
X58.95Y-69.51
X58.95Y-71.99
X58.95Y-79.61
X58.95Y-86.74
X58.95Y-94.36
X58.95Y-100.99
X58.95Y-108.61
X64.14Y-89.9
X65.7Y-111.89
X65.7Y-119.51
X71.76Y-89.9
X80.45Y-73.19
X80.75Y-57.85
X81.05Y-61.89
X81.05Y-69.51
X82.2Y-89.995
X82.2Y-92.495
X82.84Y-113.5
X82.89Y-100.65
X82.89Y-104.1
X82.95Y-97.2
X84.02Y-108.7
X84.85Y-143.35
X85.2Y-76.84
X85.2Y-84.46
X85.25Y-61.88
X85.25Y-69.5
X85.45Y-73.19
X86.56Y-108.7
X87.515Y-131.13
X87.515Y-138.75
X88.37Y-57.85
X88.62Y-62.725
X88.62Y-65.265
X88.62Y-67.805
X88.62Y-70.345
X88.62Y-72.885
X88.62Y-75.425
X88.62Y-77.965
X88.62Y-80.505
X89.1Y-108.7
X89.7Y-84.54
X89.7Y-89.34
X89.72Y-125.7
X89.85Y-143.35
X90.055Y-131.13
X90.055Y-138.75
X90.46Y-113.5
X90.51Y-100.65
X90.51Y-104.1
X90.57Y-97.2
X90.66Y-147.65
X92.26Y-125.7
X92.595Y-131.13
X92.595Y-138.75
X93.065Y-143.355
X93.54Y-97.2
X93.54Y-100.65
X94.7Y-84.54
X94.7Y-89.34
X94.8Y-125.7
X95.135Y-131.13
X95.135Y-138.75
X96.24Y-62.725
X96.24Y-65.265
X96.24Y-67.805
X96.24Y-70.345
X96.24Y-72.885
X96.24Y-75.425
X96.24Y-77.965
X96.24Y-80.505
X97.675Y-131.13
X97.675Y-138.75
X98.065Y-143.355
X98.28Y-147.65
X99.45Y-68.13
X99.45Y-75.75
X99.45Y-79.32
X99.45Y-86.94
X100.215Y-131.13
X100.215Y-138.75
X100.9Y-125.7
X101.16Y-97.2
X101.16Y-100.65
X102.1Y-60.39
X102.1Y-65.39
X102.755Y-131.13
X102.755Y-138.75
X102.8Y-68.13
X102.8Y-75.75
X102.85Y-79.33
X102.85Y-86.95
X102.9Y-144.05
X103.44Y-125.7
X104.05Y-100.65
X104.05Y-104.15
X104.05Y-107.75
X104.08Y-97.15
X104.7Y-112.7
X104.7Y-120.32
X105.44Y-144.05
X105.98Y-125.7
X107.1Y-132.2
X107.1Y-137.2
X107.68Y-60.8
X107.7Y-85.39
X107.98Y-144.05
X108.15Y-112.69
X108.15Y-120.31
X110.6Y-90.95
X110.682Y-55.4
X111.67Y-100.65
X111.67Y-104.15
X111.67Y-107.75
X111.7Y-97.15
X113.1Y-90.95
X113.182Y-55.4
X115.3Y-60.8
X115.32Y-85.39
T5
X44.5Y-67.67
X44.5Y-70.21
X44.5Y-88.8
X44.5Y-91.34
X49.0Y-67.66
X49.0Y-70.2
X49.0Y-88.79
X49.0Y-91.33
X65.55Y-64.685
X65.55Y-67.225
X70.05Y-64.675
X70.05Y-67.215
T6
X40.25Y-121.5
X40.25Y-124.04
X40.25Y-126.58
X40.25Y-129.12
X40.25Y-131.66
X40.25Y-134.2
X40.25Y-136.74
X40.25Y-139.28
X44.2Y-85.9
X44.2Y-107.0
X44.4Y-62.325
X46.7Y-85.9
X46.7Y-107.0
X46.9Y-62.325
X49.2Y-85.9
X49.2Y-107.0
X49.4Y-62.325
X65.1Y-107.0
X65.2Y-85.9
X65.3Y-62.375
X67.6Y-107.0
X67.7Y-85.9
X67.8Y-62.375
X70.1Y-107.0
X70.2Y-85.9
X70.3Y-62.375
X74.7Y-121.5
X74.7Y-124.04
X74.7Y-126.58
X74.7Y-129.12
X74.7Y-131.66
X74.7Y-134.2
X74.7Y-136.74
X74.7Y-139.28
X80.3Y-121.45
X80.3Y-123.99
X80.3Y-126.53
X80.3Y-129.07
X80.3Y-131.61
X80.3Y-134.15
X80.3Y-136.69
X80.3Y-139.23
X110.612Y-68.02
X110.612Y-70.56
X110.612Y-73.1
X110.612Y-75.64
X110.612Y-78.18
X113.152Y-68.02
X113.152Y-70.56
X113.152Y-73.1
X113.152Y-75.64
X113.152Y-78.18
X114.75Y-121.45
X114.75Y-123.99
X114.75Y-126.53
X114.75Y-129.07
X114.75Y-131.61
X114.75Y-134.15
X114.75Y-136.69
X114.75Y-139.23
T8
X47.1Y-135.88
X47.1Y-150.48
X57.5Y-135.86
X57.5Y-150.48
X67.9Y-135.88
X67.9Y-150.48
T9
X47.1Y-132.78
X47.1Y-147.38
X57.5Y-132.76
X57.5Y-147.38
X67.9Y-132.78
X67.9Y-147.38
T10
X47.1Y-124.48
X47.1Y-139.08
X57.5Y-124.46
X57.5Y-139.08
X67.9Y-124.48
X67.9Y-139.08
T11
X57.35Y-55.2
X57.35Y-116.0
X97.35Y-55.15
X97.35Y-115.95
T7
X41.9Y-78.75G85X41.9Y-78.05
G05
X41.9Y-99.85G85X41.9Y-99.15
G05
X42.1Y-55.175G85X42.1Y-54.475
G05
X51.5Y-78.75G85X51.5Y-78.05
G05
X51.5Y-99.85G85X51.5Y-99.15
G05
X51.7Y-55.175G85X51.7Y-54.475
G05
X62.8Y-99.85G85X62.8Y-99.15
G05
X62.9Y-78.75G85X62.9Y-78.05
G05
X63.0Y-55.225G85X63.0Y-54.525
G05
X72.4Y-99.85G85X72.4Y-99.15
G05
X72.5Y-78.75G85X72.5Y-78.05
G05
X72.6Y-55.225G85X72.6Y-54.525
G05
T0
M30
