M48
; DRILL file {KiCad 5.99.0-unknown-3763aca52c~129~ubuntu20.04.1} date Mon Jun 21 22:09:50 2021
; FORMAT={-:-/ absolute / metric / decimal}
; #@! TF.CreationDate,2021-06-21T22:09:50+02:00
; #@! TF.GenerationSoftware,Kicad,Pcbnew,5.99.0-unknown-3763aca52c~129~ubuntu20.04.1
; #@! TF.FileFunction,Plated,1,2,PTH
FMAT,2
METRIC
; #@! TA.AperFunction,Plated,PTH,ViaDrill
T1C0.400
; #@! TA.AperFunction,Plated,PTH,ViaDrill
T2C0.500
; #@! TA.AperFunction,Plated,PTH,ComponentDrill
T3C0.750
; #@! TA.AperFunction,Plated,PTH,ComponentDrill
T4C0.800
; #@! TA.AperFunction,Plated,PTH,ComponentDrill
T5C1.000
; #@! TA.AperFunction,Plated,PTH,ComponentDrill
T6C1.100
; #@! TA.AperFunction,Plated,PTH,ComponentDrill
T7C1.220
; #@! TA.AperFunction,Plated,PTH,ComponentDrill
T8C1.420
; #@! TA.AperFunction,Plated,PTH,ComponentDrill
T9C1.430
; #@! TA.AperFunction,Plated,PTH,ComponentDrill
T10C3.200
%
G90
G05
T1
X111.886Y-100.086
X151.3Y-119.75
X152.6Y-121.05
X160.9Y-126.35
X162.2Y-124.85
X163.9Y-71.65
X168.7Y-70.65
X171.7Y-70.35
X172.2Y-101.45
X172.3Y-105.15
X174.2Y-103.65
X175.1Y-101.55
X175.2Y-83.55
X176.2Y-85.85
X176.7Y-79.75
X179.6Y-82.45
X180.1Y-85.85
X181.0Y-79.35
X181.7Y-84.55
X183.1Y-80.65
X188.5Y-94.55
X188.5Y-96.25
T2
X100.3Y-134.8
X101.0Y-105.6
X101.0Y-109.6
X101.2Y-73.5
X101.3Y-83.9
X101.4Y-118.3
X102.3Y-62.0
X104.8Y-95.0
X107.4Y-123.6
X107.8Y-118.5
X107.9Y-101.1
X109.8Y-73.2
X110.9Y-135.2
X112.6Y-57.6
X115.6Y-118.1
X116.1Y-99.4
X118.6Y-72.2
X121.0Y-87.7
X121.0Y-100.4
X122.1Y-111.7
X122.2Y-120.6
X122.4Y-135.0
X123.0Y-63.7
X123.6Y-79.9
X127.0Y-108.5
X127.1Y-92.2
X127.2Y-99.1
X127.5Y-72.8
X127.6Y-86.0
X131.1Y-96.4
X132.5Y-103.3
X133.9Y-120.5
X133.9Y-135.2
X134.3Y-94.8
X135.0Y-86.6
X135.6Y-100.7
X135.6Y-108.1
X136.6Y-79.1
X136.8Y-60.8
X138.0Y-98.5
X139.0Y-91.6
X140.6Y-95.5
X143.3Y-77.0
X143.5Y-111.9
X144.3Y-120.3
X144.5Y-135.6
X149.2Y-65.85
X149.2Y-79.55
X149.2Y-86.55
X149.3Y-72.55
X150.1Y-57.95
X150.4Y-149.75
X150.9Y-124.75
X151.6Y-132.35
X151.9Y-69.45
X151.9Y-76.55
X151.9Y-82.45
X151.9Y-88.05
X152.1Y-137.15
X153.3Y-97.45
X153.7Y-113.05
X153.7Y-117.35
X154.4Y-53.55
X154.5Y-142.55
X155.5Y-101.15
X155.5Y-106.85
X155.7Y-92.85
X155.7Y-127.05
X156.1Y-120.45
X157.2Y-111.05
X157.2Y-137.25
X157.5Y-134.45
X157.6Y-67.15
X158.1Y-59.15
X159.3Y-142.45
X159.5Y-95.55
X159.8Y-119.35
X160.3Y-129.85
X160.8Y-99.95
X161.1Y-68.95
X161.3Y-149.95
X162.0Y-117.35
X162.2Y-107.05
X162.7Y-53.45
X163.0Y-112.75
X163.8Y-95.45
X163.8Y-121.15
X163.9Y-92.15
X164.2Y-84.65
X164.6Y-61.25
X165.3Y-141.35
X165.4Y-110.25
X165.5Y-103.65
X165.8Y-98.95
X166.5Y-58.15
X167.5Y-120.95
X167.7Y-117.05
X167.7Y-130.05
X167.9Y-113.45
X168.8Y-83.65
X168.8Y-87.25
X168.9Y-90.95
X168.9Y-95.05
X170.0Y-133.25
X170.2Y-78.05
X170.2Y-141.85
X170.3Y-125.45
X171.1Y-63.65
X171.3Y-111.95
X171.8Y-68.05
X173.4Y-96.85
X173.6Y-129.95
X174.1Y-109.05
X174.5Y-76.25
X174.8Y-119.15
X175.1Y-71.35
X175.6Y-141.85
X176.0Y-64.55
X176.1Y-133.25
X176.8Y-110.55
X177.3Y-117.25
X178.5Y-97.25
X178.5Y-130.75
X178.6Y-145.35
X178.8Y-90.25
X179.3Y-60.45
X180.1Y-113.15
X180.4Y-102.05
X180.4Y-105.05
X180.5Y-125.75
X181.3Y-94.15
X181.8Y-119.35
X182.0Y-90.25
X182.3Y-70.85
X182.4Y-136.85
X183.2Y-143.65
X183.3Y-64.45
X184.1Y-101.85
X184.1Y-105.05
X184.2Y-76.55
X184.5Y-87.55
X184.5Y-97.05
X184.6Y-131.75
X184.7Y-127.15
X184.8Y-122.85
X184.9Y-111.25
X184.9Y-115.35
X186.3Y-54.15
X186.5Y-61.75
X186.6Y-73.05
X187.0Y-147.25
X187.1Y-119.55
X187.2Y-140.05
X188.4Y-84.45
X188.5Y-76.35
X188.7Y-136.45
X188.9Y-105.25
X189.2Y-102.05
X189.3Y-99.85
X189.5Y-115.55
X189.5Y-119.55
X190.9Y-67.15
X191.0Y-105.25
X191.2Y-87.95
X191.4Y-74.65
X191.6Y-59.75
X191.6Y-81.35
X192.4Y-148.05
X193.3Y-138.05
X193.4Y-115.45
X193.4Y-119.65
T3
X164.4Y-63.95
X164.4Y-65.22
X164.4Y-66.49
X168.425Y-63.95
X168.425Y-65.22
X168.425Y-66.49
X184.172Y-92.18
X184.172Y-93.45
X184.172Y-94.72
T4
X105.89Y-69.9
X105.89Y-73.3
X113.51Y-69.9
X113.51Y-73.3
X118.99Y-115.8
X119.5Y-68.29
X119.5Y-75.91
X120.9Y-96.29
X120.9Y-103.91
X121.0Y-83.99
X121.0Y-91.61
X122.9Y-68.29
X122.9Y-75.91
X124.3Y-83.99
X124.3Y-91.61
X124.6Y-97.4
X124.6Y-102.4
X126.2Y-68.29
X126.2Y-75.91
X126.61Y-115.8
X131.19Y-115.8
X132.39Y-73.9
X138.81Y-115.8
X140.01Y-73.9
X152.3Y-110.98
X152.3Y-140.03
X152.3Y-145.03
X152.4Y-64.15
X152.4Y-71.77
X152.7Y-60.85
X152.81Y-115.46
X152.81Y-123.08
X153.9Y-56.55
X154.0Y-129.0
X154.0Y-131.54
X154.0Y-134.08
X155.59Y-86.95
X155.8Y-64.14
X155.8Y-71.76
X156.1Y-90.24
X156.1Y-97.86
X156.11Y-115.44
X156.11Y-123.06
X156.2Y-139.84
X156.2Y-147.46
X156.44Y-56.55
X157.1Y-76.52
X157.1Y-79.06
X157.1Y-81.6
X158.98Y-56.55
X159.2Y-64.14
X159.2Y-71.76
X159.3Y-90.24
X159.3Y-97.86
X159.4Y-115.44
X159.4Y-123.06
X159.485Y-127.78
X159.485Y-135.4
X159.5Y-139.84
X159.5Y-147.46
X159.92Y-110.98
X160.32Y-60.85
X160.8Y-102.332
X160.8Y-104.832
X162.025Y-127.78
X162.025Y-135.4
X162.5Y-90.24
X162.5Y-97.86
X162.575Y-73.95
X162.575Y-81.57
X162.7Y-115.44
X162.7Y-123.06
X162.8Y-139.84
X162.8Y-147.46
X163.21Y-86.95
X163.865Y-69.46
X164.565Y-127.78
X164.565Y-135.4
X165.115Y-73.95
X165.115Y-81.57
X166.0Y-115.44
X166.0Y-123.06
X166.29Y-85.35
X166.29Y-88.65
X166.29Y-91.65
X166.29Y-94.35
X166.405Y-69.46
X167.105Y-127.78
X167.105Y-135.4
X167.655Y-73.95
X167.655Y-81.57
X167.8Y-140.55
X168.3Y-97.65
X168.3Y-102.65
X168.3Y-105.65
X168.3Y-110.65
X169.645Y-127.78
X169.645Y-135.4
X170.195Y-73.95
X170.195Y-81.57
X170.6Y-117.85
X170.6Y-122.85
X172.185Y-127.78
X172.185Y-135.4
X172.735Y-73.95
X172.735Y-81.57
X172.78Y-99.51
X172.78Y-107.13
X172.8Y-140.55
X173.6Y-62.13
X173.6Y-69.75
X173.91Y-85.35
X173.91Y-88.65
X173.91Y-91.65
X173.91Y-94.35
X174.59Y-111.62
X174.725Y-127.78
X174.725Y-135.4
X175.1Y-115.44
X175.1Y-123.06
X175.275Y-73.95
X175.275Y-81.57
X175.32Y-99.51
X175.32Y-107.13
X177.0Y-62.14
X177.0Y-69.76
X177.6Y-139.83
X177.6Y-147.45
X177.815Y-73.95
X177.815Y-81.57
X177.86Y-99.51
X177.86Y-107.13
X178.1Y-85.44
X178.1Y-93.06
X178.5Y-115.44
X178.5Y-123.06
X180.4Y-99.51
X180.4Y-107.13
X180.5Y-128.97
X180.5Y-131.51
X180.5Y-134.05
X180.59Y-64.15
X180.7Y-139.83
X180.7Y-147.45
X181.39Y-72.95
X181.5Y-77.65
X181.5Y-81.75
X181.5Y-87.45
X181.9Y-115.44
X181.9Y-123.06
X181.98Y-54.65
X182.21Y-111.62
X182.4Y-68.35
X183.42Y-59.35
X183.5Y-139.83
X183.5Y-147.45
X184.0Y-99.54
X184.0Y-107.16
X185.96Y-59.35
X186.5Y-77.65
X186.5Y-81.75
X186.5Y-87.45
X187.4Y-68.35
X188.21Y-64.15
X188.5Y-59.35
X189.01Y-72.95
X189.082Y-143.65
X189.6Y-54.65
X189.7Y-111.05
X191.4Y-63.44
X191.4Y-71.06
X191.582Y-143.65
X192.2Y-111.05
T5
X101.4Y-90.85
X101.4Y-93.39
X101.4Y-95.93
X101.4Y-98.47
X101.4Y-101.01
X101.4Y-103.55
X108.4Y-90.425
X108.4Y-111.775
X110.0Y-64.275
X110.9Y-90.425
X110.9Y-111.775
X112.5Y-64.275
X113.4Y-90.425
X113.4Y-111.775
X115.0Y-64.275
X131.88Y-90.425
X131.9Y-111.775
X134.2Y-69.025
X134.38Y-90.425
X134.4Y-111.775
X136.7Y-69.025
X136.88Y-90.425
X136.9Y-111.775
X139.2Y-69.025
X143.4Y-90.85
X143.4Y-93.39
X143.4Y-95.93
X143.4Y-98.47
X143.4Y-101.01
X143.4Y-103.55
X150.425Y-90.825
X150.425Y-93.365
X150.425Y-95.905
X150.425Y-98.445
X150.425Y-100.985
X150.425Y-103.525
X189.042Y-122.35
X189.042Y-124.89
X189.042Y-127.43
X189.042Y-129.97
X189.042Y-132.51
X191.582Y-122.35
X191.582Y-124.89
X191.582Y-127.43
X191.582Y-129.97
X191.582Y-132.51
X192.425Y-90.825
X192.425Y-93.365
X192.425Y-95.905
X192.425Y-98.445
X192.425Y-100.985
X192.425Y-103.525
T7
X105.1Y-131.68
X105.1Y-146.68
X116.6Y-131.68
X116.6Y-146.68
X128.1Y-131.68
X128.1Y-146.68
X139.6Y-131.68
X139.6Y-146.9
T8
X105.1Y-128.58
X105.1Y-143.58
X116.6Y-128.58
X116.6Y-143.58
X128.1Y-128.58
X128.1Y-143.58
X139.6Y-128.58
X139.6Y-143.8
T9
X105.1Y-120.28
X105.1Y-135.28
X116.6Y-120.28
X116.6Y-135.28
X128.1Y-120.28
X128.1Y-135.28
X139.6Y-120.28
X139.6Y-135.5
T10
X122.4Y-148.4
X125.4Y-55.0
X171.4Y-148.35
X174.32Y-54.95
T6
X106.1Y-83.275G85X106.1Y-82.575
G05
X106.1Y-104.625G85X106.1Y-103.925
G05
X107.7Y-57.125G85X107.7Y-56.425
G05
X115.7Y-83.275G85X115.7Y-82.575
G05
X115.7Y-104.625G85X115.7Y-103.925
G05
X117.3Y-57.125G85X117.3Y-56.425
G05
X129.58Y-83.275G85X129.58Y-82.575
G05
X129.6Y-104.625G85X129.6Y-103.925
G05
X131.9Y-61.875G85X131.9Y-61.175
G05
X139.18Y-83.275G85X139.18Y-82.575
G05
X139.2Y-104.625G85X139.2Y-103.925
G05
X141.5Y-61.875G85X141.5Y-61.175
G05
T0
M30
