%TF.GenerationSoftware,KiCad,Pcbnew,5.99.0-unknown-3763aca52c~129~ubuntu20.04.1*%
%TF.CreationDate,2021-06-21T22:08:16+02:00*%
%TF.ProjectId,VCO-Version-1,56434f2d-5665-4727-9369-6f6e2d312e6b,rev?*%
%TF.SameCoordinates,Original*%
%TF.FileFunction,Soldermask,Top*%
%TF.FilePolarity,Negative*%
%FSLAX46Y46*%
G04 Gerber Fmt 4.6, Leading zero omitted, Abs format (unit mm)*
G04 Created by KiCad (PCBNEW 5.99.0-unknown-3763aca52c~129~ubuntu20.04.1) date 2021-06-21 22:08:16*
%MOMM*%
%LPD*%
G01*
G04 APERTURE LIST*
G04 Aperture macros list*
%AMRoundRect*
0 Rectangle with rounded corners*
0 $1 Rounding radius*
0 $2 $3 $4 $5 $6 $7 $8 $9 X,Y pos of 4 corners*
0 Add a 4 corners polygon primitive as box body*
4,1,4,$2,$3,$4,$5,$6,$7,$8,$9,$2,$3,0*
0 Add four circle primitives for the rounded corners*
1,1,$1+$1,$2,$3*
1,1,$1+$1,$4,$5*
1,1,$1+$1,$6,$7*
1,1,$1+$1,$8,$9*
0 Add four rect primitives between the rounded corners*
20,1,$1+$1,$2,$3,$4,$5,0*
20,1,$1+$1,$4,$5,$6,$7,0*
20,1,$1+$1,$6,$7,$8,$9,0*
20,1,$1+$1,$8,$9,$2,$3,0*%
G04 Aperture macros list end*
%ADD10C,2.000000*%
%ADD11O,2.720000X3.240000*%
%ADD12R,1.800000X1.800000*%
%ADD13C,1.800000*%
%ADD14O,1.700000X1.700000*%
%ADD15R,1.700000X1.700000*%
%ADD16C,1.600000*%
%ADD17O,1.600000X1.600000*%
%ADD18R,1.930000X1.830000*%
%ADD19C,2.130000*%
%ADD20C,5.500000*%
%ADD21R,1.600000X1.600000*%
%ADD22O,1.500000X1.050000*%
%ADD23R,1.500000X1.050000*%
%ADD24C,1.440000*%
%ADD25C,1.700000*%
%ADD26RoundRect,0.250000X0.600000X0.600000X-0.600000X0.600000X-0.600000X-0.600000X0.600000X-0.600000X0*%
G04 APERTURE END LIST*
D10*
X146900000Y-125700000D03*
X146900000Y-128200000D03*
X146900000Y-120700000D03*
X146900000Y-123200000D03*
X146900000Y-130700000D03*
X146900000Y-75200000D03*
X146900000Y-72700000D03*
X146900000Y-80200000D03*
X146900000Y-77700000D03*
X146900000Y-70200000D03*
D11*
X129600000Y-104275000D03*
X139200000Y-104275000D03*
D12*
X131900000Y-111775000D03*
D13*
X134400000Y-111775000D03*
X136900000Y-111775000D03*
D14*
X150425000Y-103525000D03*
X150425000Y-100985000D03*
X150425000Y-98445000D03*
X150425000Y-95905000D03*
X150425000Y-93365000D03*
D15*
X150425000Y-90825000D03*
D16*
X126200000Y-68290000D03*
D17*
X126200000Y-75910000D03*
D11*
X139180000Y-82925000D03*
X129580000Y-82925000D03*
D12*
X131880000Y-90425000D03*
D13*
X134380000Y-90425000D03*
X136880000Y-90425000D03*
D16*
X122900000Y-75910000D03*
D17*
X122900000Y-68290000D03*
D18*
X116600000Y-131680000D03*
D19*
X116600000Y-120280000D03*
X116600000Y-128580000D03*
D18*
X128100000Y-131680000D03*
D19*
X128100000Y-120280000D03*
X128100000Y-128580000D03*
D16*
X121000000Y-91610000D03*
D17*
X121000000Y-83990000D03*
D18*
X105100000Y-131680000D03*
D19*
X105100000Y-120280000D03*
X105100000Y-128580000D03*
D18*
X116600000Y-146680000D03*
D19*
X116600000Y-135280000D03*
X116600000Y-143580000D03*
D20*
X122400000Y-148400000D03*
D16*
X126610000Y-115800000D03*
D17*
X118990000Y-115800000D03*
D14*
X192425000Y-103525000D03*
X192425000Y-100985000D03*
X192425000Y-98445000D03*
X192425000Y-95905000D03*
X192425000Y-93365000D03*
D15*
X192425000Y-90825000D03*
D16*
X124300000Y-83990000D03*
D17*
X124300000Y-91610000D03*
D18*
X105100000Y-146680000D03*
D19*
X105100000Y-135280000D03*
X105100000Y-143580000D03*
D11*
X117300000Y-56775000D03*
X107700000Y-56775000D03*
D12*
X110000000Y-64275000D03*
D13*
X112500000Y-64275000D03*
X115000000Y-64275000D03*
D16*
X113510000Y-73300000D03*
D17*
X105890000Y-73300000D03*
D11*
X131900000Y-61525000D03*
X141500000Y-61525000D03*
D12*
X134200000Y-69025000D03*
D13*
X136700000Y-69025000D03*
X139200000Y-69025000D03*
D11*
X115700000Y-104275000D03*
X106100000Y-104275000D03*
D12*
X108400000Y-111775000D03*
D13*
X110900000Y-111775000D03*
X113400000Y-111775000D03*
D16*
X140010000Y-73900000D03*
D17*
X132390000Y-73900000D03*
D16*
X119500000Y-75910000D03*
D17*
X119500000Y-68290000D03*
D18*
X128100000Y-146680000D03*
D19*
X128100000Y-135280000D03*
X128100000Y-143580000D03*
D20*
X171400000Y-148350000D03*
D18*
X139600000Y-146900000D03*
D19*
X139600000Y-135500000D03*
X139600000Y-143800000D03*
D16*
X124600000Y-102400000D03*
X124600000Y-97400000D03*
D18*
X139600000Y-131680000D03*
D19*
X139600000Y-120280000D03*
X139600000Y-128580000D03*
D16*
X138810000Y-115800000D03*
D17*
X131190000Y-115800000D03*
D16*
X105890000Y-69900000D03*
D17*
X113510000Y-69900000D03*
D20*
X174320000Y-54950000D03*
D11*
X115700000Y-82925000D03*
X106100000Y-82925000D03*
D12*
X108400000Y-90425000D03*
D13*
X110900000Y-90425000D03*
X113400000Y-90425000D03*
D21*
X120900000Y-96290000D03*
D17*
X120900000Y-103910000D03*
D20*
X125400000Y-55000000D03*
D21*
X173910000Y-91650000D03*
D17*
X166290000Y-91650000D03*
D16*
X168300000Y-110650000D03*
X168300000Y-105650000D03*
X160800000Y-102332380D03*
D21*
X160800000Y-104832380D03*
D22*
X168425000Y-63950000D03*
X168425000Y-65220000D03*
D23*
X168425000Y-66490000D03*
D16*
X168300000Y-102650000D03*
X168300000Y-97650000D03*
X189082380Y-143650000D03*
D21*
X191582380Y-143650000D03*
D17*
X191400000Y-71060000D03*
D21*
X191400000Y-63440000D03*
D17*
X166000000Y-123060000D03*
D16*
X166000000Y-115440000D03*
D17*
X163865000Y-69460000D03*
D16*
X166405000Y-69460000D03*
X173910000Y-85350000D03*
D17*
X166290000Y-85350000D03*
X177600000Y-147450000D03*
D16*
X177600000Y-139830000D03*
X162800000Y-139840000D03*
D17*
X162800000Y-147460000D03*
D16*
X172800000Y-140550000D03*
X167800000Y-140550000D03*
D17*
X180400000Y-99510000D03*
X177860000Y-99510000D03*
X175320000Y-99510000D03*
X172780000Y-99510000D03*
X172780000Y-107130000D03*
X175320000Y-107130000D03*
X177860000Y-107130000D03*
D21*
X180400000Y-107130000D03*
X166290000Y-94350000D03*
D17*
X173910000Y-94350000D03*
X156100000Y-90240000D03*
D16*
X156100000Y-97860000D03*
D22*
X184172500Y-94720000D03*
X184172500Y-93450000D03*
D23*
X184172500Y-92180000D03*
D17*
X155800000Y-64140000D03*
D16*
X155800000Y-71760000D03*
D17*
X181900000Y-115440000D03*
D16*
X181900000Y-123060000D03*
D17*
X181980000Y-54650000D03*
D16*
X189600000Y-54650000D03*
D24*
X158980000Y-56550000D03*
X156440000Y-56550000D03*
X153900000Y-56550000D03*
X154000000Y-134080000D03*
X154000000Y-131540000D03*
X154000000Y-129000000D03*
D17*
X162500000Y-97860000D03*
D16*
X162500000Y-90240000D03*
D17*
X180700000Y-139830000D03*
D21*
X180700000Y-147450000D03*
D17*
X184000000Y-107160000D03*
D16*
X184000000Y-99540000D03*
D17*
X178500000Y-123060000D03*
D16*
X178500000Y-115440000D03*
X187400000Y-68350000D03*
X182400000Y-68350000D03*
D17*
X189010000Y-72950000D03*
D16*
X181390000Y-72950000D03*
D17*
X152400000Y-71770000D03*
D16*
X152400000Y-64150000D03*
X186500000Y-77650000D03*
X181500000Y-77650000D03*
D17*
X159400000Y-115440000D03*
D16*
X159400000Y-123060000D03*
D15*
X143400000Y-90850000D03*
D14*
X143400000Y-93390000D03*
X143400000Y-95930000D03*
X143400000Y-98470000D03*
X143400000Y-101010000D03*
X143400000Y-103550000D03*
D25*
X189042380Y-132510000D03*
X191582380Y-132510000D03*
X189042380Y-129970000D03*
X191582380Y-129970000D03*
X189042380Y-127430000D03*
X191582380Y-127430000D03*
X189042380Y-124890000D03*
X191582380Y-124890000D03*
X189042380Y-122350000D03*
D26*
X191582380Y-122350000D03*
D17*
X188210000Y-64150000D03*
D16*
X180590000Y-64150000D03*
X159200000Y-64140000D03*
D17*
X159200000Y-71760000D03*
X162700000Y-115440000D03*
D16*
X162700000Y-123060000D03*
D24*
X157100000Y-76520000D03*
X157100000Y-79060000D03*
X157100000Y-81600000D03*
D17*
X152300000Y-110980000D03*
D16*
X159920000Y-110980000D03*
X152300000Y-145030000D03*
X152300000Y-140030000D03*
D17*
X162575000Y-81570000D03*
X165115000Y-81570000D03*
X167655000Y-81570000D03*
X170195000Y-81570000D03*
X172735000Y-81570000D03*
X175275000Y-81570000D03*
X177815000Y-81570000D03*
X177815000Y-73950000D03*
X175275000Y-73950000D03*
X172735000Y-73950000D03*
X170195000Y-73950000D03*
X167655000Y-73950000D03*
X165115000Y-73950000D03*
D21*
X162575000Y-73950000D03*
D17*
X159300000Y-90240000D03*
D16*
X159300000Y-97860000D03*
X181500000Y-87450000D03*
X186500000Y-87450000D03*
X166290000Y-88650000D03*
D17*
X173910000Y-88650000D03*
X182210000Y-111620000D03*
D16*
X174590000Y-111620000D03*
D17*
X160320000Y-60850000D03*
D16*
X152700000Y-60850000D03*
D24*
X180500000Y-128970000D03*
X180500000Y-131510000D03*
X180500000Y-134050000D03*
D17*
X155590000Y-86950000D03*
D16*
X163210000Y-86950000D03*
X170600000Y-122850000D03*
X170600000Y-117850000D03*
D17*
X175100000Y-115440000D03*
D16*
X175100000Y-123060000D03*
X192200000Y-111050000D03*
D21*
X189700000Y-111050000D03*
D16*
X156200000Y-139840000D03*
D17*
X156200000Y-147460000D03*
X174725000Y-127780000D03*
X172185000Y-127780000D03*
X169645000Y-127780000D03*
X167105000Y-127780000D03*
X164565000Y-127780000D03*
X162025000Y-127780000D03*
X159485000Y-127780000D03*
X159485000Y-135400000D03*
X162025000Y-135400000D03*
X164565000Y-135400000D03*
X167105000Y-135400000D03*
X169645000Y-135400000D03*
X172185000Y-135400000D03*
D21*
X174725000Y-135400000D03*
D15*
X101400000Y-90850000D03*
D14*
X101400000Y-93390000D03*
X101400000Y-95930000D03*
X101400000Y-98470000D03*
X101400000Y-101010000D03*
X101400000Y-103550000D03*
D17*
X183500000Y-147450000D03*
D21*
X183500000Y-139830000D03*
D16*
X181500000Y-81750000D03*
X186500000Y-81750000D03*
X159500000Y-147460000D03*
D17*
X159500000Y-139840000D03*
X178100000Y-93060000D03*
D16*
X178100000Y-85440000D03*
D17*
X152810000Y-123080000D03*
D16*
X152810000Y-115460000D03*
D17*
X173600000Y-62130000D03*
D16*
X173600000Y-69750000D03*
D24*
X188500000Y-59350000D03*
X185960000Y-59350000D03*
X183420000Y-59350000D03*
D17*
X177000000Y-69760000D03*
D16*
X177000000Y-62140000D03*
D17*
X156110000Y-123060000D03*
D16*
X156110000Y-115440000D03*
D22*
X164400000Y-66490000D03*
X164400000Y-65220000D03*
D23*
X164400000Y-63950000D03*
M02*
