%TF.GenerationSoftware,KiCad,Pcbnew,5.99.0-unknown-3763aca52c~129~ubuntu20.04.1*%
%TF.CreationDate,2021-06-21T22:08:16+02:00*%
%TF.ProjectId,VCO-Version-1,56434f2d-5665-4727-9369-6f6e2d312e6b,rev?*%
%TF.SameCoordinates,Original*%
%TF.FileFunction,Legend,Top*%
%TF.FilePolarity,Positive*%
%FSLAX46Y46*%
G04 Gerber Fmt 4.6, Leading zero omitted, Abs format (unit mm)*
G04 Created by KiCad (PCBNEW 5.99.0-unknown-3763aca52c~129~ubuntu20.04.1) date 2021-06-21 22:08:16*
%MOMM*%
%LPD*%
G01*
G04 APERTURE LIST*
G04 Aperture macros list*
%AMRoundRect*
0 Rectangle with rounded corners*
0 $1 Rounding radius*
0 $2 $3 $4 $5 $6 $7 $8 $9 X,Y pos of 4 corners*
0 Add a 4 corners polygon primitive as box body*
4,1,4,$2,$3,$4,$5,$6,$7,$8,$9,$2,$3,0*
0 Add four circle primitives for the rounded corners*
1,1,$1+$1,$2,$3*
1,1,$1+$1,$4,$5*
1,1,$1+$1,$6,$7*
1,1,$1+$1,$8,$9*
0 Add four rect primitives between the rounded corners*
20,1,$1+$1,$2,$3,$4,$5,0*
20,1,$1+$1,$4,$5,$6,$7,0*
20,1,$1+$1,$6,$7,$8,$9,0*
20,1,$1+$1,$8,$9,$2,$3,0*%
G04 Aperture macros list end*
%ADD10C,0.150000*%
%ADD11C,0.120000*%
%ADD12C,2.000000*%
%ADD13O,2.720000X3.240000*%
%ADD14R,1.800000X1.800000*%
%ADD15C,1.800000*%
%ADD16O,1.700000X1.700000*%
%ADD17R,1.700000X1.700000*%
%ADD18C,1.600000*%
%ADD19O,1.600000X1.600000*%
%ADD20R,1.930000X1.830000*%
%ADD21C,2.130000*%
%ADD22C,5.500000*%
%ADD23R,1.600000X1.600000*%
%ADD24O,1.500000X1.050000*%
%ADD25R,1.500000X1.050000*%
%ADD26C,1.440000*%
%ADD27C,1.700000*%
%ADD28RoundRect,0.250000X0.600000X0.600000X-0.600000X0.600000X-0.600000X-0.600000X0.600000X-0.600000X0*%
G04 APERTURE END LIST*
D10*
X127712380Y-105660238D02*
X127236190Y-105993571D01*
X127712380Y-106231666D02*
X126712380Y-106231666D01*
X126712380Y-105850714D01*
X126760000Y-105755476D01*
X126807619Y-105707857D01*
X126902857Y-105660238D01*
X127045714Y-105660238D01*
X127140952Y-105707857D01*
X127188571Y-105755476D01*
X127236190Y-105850714D01*
X127236190Y-106231666D01*
X126712380Y-105374523D02*
X127712380Y-105041190D01*
X126712380Y-104707857D01*
X126712380Y-103898333D02*
X126712380Y-104374523D01*
X127188571Y-104422142D01*
X127140952Y-104374523D01*
X127093333Y-104279285D01*
X127093333Y-104041190D01*
X127140952Y-103945952D01*
X127188571Y-103898333D01*
X127283809Y-103850714D01*
X127521904Y-103850714D01*
X127617142Y-103898333D01*
X127664761Y-103945952D01*
X127712380Y-104041190D01*
X127712380Y-104279285D01*
X127664761Y-104374523D01*
X127617142Y-104422142D01*
X149615476Y-87507380D02*
X149615476Y-88221666D01*
X149567857Y-88364523D01*
X149472619Y-88459761D01*
X149329761Y-88507380D01*
X149234523Y-88507380D01*
X150615476Y-88507380D02*
X150044047Y-88507380D01*
X150329761Y-88507380D02*
X150329761Y-87507380D01*
X150234523Y-87650238D01*
X150139285Y-87745476D01*
X150044047Y-87793095D01*
X150996428Y-87602619D02*
X151044047Y-87555000D01*
X151139285Y-87507380D01*
X151377380Y-87507380D01*
X151472619Y-87555000D01*
X151520238Y-87602619D01*
X151567857Y-87697857D01*
X151567857Y-87793095D01*
X151520238Y-87935952D01*
X150948809Y-88507380D01*
X151567857Y-88507380D01*
X125457142Y-78452380D02*
X125123809Y-77976190D01*
X124885714Y-78452380D02*
X124885714Y-77452380D01*
X125266666Y-77452380D01*
X125361904Y-77500000D01*
X125409523Y-77547619D01*
X125457142Y-77642857D01*
X125457142Y-77785714D01*
X125409523Y-77880952D01*
X125361904Y-77928571D01*
X125266666Y-77976190D01*
X124885714Y-77976190D01*
X126409523Y-78452380D02*
X125838095Y-78452380D01*
X126123809Y-78452380D02*
X126123809Y-77452380D01*
X126028571Y-77595238D01*
X125933333Y-77690476D01*
X125838095Y-77738095D01*
X127028571Y-77452380D02*
X127123809Y-77452380D01*
X127219047Y-77500000D01*
X127266666Y-77547619D01*
X127314285Y-77642857D01*
X127361904Y-77833333D01*
X127361904Y-78071428D01*
X127314285Y-78261904D01*
X127266666Y-78357142D01*
X127219047Y-78404761D01*
X127123809Y-78452380D01*
X127028571Y-78452380D01*
X126933333Y-78404761D01*
X126885714Y-78357142D01*
X126838095Y-78261904D01*
X126790476Y-78071428D01*
X126790476Y-77833333D01*
X126838095Y-77642857D01*
X126885714Y-77547619D01*
X126933333Y-77500000D01*
X127028571Y-77452380D01*
X128832380Y-88545238D02*
X128356190Y-88878571D01*
X128832380Y-89116666D02*
X127832380Y-89116666D01*
X127832380Y-88735714D01*
X127880000Y-88640476D01*
X127927619Y-88592857D01*
X128022857Y-88545238D01*
X128165714Y-88545238D01*
X128260952Y-88592857D01*
X128308571Y-88640476D01*
X128356190Y-88735714D01*
X128356190Y-89116666D01*
X127832380Y-88259523D02*
X128832380Y-87926190D01*
X127832380Y-87592857D01*
X127832380Y-86830952D02*
X127832380Y-87021428D01*
X127880000Y-87116666D01*
X127927619Y-87164285D01*
X128070476Y-87259523D01*
X128260952Y-87307142D01*
X128641904Y-87307142D01*
X128737142Y-87259523D01*
X128784761Y-87211904D01*
X128832380Y-87116666D01*
X128832380Y-86926190D01*
X128784761Y-86830952D01*
X128737142Y-86783333D01*
X128641904Y-86735714D01*
X128403809Y-86735714D01*
X128308571Y-86783333D01*
X128260952Y-86830952D01*
X128213333Y-86926190D01*
X128213333Y-87116666D01*
X128260952Y-87211904D01*
X128308571Y-87259523D01*
X128403809Y-87307142D01*
X122633333Y-78352380D02*
X122300000Y-77876190D01*
X122061904Y-78352380D02*
X122061904Y-77352380D01*
X122442857Y-77352380D01*
X122538095Y-77400000D01*
X122585714Y-77447619D01*
X122633333Y-77542857D01*
X122633333Y-77685714D01*
X122585714Y-77780952D01*
X122538095Y-77828571D01*
X122442857Y-77876190D01*
X122061904Y-77876190D01*
X123014285Y-77447619D02*
X123061904Y-77400000D01*
X123157142Y-77352380D01*
X123395238Y-77352380D01*
X123490476Y-77400000D01*
X123538095Y-77447619D01*
X123585714Y-77542857D01*
X123585714Y-77638095D01*
X123538095Y-77780952D01*
X122966666Y-78352380D01*
X123585714Y-78352380D01*
X120296666Y-130052380D02*
X120296666Y-130766666D01*
X120249047Y-130909523D01*
X120153809Y-131004761D01*
X120010952Y-131052380D01*
X119915714Y-131052380D01*
X120725238Y-130147619D02*
X120772857Y-130100000D01*
X120868095Y-130052380D01*
X121106190Y-130052380D01*
X121201428Y-130100000D01*
X121249047Y-130147619D01*
X121296666Y-130242857D01*
X121296666Y-130338095D01*
X121249047Y-130480952D01*
X120677619Y-131052380D01*
X121296666Y-131052380D01*
X131796666Y-130052380D02*
X131796666Y-130766666D01*
X131749047Y-130909523D01*
X131653809Y-131004761D01*
X131510952Y-131052380D01*
X131415714Y-131052380D01*
X132177619Y-130052380D02*
X132796666Y-130052380D01*
X132463333Y-130433333D01*
X132606190Y-130433333D01*
X132701428Y-130480952D01*
X132749047Y-130528571D01*
X132796666Y-130623809D01*
X132796666Y-130861904D01*
X132749047Y-130957142D01*
X132701428Y-131004761D01*
X132606190Y-131052380D01*
X132320476Y-131052380D01*
X132225238Y-131004761D01*
X132177619Y-130957142D01*
X119082380Y-87966666D02*
X118606190Y-88300000D01*
X119082380Y-88538095D02*
X118082380Y-88538095D01*
X118082380Y-88157142D01*
X118130000Y-88061904D01*
X118177619Y-88014285D01*
X118272857Y-87966666D01*
X118415714Y-87966666D01*
X118510952Y-88014285D01*
X118558571Y-88061904D01*
X118606190Y-88157142D01*
X118606190Y-88538095D01*
X118082380Y-87633333D02*
X118082380Y-86966666D01*
X119082380Y-87395238D01*
X108796666Y-130052380D02*
X108796666Y-130766666D01*
X108749047Y-130909523D01*
X108653809Y-131004761D01*
X108510952Y-131052380D01*
X108415714Y-131052380D01*
X109796666Y-131052380D02*
X109225238Y-131052380D01*
X109510952Y-131052380D02*
X109510952Y-130052380D01*
X109415714Y-130195238D01*
X109320476Y-130290476D01*
X109225238Y-130338095D01*
X112616666Y-145052380D02*
X112616666Y-145766666D01*
X112569047Y-145909523D01*
X112473809Y-146004761D01*
X112330952Y-146052380D01*
X112235714Y-146052380D01*
X113521428Y-145052380D02*
X113330952Y-145052380D01*
X113235714Y-145100000D01*
X113188095Y-145147619D01*
X113092857Y-145290476D01*
X113045238Y-145480952D01*
X113045238Y-145861904D01*
X113092857Y-145957142D01*
X113140476Y-146004761D01*
X113235714Y-146052380D01*
X113426190Y-146052380D01*
X113521428Y-146004761D01*
X113569047Y-145957142D01*
X113616666Y-145861904D01*
X113616666Y-145623809D01*
X113569047Y-145528571D01*
X113521428Y-145480952D01*
X113426190Y-145433333D01*
X113235714Y-145433333D01*
X113140476Y-145480952D01*
X113092857Y-145528571D01*
X113045238Y-145623809D01*
X124913333Y-118542380D02*
X124580000Y-118066190D01*
X124341904Y-118542380D02*
X124341904Y-117542380D01*
X124722857Y-117542380D01*
X124818095Y-117590000D01*
X124865714Y-117637619D01*
X124913333Y-117732857D01*
X124913333Y-117875714D01*
X124865714Y-117970952D01*
X124818095Y-118018571D01*
X124722857Y-118066190D01*
X124341904Y-118066190D01*
X125484761Y-117970952D02*
X125389523Y-117923333D01*
X125341904Y-117875714D01*
X125294285Y-117780476D01*
X125294285Y-117732857D01*
X125341904Y-117637619D01*
X125389523Y-117590000D01*
X125484761Y-117542380D01*
X125675238Y-117542380D01*
X125770476Y-117590000D01*
X125818095Y-117637619D01*
X125865714Y-117732857D01*
X125865714Y-117780476D01*
X125818095Y-117875714D01*
X125770476Y-117923333D01*
X125675238Y-117970952D01*
X125484761Y-117970952D01*
X125389523Y-118018571D01*
X125341904Y-118066190D01*
X125294285Y-118161428D01*
X125294285Y-118351904D01*
X125341904Y-118447142D01*
X125389523Y-118494761D01*
X125484761Y-118542380D01*
X125675238Y-118542380D01*
X125770476Y-118494761D01*
X125818095Y-118447142D01*
X125865714Y-118351904D01*
X125865714Y-118161428D01*
X125818095Y-118066190D01*
X125770476Y-118018571D01*
X125675238Y-117970952D01*
X191615476Y-87507380D02*
X191615476Y-88221666D01*
X191567857Y-88364523D01*
X191472619Y-88459761D01*
X191329761Y-88507380D01*
X191234523Y-88507380D01*
X192615476Y-88507380D02*
X192044047Y-88507380D01*
X192329761Y-88507380D02*
X192329761Y-87507380D01*
X192234523Y-87650238D01*
X192139285Y-87745476D01*
X192044047Y-87793095D01*
X193567857Y-88507380D02*
X192996428Y-88507380D01*
X193282142Y-88507380D02*
X193282142Y-87507380D01*
X193186904Y-87650238D01*
X193091666Y-87745476D01*
X192996428Y-87793095D01*
X127122380Y-87966666D02*
X126646190Y-88300000D01*
X127122380Y-88538095D02*
X126122380Y-88538095D01*
X126122380Y-88157142D01*
X126170000Y-88061904D01*
X126217619Y-88014285D01*
X126312857Y-87966666D01*
X126455714Y-87966666D01*
X126550952Y-88014285D01*
X126598571Y-88061904D01*
X126646190Y-88157142D01*
X126646190Y-88538095D01*
X126122380Y-87109523D02*
X126122380Y-87300000D01*
X126170000Y-87395238D01*
X126217619Y-87442857D01*
X126360476Y-87538095D01*
X126550952Y-87585714D01*
X126931904Y-87585714D01*
X127027142Y-87538095D01*
X127074761Y-87490476D01*
X127122380Y-87395238D01*
X127122380Y-87204761D01*
X127074761Y-87109523D01*
X127027142Y-87061904D01*
X126931904Y-87014285D01*
X126693809Y-87014285D01*
X126598571Y-87061904D01*
X126550952Y-87109523D01*
X126503333Y-87204761D01*
X126503333Y-87395238D01*
X126550952Y-87490476D01*
X126598571Y-87538095D01*
X126693809Y-87585714D01*
X108796666Y-145052380D02*
X108796666Y-145766666D01*
X108749047Y-145909523D01*
X108653809Y-146004761D01*
X108510952Y-146052380D01*
X108415714Y-146052380D01*
X109701428Y-145385714D02*
X109701428Y-146052380D01*
X109463333Y-145004761D02*
X109225238Y-145719047D01*
X109844285Y-145719047D01*
X105812380Y-58160238D02*
X105336190Y-58493571D01*
X105812380Y-58731666D02*
X104812380Y-58731666D01*
X104812380Y-58350714D01*
X104860000Y-58255476D01*
X104907619Y-58207857D01*
X105002857Y-58160238D01*
X105145714Y-58160238D01*
X105240952Y-58207857D01*
X105288571Y-58255476D01*
X105336190Y-58350714D01*
X105336190Y-58731666D01*
X104812380Y-57874523D02*
X105812380Y-57541190D01*
X104812380Y-57207857D01*
X104907619Y-56922142D02*
X104860000Y-56874523D01*
X104812380Y-56779285D01*
X104812380Y-56541190D01*
X104860000Y-56445952D01*
X104907619Y-56398333D01*
X105002857Y-56350714D01*
X105098095Y-56350714D01*
X105240952Y-56398333D01*
X105812380Y-56969761D01*
X105812380Y-56350714D01*
X103533333Y-73652380D02*
X103200000Y-73176190D01*
X102961904Y-73652380D02*
X102961904Y-72652380D01*
X103342857Y-72652380D01*
X103438095Y-72700000D01*
X103485714Y-72747619D01*
X103533333Y-72842857D01*
X103533333Y-72985714D01*
X103485714Y-73080952D01*
X103438095Y-73128571D01*
X103342857Y-73176190D01*
X102961904Y-73176190D01*
X104009523Y-73652380D02*
X104200000Y-73652380D01*
X104295238Y-73604761D01*
X104342857Y-73557142D01*
X104438095Y-73414285D01*
X104485714Y-73223809D01*
X104485714Y-72842857D01*
X104438095Y-72747619D01*
X104390476Y-72700000D01*
X104295238Y-72652380D01*
X104104761Y-72652380D01*
X104009523Y-72700000D01*
X103961904Y-72747619D01*
X103914285Y-72842857D01*
X103914285Y-73080952D01*
X103961904Y-73176190D01*
X104009523Y-73223809D01*
X104104761Y-73271428D01*
X104295238Y-73271428D01*
X104390476Y-73223809D01*
X104438095Y-73176190D01*
X104485714Y-73080952D01*
X130012380Y-62910238D02*
X129536190Y-63243571D01*
X130012380Y-63481666D02*
X129012380Y-63481666D01*
X129012380Y-63100714D01*
X129060000Y-63005476D01*
X129107619Y-62957857D01*
X129202857Y-62910238D01*
X129345714Y-62910238D01*
X129440952Y-62957857D01*
X129488571Y-63005476D01*
X129536190Y-63100714D01*
X129536190Y-63481666D01*
X129012380Y-62624523D02*
X130012380Y-62291190D01*
X129012380Y-61957857D01*
X129012380Y-61719761D02*
X129012380Y-61100714D01*
X129393333Y-61434047D01*
X129393333Y-61291190D01*
X129440952Y-61195952D01*
X129488571Y-61148333D01*
X129583809Y-61100714D01*
X129821904Y-61100714D01*
X129917142Y-61148333D01*
X129964761Y-61195952D01*
X130012380Y-61291190D01*
X130012380Y-61576904D01*
X129964761Y-61672142D01*
X129917142Y-61719761D01*
X104212380Y-105660238D02*
X103736190Y-105993571D01*
X104212380Y-106231666D02*
X103212380Y-106231666D01*
X103212380Y-105850714D01*
X103260000Y-105755476D01*
X103307619Y-105707857D01*
X103402857Y-105660238D01*
X103545714Y-105660238D01*
X103640952Y-105707857D01*
X103688571Y-105755476D01*
X103736190Y-105850714D01*
X103736190Y-106231666D01*
X103212380Y-105374523D02*
X104212380Y-105041190D01*
X103212380Y-104707857D01*
X104212380Y-103850714D02*
X104212380Y-104422142D01*
X104212380Y-104136428D02*
X103212380Y-104136428D01*
X103355238Y-104231666D01*
X103450476Y-104326904D01*
X103498095Y-104422142D01*
X136033333Y-76722380D02*
X135700000Y-76246190D01*
X135461904Y-76722380D02*
X135461904Y-75722380D01*
X135842857Y-75722380D01*
X135938095Y-75770000D01*
X135985714Y-75817619D01*
X136033333Y-75912857D01*
X136033333Y-76055714D01*
X135985714Y-76150952D01*
X135938095Y-76198571D01*
X135842857Y-76246190D01*
X135461904Y-76246190D01*
X136890476Y-76055714D02*
X136890476Y-76722380D01*
X136652380Y-75674761D02*
X136414285Y-76389047D01*
X137033333Y-76389047D01*
X119233333Y-78552380D02*
X118900000Y-78076190D01*
X118661904Y-78552380D02*
X118661904Y-77552380D01*
X119042857Y-77552380D01*
X119138095Y-77600000D01*
X119185714Y-77647619D01*
X119233333Y-77742857D01*
X119233333Y-77885714D01*
X119185714Y-77980952D01*
X119138095Y-78028571D01*
X119042857Y-78076190D01*
X118661904Y-78076190D01*
X120185714Y-78552380D02*
X119614285Y-78552380D01*
X119900000Y-78552380D02*
X119900000Y-77552380D01*
X119804761Y-77695238D01*
X119709523Y-77790476D01*
X119614285Y-77838095D01*
X131796666Y-145052380D02*
X131796666Y-145766666D01*
X131749047Y-145909523D01*
X131653809Y-146004761D01*
X131510952Y-146052380D01*
X131415714Y-146052380D01*
X132177619Y-145052380D02*
X132844285Y-145052380D01*
X132415714Y-146052380D01*
X143296666Y-145272380D02*
X143296666Y-145986666D01*
X143249047Y-146129523D01*
X143153809Y-146224761D01*
X143010952Y-146272380D01*
X142915714Y-146272380D01*
X143915714Y-145700952D02*
X143820476Y-145653333D01*
X143772857Y-145605714D01*
X143725238Y-145510476D01*
X143725238Y-145462857D01*
X143772857Y-145367619D01*
X143820476Y-145320000D01*
X143915714Y-145272380D01*
X144106190Y-145272380D01*
X144201428Y-145320000D01*
X144249047Y-145367619D01*
X144296666Y-145462857D01*
X144296666Y-145510476D01*
X144249047Y-145605714D01*
X144201428Y-145653333D01*
X144106190Y-145700952D01*
X143915714Y-145700952D01*
X143820476Y-145748571D01*
X143772857Y-145796190D01*
X143725238Y-145891428D01*
X143725238Y-146081904D01*
X143772857Y-146177142D01*
X143820476Y-146224761D01*
X143915714Y-146272380D01*
X144106190Y-146272380D01*
X144201428Y-146224761D01*
X144249047Y-146177142D01*
X144296666Y-146081904D01*
X144296666Y-145891428D01*
X144249047Y-145796190D01*
X144201428Y-145748571D01*
X144106190Y-145700952D01*
X124233333Y-104957142D02*
X124185714Y-105004761D01*
X124042857Y-105052380D01*
X123947619Y-105052380D01*
X123804761Y-105004761D01*
X123709523Y-104909523D01*
X123661904Y-104814285D01*
X123614285Y-104623809D01*
X123614285Y-104480952D01*
X123661904Y-104290476D01*
X123709523Y-104195238D01*
X123804761Y-104100000D01*
X123947619Y-104052380D01*
X124042857Y-104052380D01*
X124185714Y-104100000D01*
X124233333Y-104147619D01*
X125185714Y-105052380D02*
X124614285Y-105052380D01*
X124900000Y-105052380D02*
X124900000Y-104052380D01*
X124804761Y-104195238D01*
X124709523Y-104290476D01*
X124614285Y-104338095D01*
X143296666Y-130052380D02*
X143296666Y-130766666D01*
X143249047Y-130909523D01*
X143153809Y-131004761D01*
X143010952Y-131052380D01*
X142915714Y-131052380D01*
X144249047Y-130052380D02*
X143772857Y-130052380D01*
X143725238Y-130528571D01*
X143772857Y-130480952D01*
X143868095Y-130433333D01*
X144106190Y-130433333D01*
X144201428Y-130480952D01*
X144249047Y-130528571D01*
X144296666Y-130623809D01*
X144296666Y-130861904D01*
X144249047Y-130957142D01*
X144201428Y-131004761D01*
X144106190Y-131052380D01*
X143868095Y-131052380D01*
X143772857Y-131004761D01*
X143725238Y-130957142D01*
X134833333Y-118622380D02*
X134500000Y-118146190D01*
X134261904Y-118622380D02*
X134261904Y-117622380D01*
X134642857Y-117622380D01*
X134738095Y-117670000D01*
X134785714Y-117717619D01*
X134833333Y-117812857D01*
X134833333Y-117955714D01*
X134785714Y-118050952D01*
X134738095Y-118098571D01*
X134642857Y-118146190D01*
X134261904Y-118146190D01*
X135738095Y-117622380D02*
X135261904Y-117622380D01*
X135214285Y-118098571D01*
X135261904Y-118050952D01*
X135357142Y-118003333D01*
X135595238Y-118003333D01*
X135690476Y-118050952D01*
X135738095Y-118098571D01*
X135785714Y-118193809D01*
X135785714Y-118431904D01*
X135738095Y-118527142D01*
X135690476Y-118574761D01*
X135595238Y-118622380D01*
X135357142Y-118622380D01*
X135261904Y-118574761D01*
X135214285Y-118527142D01*
X103633333Y-70452380D02*
X103300000Y-69976190D01*
X103061904Y-70452380D02*
X103061904Y-69452380D01*
X103442857Y-69452380D01*
X103538095Y-69500000D01*
X103585714Y-69547619D01*
X103633333Y-69642857D01*
X103633333Y-69785714D01*
X103585714Y-69880952D01*
X103538095Y-69928571D01*
X103442857Y-69976190D01*
X103061904Y-69976190D01*
X103966666Y-69452380D02*
X104585714Y-69452380D01*
X104252380Y-69833333D01*
X104395238Y-69833333D01*
X104490476Y-69880952D01*
X104538095Y-69928571D01*
X104585714Y-70023809D01*
X104585714Y-70261904D01*
X104538095Y-70357142D01*
X104490476Y-70404761D01*
X104395238Y-70452380D01*
X104109523Y-70452380D01*
X104014285Y-70404761D01*
X103966666Y-70357142D01*
X104212380Y-84310238D02*
X103736190Y-84643571D01*
X104212380Y-84881666D02*
X103212380Y-84881666D01*
X103212380Y-84500714D01*
X103260000Y-84405476D01*
X103307619Y-84357857D01*
X103402857Y-84310238D01*
X103545714Y-84310238D01*
X103640952Y-84357857D01*
X103688571Y-84405476D01*
X103736190Y-84500714D01*
X103736190Y-84881666D01*
X103212380Y-84024523D02*
X104212380Y-83691190D01*
X103212380Y-83357857D01*
X103545714Y-82595952D02*
X104212380Y-82595952D01*
X103164761Y-82834047D02*
X103879047Y-83072142D01*
X103879047Y-82453095D01*
X120261904Y-106352380D02*
X120261904Y-105352380D01*
X120500000Y-105352380D01*
X120642857Y-105400000D01*
X120738095Y-105495238D01*
X120785714Y-105590476D01*
X120833333Y-105780952D01*
X120833333Y-105923809D01*
X120785714Y-106114285D01*
X120738095Y-106209523D01*
X120642857Y-106304761D01*
X120500000Y-106352380D01*
X120261904Y-106352380D01*
X121785714Y-106352380D02*
X121214285Y-106352380D01*
X121500000Y-106352380D02*
X121500000Y-105352380D01*
X121404761Y-105495238D01*
X121309523Y-105590476D01*
X121214285Y-105638095D01*
X121452380Y-99761904D02*
X120452380Y-99761904D01*
X121452380Y-99190476D02*
X120880952Y-99619047D01*
X120452380Y-99190476D02*
X121023809Y-99761904D01*
D11*
X139270000Y-102365000D02*
X139270000Y-99305000D01*
X129530000Y-102365000D02*
X129530000Y-99305000D01*
X136060000Y-110895000D02*
X135230000Y-110895000D01*
X129520000Y-110895000D02*
X129520000Y-106175000D01*
X139270000Y-110895000D02*
X137780000Y-110895000D01*
X139270000Y-99305000D02*
X129530000Y-99305000D01*
X139270000Y-110895000D02*
X139270000Y-106175000D01*
X130710000Y-110895000D02*
X129530000Y-110895000D01*
X133610000Y-110895000D02*
X133080000Y-110895000D01*
X151755000Y-89495000D02*
X151755000Y-90825000D01*
X151755000Y-92095000D02*
X151755000Y-104855000D01*
X150425000Y-89495000D02*
X151755000Y-89495000D01*
X149095000Y-104855000D02*
X151755000Y-104855000D01*
X149095000Y-92095000D02*
X151755000Y-92095000D01*
X149095000Y-92095000D02*
X149095000Y-104855000D01*
X127240000Y-68830000D02*
X127570000Y-68830000D01*
X125160000Y-68830000D02*
X124830000Y-68830000D01*
X127570000Y-68830000D02*
X127570000Y-75370000D01*
X124830000Y-68830000D02*
X124830000Y-75370000D01*
X124830000Y-75370000D02*
X125160000Y-75370000D01*
X127570000Y-75370000D02*
X127240000Y-75370000D01*
X129510000Y-81015000D02*
X129510000Y-77955000D01*
X139250000Y-81015000D02*
X139250000Y-77955000D01*
X139250000Y-89545000D02*
X137760000Y-89545000D01*
X133590000Y-89545000D02*
X133060000Y-89545000D01*
X139250000Y-77955000D02*
X129510000Y-77955000D01*
X139250000Y-89545000D02*
X139250000Y-84825000D01*
X129500000Y-89545000D02*
X129500000Y-84825000D01*
X136040000Y-89545000D02*
X135210000Y-89545000D01*
X130690000Y-89545000D02*
X129510000Y-89545000D01*
X123940000Y-75370000D02*
X124270000Y-75370000D01*
X121530000Y-68830000D02*
X121860000Y-68830000D01*
X121530000Y-75370000D02*
X121530000Y-68830000D01*
X124270000Y-68830000D02*
X123940000Y-68830000D01*
X121860000Y-75370000D02*
X121530000Y-75370000D01*
X124270000Y-75370000D02*
X124270000Y-68830000D01*
X112100000Y-129700000D02*
X116250000Y-129700000D01*
X117660000Y-132680000D02*
X117660000Y-131880000D01*
X117100000Y-119200000D02*
X121100000Y-119200000D01*
X116950000Y-129700000D02*
X121100000Y-129700000D01*
X117660000Y-132680000D02*
X116800000Y-132680000D01*
X112100000Y-119200000D02*
X116100000Y-119200000D01*
X112100000Y-129700000D02*
X112100000Y-119200000D01*
X121100000Y-129700000D02*
X121100000Y-119200000D01*
X118400000Y-125200000D02*
G75*
G03*
X118400000Y-125200000I-1800000J0D01*
G01*
X129160000Y-132680000D02*
X129160000Y-131880000D01*
X128600000Y-119200000D02*
X132600000Y-119200000D01*
X129160000Y-132680000D02*
X128300000Y-132680000D01*
X128450000Y-129700000D02*
X132600000Y-129700000D01*
X132600000Y-129700000D02*
X132600000Y-119200000D01*
X123600000Y-129700000D02*
X123600000Y-119200000D01*
X123600000Y-129700000D02*
X127750000Y-129700000D01*
X123600000Y-119200000D02*
X127600000Y-119200000D01*
X129900000Y-125200000D02*
G75*
G03*
X129900000Y-125200000I-1800000J0D01*
G01*
X119960000Y-91070000D02*
X119630000Y-91070000D01*
X122370000Y-84530000D02*
X122040000Y-84530000D01*
X122040000Y-91070000D02*
X122370000Y-91070000D01*
X119630000Y-91070000D02*
X119630000Y-84530000D01*
X119630000Y-84530000D02*
X119960000Y-84530000D01*
X122370000Y-91070000D02*
X122370000Y-84530000D01*
X100600000Y-129700000D02*
X104750000Y-129700000D01*
X106160000Y-132680000D02*
X106160000Y-131880000D01*
X100600000Y-119200000D02*
X104600000Y-119200000D01*
X100600000Y-129700000D02*
X100600000Y-119200000D01*
X105600000Y-119200000D02*
X109600000Y-119200000D01*
X109600000Y-129700000D02*
X109600000Y-119200000D01*
X106160000Y-132680000D02*
X105300000Y-132680000D01*
X105450000Y-129700000D02*
X109600000Y-129700000D01*
X106900000Y-125200000D02*
G75*
G03*
X106900000Y-125200000I-1800000J0D01*
G01*
X112100000Y-144700000D02*
X116250000Y-144700000D01*
X116950000Y-144700000D02*
X121100000Y-144700000D01*
X112100000Y-144700000D02*
X112100000Y-134200000D01*
X117100000Y-134200000D02*
X121100000Y-134200000D01*
X121100000Y-144700000D02*
X121100000Y-134200000D01*
X117660000Y-147680000D02*
X116800000Y-147680000D01*
X112100000Y-134200000D02*
X116100000Y-134200000D01*
X117660000Y-147680000D02*
X117660000Y-146880000D01*
X118400000Y-140200000D02*
G75*
G03*
X118400000Y-140200000I-1800000J0D01*
G01*
X119530000Y-114430000D02*
X119530000Y-114760000D01*
X126070000Y-114430000D02*
X119530000Y-114430000D01*
X119530000Y-117170000D02*
X119530000Y-116840000D01*
X126070000Y-116840000D02*
X126070000Y-117170000D01*
X126070000Y-114760000D02*
X126070000Y-114430000D01*
X126070000Y-117170000D02*
X119530000Y-117170000D01*
X191095000Y-104855000D02*
X193755000Y-104855000D01*
X191095000Y-92095000D02*
X191095000Y-104855000D01*
X193755000Y-89495000D02*
X193755000Y-90825000D01*
X192425000Y-89495000D02*
X193755000Y-89495000D01*
X193755000Y-92095000D02*
X193755000Y-104855000D01*
X191095000Y-92095000D02*
X193755000Y-92095000D01*
X122930000Y-84530000D02*
X122930000Y-91070000D01*
X125670000Y-84530000D02*
X125670000Y-91070000D01*
X125340000Y-84530000D02*
X125670000Y-84530000D01*
X123260000Y-84530000D02*
X122930000Y-84530000D01*
X125670000Y-91070000D02*
X125340000Y-91070000D01*
X122930000Y-91070000D02*
X123260000Y-91070000D01*
X109600000Y-144700000D02*
X109600000Y-134200000D01*
X105600000Y-134200000D02*
X109600000Y-134200000D01*
X106160000Y-147680000D02*
X105300000Y-147680000D01*
X105450000Y-144700000D02*
X109600000Y-144700000D01*
X100600000Y-144700000D02*
X100600000Y-134200000D01*
X100600000Y-134200000D02*
X104600000Y-134200000D01*
X100600000Y-144700000D02*
X104750000Y-144700000D01*
X106160000Y-147680000D02*
X106160000Y-146880000D01*
X106900000Y-140200000D02*
G75*
G03*
X106900000Y-140200000I-1800000J0D01*
G01*
X107620000Y-63395000D02*
X107620000Y-58675000D01*
X111710000Y-63395000D02*
X111180000Y-63395000D01*
X107630000Y-54865000D02*
X107630000Y-51805000D01*
X117370000Y-63395000D02*
X115880000Y-63395000D01*
X117370000Y-51805000D02*
X107630000Y-51805000D01*
X114160000Y-63395000D02*
X113330000Y-63395000D01*
X117370000Y-54865000D02*
X117370000Y-51805000D01*
X108810000Y-63395000D02*
X107630000Y-63395000D01*
X117370000Y-63395000D02*
X117370000Y-58675000D01*
X112970000Y-72260000D02*
X112970000Y-71930000D01*
X106430000Y-71930000D02*
X106430000Y-72260000D01*
X106430000Y-74670000D02*
X106430000Y-74340000D01*
X112970000Y-74340000D02*
X112970000Y-74670000D01*
X112970000Y-71930000D02*
X106430000Y-71930000D01*
X112970000Y-74670000D02*
X106430000Y-74670000D01*
X141570000Y-68145000D02*
X141570000Y-63425000D01*
X131820000Y-68145000D02*
X131820000Y-63425000D01*
X141570000Y-59615000D02*
X141570000Y-56555000D01*
X133010000Y-68145000D02*
X131830000Y-68145000D01*
X138360000Y-68145000D02*
X137530000Y-68145000D01*
X141570000Y-68145000D02*
X140080000Y-68145000D01*
X131830000Y-59615000D02*
X131830000Y-56555000D01*
X141570000Y-56555000D02*
X131830000Y-56555000D01*
X135910000Y-68145000D02*
X135380000Y-68145000D01*
X107210000Y-110895000D02*
X106030000Y-110895000D01*
X115770000Y-110895000D02*
X115770000Y-106175000D01*
X112560000Y-110895000D02*
X111730000Y-110895000D01*
X106030000Y-102365000D02*
X106030000Y-99305000D01*
X115770000Y-110895000D02*
X114280000Y-110895000D01*
X110110000Y-110895000D02*
X109580000Y-110895000D01*
X106020000Y-110895000D02*
X106020000Y-106175000D01*
X115770000Y-102365000D02*
X115770000Y-99305000D01*
X115770000Y-99305000D02*
X106030000Y-99305000D01*
X139470000Y-75270000D02*
X132930000Y-75270000D01*
X139470000Y-72860000D02*
X139470000Y-72530000D01*
X139470000Y-72530000D02*
X132930000Y-72530000D01*
X139470000Y-74940000D02*
X139470000Y-75270000D01*
X132930000Y-72530000D02*
X132930000Y-72860000D01*
X132930000Y-75270000D02*
X132930000Y-74940000D01*
X118460000Y-75370000D02*
X118130000Y-75370000D01*
X118130000Y-75370000D02*
X118130000Y-68830000D01*
X120870000Y-75370000D02*
X120870000Y-68830000D01*
X120870000Y-68830000D02*
X120540000Y-68830000D01*
X118130000Y-68830000D02*
X118460000Y-68830000D01*
X120540000Y-75370000D02*
X120870000Y-75370000D01*
X132600000Y-144700000D02*
X132600000Y-134200000D01*
X129160000Y-147680000D02*
X128300000Y-147680000D01*
X123600000Y-144700000D02*
X123600000Y-134200000D01*
X128450000Y-144700000D02*
X132600000Y-144700000D01*
X123600000Y-144700000D02*
X127750000Y-144700000D01*
X128600000Y-134200000D02*
X132600000Y-134200000D01*
X123600000Y-134200000D02*
X127600000Y-134200000D01*
X129160000Y-147680000D02*
X129160000Y-146880000D01*
X129900000Y-140200000D02*
G75*
G03*
X129900000Y-140200000I-1800000J0D01*
G01*
X140100000Y-134420000D02*
X144100000Y-134420000D01*
X135100000Y-144920000D02*
X139250000Y-144920000D01*
X135100000Y-134420000D02*
X139100000Y-134420000D01*
X144100000Y-144920000D02*
X144100000Y-134420000D01*
X139950000Y-144920000D02*
X144100000Y-144920000D01*
X140660000Y-147900000D02*
X140660000Y-147100000D01*
X140660000Y-147900000D02*
X139800000Y-147900000D01*
X135100000Y-144920000D02*
X135100000Y-134420000D01*
X141400000Y-140420000D02*
G75*
G03*
X141400000Y-140420000I-1800000J0D01*
G01*
X122730000Y-96280000D02*
X126470000Y-96280000D01*
X122730000Y-103520000D02*
X122730000Y-96280000D01*
X122730000Y-103520000D02*
X126470000Y-103520000D01*
X126470000Y-103520000D02*
X126470000Y-96280000D01*
X140100000Y-119200000D02*
X144100000Y-119200000D01*
X144100000Y-129700000D02*
X144100000Y-119200000D01*
X140660000Y-132680000D02*
X140660000Y-131880000D01*
X135100000Y-129700000D02*
X135100000Y-119200000D01*
X135100000Y-119200000D02*
X139100000Y-119200000D01*
X139950000Y-129700000D02*
X144100000Y-129700000D01*
X140660000Y-132680000D02*
X139800000Y-132680000D01*
X135100000Y-129700000D02*
X139250000Y-129700000D01*
X141400000Y-125200000D02*
G75*
G03*
X141400000Y-125200000I-1800000J0D01*
G01*
X131730000Y-114430000D02*
X131730000Y-114760000D01*
X138270000Y-117170000D02*
X131730000Y-117170000D01*
X131730000Y-117170000D02*
X131730000Y-116840000D01*
X138270000Y-114760000D02*
X138270000Y-114430000D01*
X138270000Y-114430000D02*
X131730000Y-114430000D01*
X138270000Y-116840000D02*
X138270000Y-117170000D01*
X106430000Y-68860000D02*
X106430000Y-68530000D01*
X112970000Y-71270000D02*
X112970000Y-70940000D01*
X106430000Y-71270000D02*
X112970000Y-71270000D01*
X112970000Y-68530000D02*
X112970000Y-68860000D01*
X106430000Y-68530000D02*
X112970000Y-68530000D01*
X106430000Y-70940000D02*
X106430000Y-71270000D01*
X110110000Y-89545000D02*
X109580000Y-89545000D01*
X107210000Y-89545000D02*
X106030000Y-89545000D01*
X115770000Y-89545000D02*
X114280000Y-89545000D01*
X115770000Y-77955000D02*
X106030000Y-77955000D01*
X115770000Y-89545000D02*
X115770000Y-84825000D01*
X115770000Y-81015000D02*
X115770000Y-77955000D01*
X106020000Y-89545000D02*
X106020000Y-84825000D01*
X106030000Y-81015000D02*
X106030000Y-77955000D01*
X112560000Y-89545000D02*
X111730000Y-89545000D01*
X122020000Y-98580000D02*
X119780000Y-98580000D01*
X122020000Y-98700000D02*
X119780000Y-98700000D01*
X120900000Y-102870000D02*
X120900000Y-102220000D01*
X119780000Y-97980000D02*
X119780000Y-102220000D01*
X120900000Y-97330000D02*
X120900000Y-97980000D01*
X122020000Y-97980000D02*
X119780000Y-97980000D01*
X119780000Y-102220000D02*
X122020000Y-102220000D01*
X122020000Y-98820000D02*
X119780000Y-98820000D01*
X122020000Y-102220000D02*
X122020000Y-97980000D01*
%LPC*%
D12*
X146900000Y-125700000D03*
X146900000Y-128200000D03*
X146900000Y-120700000D03*
X146900000Y-123200000D03*
X146900000Y-130700000D03*
X146900000Y-75200000D03*
X146900000Y-72700000D03*
X146900000Y-80200000D03*
X146900000Y-77700000D03*
X146900000Y-70200000D03*
D13*
X129600000Y-104275000D03*
X139200000Y-104275000D03*
D14*
X131900000Y-111775000D03*
D15*
X134400000Y-111775000D03*
X136900000Y-111775000D03*
D16*
X150425000Y-103525000D03*
X150425000Y-100985000D03*
X150425000Y-98445000D03*
X150425000Y-95905000D03*
X150425000Y-93365000D03*
D17*
X150425000Y-90825000D03*
D18*
X126200000Y-68290000D03*
D19*
X126200000Y-75910000D03*
D13*
X139180000Y-82925000D03*
X129580000Y-82925000D03*
D14*
X131880000Y-90425000D03*
D15*
X134380000Y-90425000D03*
X136880000Y-90425000D03*
D18*
X122900000Y-75910000D03*
D19*
X122900000Y-68290000D03*
D20*
X116600000Y-131680000D03*
D21*
X116600000Y-120280000D03*
X116600000Y-128580000D03*
D20*
X128100000Y-131680000D03*
D21*
X128100000Y-120280000D03*
X128100000Y-128580000D03*
D18*
X121000000Y-91610000D03*
D19*
X121000000Y-83990000D03*
D20*
X105100000Y-131680000D03*
D21*
X105100000Y-120280000D03*
X105100000Y-128580000D03*
D20*
X116600000Y-146680000D03*
D21*
X116600000Y-135280000D03*
X116600000Y-143580000D03*
D22*
X122400000Y-148400000D03*
D18*
X126610000Y-115800000D03*
D19*
X118990000Y-115800000D03*
D16*
X192425000Y-103525000D03*
X192425000Y-100985000D03*
X192425000Y-98445000D03*
X192425000Y-95905000D03*
X192425000Y-93365000D03*
D17*
X192425000Y-90825000D03*
D18*
X124300000Y-83990000D03*
D19*
X124300000Y-91610000D03*
D20*
X105100000Y-146680000D03*
D21*
X105100000Y-135280000D03*
X105100000Y-143580000D03*
D13*
X117300000Y-56775000D03*
X107700000Y-56775000D03*
D14*
X110000000Y-64275000D03*
D15*
X112500000Y-64275000D03*
X115000000Y-64275000D03*
D18*
X113510000Y-73300000D03*
D19*
X105890000Y-73300000D03*
D13*
X131900000Y-61525000D03*
X141500000Y-61525000D03*
D14*
X134200000Y-69025000D03*
D15*
X136700000Y-69025000D03*
X139200000Y-69025000D03*
D13*
X115700000Y-104275000D03*
X106100000Y-104275000D03*
D14*
X108400000Y-111775000D03*
D15*
X110900000Y-111775000D03*
X113400000Y-111775000D03*
D18*
X140010000Y-73900000D03*
D19*
X132390000Y-73900000D03*
D18*
X119500000Y-75910000D03*
D19*
X119500000Y-68290000D03*
D20*
X128100000Y-146680000D03*
D21*
X128100000Y-135280000D03*
X128100000Y-143580000D03*
D22*
X171400000Y-148350000D03*
D20*
X139600000Y-146900000D03*
D21*
X139600000Y-135500000D03*
X139600000Y-143800000D03*
D18*
X124600000Y-102400000D03*
X124600000Y-97400000D03*
D20*
X139600000Y-131680000D03*
D21*
X139600000Y-120280000D03*
X139600000Y-128580000D03*
D18*
X138810000Y-115800000D03*
D19*
X131190000Y-115800000D03*
D18*
X105890000Y-69900000D03*
D19*
X113510000Y-69900000D03*
D22*
X174320000Y-54950000D03*
D13*
X115700000Y-82925000D03*
X106100000Y-82925000D03*
D14*
X108400000Y-90425000D03*
D15*
X110900000Y-90425000D03*
X113400000Y-90425000D03*
D23*
X120900000Y-96290000D03*
D19*
X120900000Y-103910000D03*
D22*
X125400000Y-55000000D03*
D23*
X173910000Y-91650000D03*
D19*
X166290000Y-91650000D03*
D18*
X168300000Y-110650000D03*
X168300000Y-105650000D03*
X160800000Y-102332380D03*
D23*
X160800000Y-104832380D03*
D24*
X168425000Y-63950000D03*
X168425000Y-65220000D03*
D25*
X168425000Y-66490000D03*
D18*
X168300000Y-102650000D03*
X168300000Y-97650000D03*
X189082380Y-143650000D03*
D23*
X191582380Y-143650000D03*
D19*
X191400000Y-71060000D03*
D23*
X191400000Y-63440000D03*
D19*
X166000000Y-123060000D03*
D18*
X166000000Y-115440000D03*
D19*
X163865000Y-69460000D03*
D18*
X166405000Y-69460000D03*
X173910000Y-85350000D03*
D19*
X166290000Y-85350000D03*
X177600000Y-147450000D03*
D18*
X177600000Y-139830000D03*
X162800000Y-139840000D03*
D19*
X162800000Y-147460000D03*
D18*
X172800000Y-140550000D03*
X167800000Y-140550000D03*
D19*
X180400000Y-99510000D03*
X177860000Y-99510000D03*
X175320000Y-99510000D03*
X172780000Y-99510000D03*
X172780000Y-107130000D03*
X175320000Y-107130000D03*
X177860000Y-107130000D03*
D23*
X180400000Y-107130000D03*
X166290000Y-94350000D03*
D19*
X173910000Y-94350000D03*
X156100000Y-90240000D03*
D18*
X156100000Y-97860000D03*
D24*
X184172500Y-94720000D03*
X184172500Y-93450000D03*
D25*
X184172500Y-92180000D03*
D19*
X155800000Y-64140000D03*
D18*
X155800000Y-71760000D03*
D19*
X181900000Y-115440000D03*
D18*
X181900000Y-123060000D03*
D19*
X181980000Y-54650000D03*
D18*
X189600000Y-54650000D03*
D26*
X158980000Y-56550000D03*
X156440000Y-56550000D03*
X153900000Y-56550000D03*
X154000000Y-134080000D03*
X154000000Y-131540000D03*
X154000000Y-129000000D03*
D19*
X162500000Y-97860000D03*
D18*
X162500000Y-90240000D03*
D19*
X180700000Y-139830000D03*
D23*
X180700000Y-147450000D03*
D19*
X184000000Y-107160000D03*
D18*
X184000000Y-99540000D03*
D19*
X178500000Y-123060000D03*
D18*
X178500000Y-115440000D03*
X187400000Y-68350000D03*
X182400000Y-68350000D03*
D19*
X189010000Y-72950000D03*
D18*
X181390000Y-72950000D03*
D19*
X152400000Y-71770000D03*
D18*
X152400000Y-64150000D03*
X186500000Y-77650000D03*
X181500000Y-77650000D03*
D19*
X159400000Y-115440000D03*
D18*
X159400000Y-123060000D03*
D17*
X143400000Y-90850000D03*
D16*
X143400000Y-93390000D03*
X143400000Y-95930000D03*
X143400000Y-98470000D03*
X143400000Y-101010000D03*
X143400000Y-103550000D03*
D27*
X189042380Y-132510000D03*
X191582380Y-132510000D03*
X189042380Y-129970000D03*
X191582380Y-129970000D03*
X189042380Y-127430000D03*
X191582380Y-127430000D03*
X189042380Y-124890000D03*
X191582380Y-124890000D03*
X189042380Y-122350000D03*
D28*
X191582380Y-122350000D03*
D19*
X188210000Y-64150000D03*
D18*
X180590000Y-64150000D03*
X159200000Y-64140000D03*
D19*
X159200000Y-71760000D03*
X162700000Y-115440000D03*
D18*
X162700000Y-123060000D03*
D26*
X157100000Y-76520000D03*
X157100000Y-79060000D03*
X157100000Y-81600000D03*
D19*
X152300000Y-110980000D03*
D18*
X159920000Y-110980000D03*
X152300000Y-145030000D03*
X152300000Y-140030000D03*
D19*
X162575000Y-81570000D03*
X165115000Y-81570000D03*
X167655000Y-81570000D03*
X170195000Y-81570000D03*
X172735000Y-81570000D03*
X175275000Y-81570000D03*
X177815000Y-81570000D03*
X177815000Y-73950000D03*
X175275000Y-73950000D03*
X172735000Y-73950000D03*
X170195000Y-73950000D03*
X167655000Y-73950000D03*
X165115000Y-73950000D03*
D23*
X162575000Y-73950000D03*
D19*
X159300000Y-90240000D03*
D18*
X159300000Y-97860000D03*
X181500000Y-87450000D03*
X186500000Y-87450000D03*
X166290000Y-88650000D03*
D19*
X173910000Y-88650000D03*
X182210000Y-111620000D03*
D18*
X174590000Y-111620000D03*
D19*
X160320000Y-60850000D03*
D18*
X152700000Y-60850000D03*
D26*
X180500000Y-128970000D03*
X180500000Y-131510000D03*
X180500000Y-134050000D03*
D19*
X155590000Y-86950000D03*
D18*
X163210000Y-86950000D03*
X170600000Y-122850000D03*
X170600000Y-117850000D03*
D19*
X175100000Y-115440000D03*
D18*
X175100000Y-123060000D03*
X192200000Y-111050000D03*
D23*
X189700000Y-111050000D03*
D18*
X156200000Y-139840000D03*
D19*
X156200000Y-147460000D03*
X174725000Y-127780000D03*
X172185000Y-127780000D03*
X169645000Y-127780000D03*
X167105000Y-127780000D03*
X164565000Y-127780000D03*
X162025000Y-127780000D03*
X159485000Y-127780000D03*
X159485000Y-135400000D03*
X162025000Y-135400000D03*
X164565000Y-135400000D03*
X167105000Y-135400000D03*
X169645000Y-135400000D03*
X172185000Y-135400000D03*
D23*
X174725000Y-135400000D03*
D17*
X101400000Y-90850000D03*
D16*
X101400000Y-93390000D03*
X101400000Y-95930000D03*
X101400000Y-98470000D03*
X101400000Y-101010000D03*
X101400000Y-103550000D03*
D19*
X183500000Y-147450000D03*
D23*
X183500000Y-139830000D03*
D18*
X181500000Y-81750000D03*
X186500000Y-81750000D03*
X159500000Y-147460000D03*
D19*
X159500000Y-139840000D03*
X178100000Y-93060000D03*
D18*
X178100000Y-85440000D03*
D19*
X152810000Y-123080000D03*
D18*
X152810000Y-115460000D03*
D19*
X173600000Y-62130000D03*
D18*
X173600000Y-69750000D03*
D26*
X188500000Y-59350000D03*
X185960000Y-59350000D03*
X183420000Y-59350000D03*
D19*
X177000000Y-69760000D03*
D18*
X177000000Y-62140000D03*
D19*
X156110000Y-123060000D03*
D18*
X156110000Y-115440000D03*
D24*
X164400000Y-66490000D03*
X164400000Y-65220000D03*
D25*
X164400000Y-63950000D03*
M02*
